%TF.GenerationSoftware,KiCad,Pcbnew,9.0.2*%
%TF.CreationDate,2025-08-05T21:19:51-07:00*%
%TF.ProjectId,telepresence-bot,74656c65-7072-4657-9365-6e63652d626f,rev?*%
%TF.SameCoordinates,Original*%
%TF.FileFunction,Paste,Bot*%
%TF.FilePolarity,Positive*%
%FSLAX46Y46*%
G04 Gerber Fmt 4.6, Leading zero omitted, Abs format (unit mm)*
G04 Created by KiCad (PCBNEW 9.0.2) date 2025-08-05 21:19:51*
%MOMM*%
%LPD*%
G01*
G04 APERTURE LIST*
G04 Aperture macros list*
%AMRoundRect*
0 Rectangle with rounded corners*
0 $1 Rounding radius*
0 $2 $3 $4 $5 $6 $7 $8 $9 X,Y pos of 4 corners*
0 Add a 4 corners polygon primitive as box body*
4,1,4,$2,$3,$4,$5,$6,$7,$8,$9,$2,$3,0*
0 Add four circle primitives for the rounded corners*
1,1,$1+$1,$2,$3*
1,1,$1+$1,$4,$5*
1,1,$1+$1,$6,$7*
1,1,$1+$1,$8,$9*
0 Add four rect primitives between the rounded corners*
20,1,$1+$1,$2,$3,$4,$5,0*
20,1,$1+$1,$4,$5,$6,$7,0*
20,1,$1+$1,$6,$7,$8,$9,0*
20,1,$1+$1,$8,$9,$2,$3,0*%
G04 Aperture macros list end*
%ADD10RoundRect,0.250000X0.450000X-0.350000X0.450000X0.350000X-0.450000X0.350000X-0.450000X-0.350000X0*%
%ADD11RoundRect,0.250000X0.350000X0.450000X-0.350000X0.450000X-0.350000X-0.450000X0.350000X-0.450000X0*%
%ADD12RoundRect,0.075000X0.075000X-0.650000X0.075000X0.650000X-0.075000X0.650000X-0.075000X-0.650000X0*%
%ADD13RoundRect,0.250000X-0.450000X0.350000X-0.450000X-0.350000X0.450000X-0.350000X0.450000X0.350000X0*%
%ADD14RoundRect,0.250000X-0.350000X-0.450000X0.350000X-0.450000X0.350000X0.450000X-0.350000X0.450000X0*%
%ADD15RoundRect,0.250000X-0.475000X0.337500X-0.475000X-0.337500X0.475000X-0.337500X0.475000X0.337500X0*%
%ADD16RoundRect,0.250000X-0.337500X-0.475000X0.337500X-0.475000X0.337500X0.475000X-0.337500X0.475000X0*%
%ADD17R,1.010000X2.287000*%
%ADD18R,1.010000X0.762000*%
%ADD19RoundRect,0.250001X1.074999X-0.462499X1.074999X0.462499X-1.074999X0.462499X-1.074999X-0.462499X0*%
%ADD20RoundRect,0.250000X-0.412500X-0.650000X0.412500X-0.650000X0.412500X0.650000X-0.412500X0.650000X0*%
%ADD21RoundRect,0.250000X0.337500X0.475000X-0.337500X0.475000X-0.337500X-0.475000X0.337500X-0.475000X0*%
%ADD22RoundRect,0.250000X0.475000X-0.337500X0.475000X0.337500X-0.475000X0.337500X-0.475000X-0.337500X0*%
%ADD23RoundRect,0.250001X0.462499X1.074999X-0.462499X1.074999X-0.462499X-1.074999X0.462499X-1.074999X0*%
%ADD24RoundRect,0.250000X0.412500X0.650000X-0.412500X0.650000X-0.412500X-0.650000X0.412500X-0.650000X0*%
%ADD25RoundRect,0.250000X0.650000X-0.412500X0.650000X0.412500X-0.650000X0.412500X-0.650000X-0.412500X0*%
%ADD26R,0.400000X1.200000*%
G04 APERTURE END LIST*
D10*
%TO.C,R25*%
X67672000Y-55738000D03*
X67672000Y-57738000D03*
%TD*%
D11*
%TO.C,R51*%
X92626000Y-55927000D03*
X94626000Y-55927000D03*
%TD*%
D12*
%TO.C,U6*%
X116476000Y-35927000D03*
X115976000Y-35927000D03*
X115476000Y-35927000D03*
X114976000Y-35927000D03*
X114476000Y-35927000D03*
X114476000Y-40327000D03*
X114976000Y-40327000D03*
X115476000Y-40327000D03*
X115976000Y-40327000D03*
X116476000Y-40327000D03*
%TD*%
D13*
%TO.C,R93*%
X35160000Y-51150000D03*
X35160000Y-49150000D03*
%TD*%
D14*
%TO.C,R7*%
X87389600Y-89139000D03*
X85389600Y-89139000D03*
%TD*%
D13*
%TO.C,R49*%
X54083000Y-51404000D03*
X54083000Y-49404000D03*
%TD*%
%TO.C,R92*%
X32747000Y-51277000D03*
X32747000Y-49277000D03*
%TD*%
D14*
%TO.C,R44*%
X62751600Y-70089000D03*
X60751600Y-70089000D03*
%TD*%
D11*
%TO.C,R43*%
X67276000Y-65427000D03*
X69276000Y-65427000D03*
%TD*%
D10*
%TO.C,R18*%
X76176000Y-74627000D03*
X76176000Y-76627000D03*
%TD*%
D13*
%TO.C,R29*%
X101745000Y-51077000D03*
X101745000Y-49077000D03*
%TD*%
D15*
%TO.C,C21*%
X77042400Y-68942100D03*
X77042400Y-66867100D03*
%TD*%
D10*
%TO.C,R20*%
X72276000Y-74627000D03*
X72276000Y-76627000D03*
%TD*%
D13*
%TO.C,R69*%
X49003000Y-51404000D03*
X49003000Y-49404000D03*
%TD*%
D10*
%TO.C,R19*%
X74276000Y-74627000D03*
X74276000Y-76627000D03*
%TD*%
D16*
%TO.C,C25*%
X64381500Y-105753618D03*
X62306500Y-105753618D03*
%TD*%
D13*
%TO.C,R39*%
X97526000Y-67927000D03*
X97526000Y-65927000D03*
%TD*%
D10*
%TO.C,R89*%
X35287000Y-55754000D03*
X35287000Y-57754000D03*
%TD*%
D17*
%TO.C,R22*%
X116426000Y-26277000D03*
D18*
X116426000Y-28182500D03*
X114656000Y-28182500D03*
D17*
X114656000Y-26276500D03*
%TD*%
D14*
%TO.C,R11*%
X119917600Y-56525400D03*
X117917600Y-56525400D03*
%TD*%
D10*
%TO.C,R81*%
X21317000Y-55754000D03*
X21317000Y-57754000D03*
%TD*%
D13*
%TO.C,R23*%
X77795000Y-51277000D03*
X77795000Y-49277000D03*
%TD*%
D11*
%TO.C,R38*%
X107640000Y-18374600D03*
X109640000Y-18374600D03*
%TD*%
D13*
%TO.C,R24*%
X67395000Y-51404000D03*
X67395000Y-49404000D03*
%TD*%
%TO.C,R77*%
X56496000Y-51404000D03*
X56496000Y-49404000D03*
%TD*%
%TO.C,R36*%
X80295000Y-51177000D03*
X80295000Y-49177000D03*
%TD*%
D19*
%TO.C,FB2*%
X62582000Y-97865318D03*
X62582000Y-100840318D03*
%TD*%
D13*
%TO.C,R52*%
X94045000Y-51277000D03*
X94045000Y-49277000D03*
%TD*%
D20*
%TO.C,C36*%
X20466500Y-43546000D03*
X17341500Y-43546000D03*
%TD*%
D10*
%TO.C,R94*%
X65976000Y-74627000D03*
X65976000Y-76627000D03*
%TD*%
D21*
%TO.C,C26*%
X57654400Y-97879618D03*
X59729400Y-97879618D03*
%TD*%
D13*
%TO.C,R78*%
X59163000Y-51404000D03*
X59163000Y-49404000D03*
%TD*%
%TO.C,R65*%
X43669000Y-51404000D03*
X43669000Y-49404000D03*
%TD*%
D19*
%TO.C,L4*%
X38335000Y-37867500D03*
X38335000Y-40842500D03*
%TD*%
D13*
%TO.C,R82*%
X22460000Y-51404000D03*
X22460000Y-49404000D03*
%TD*%
D21*
%TO.C,C12*%
X111615700Y-102245400D03*
X113690700Y-102245400D03*
%TD*%
D13*
%TO.C,R50*%
X91445000Y-51177000D03*
X91445000Y-49177000D03*
%TD*%
D22*
%TO.C,C4*%
X122276000Y-95589500D03*
X122276000Y-97664500D03*
%TD*%
D16*
%TO.C,C6*%
X117094300Y-109560600D03*
X115019300Y-109560600D03*
%TD*%
D10*
%TO.C,R66*%
X45447000Y-55754000D03*
X45447000Y-57754000D03*
%TD*%
D21*
%TO.C,C13*%
X80457500Y-43177000D03*
X82532500Y-43177000D03*
%TD*%
D22*
%TO.C,C8*%
X121949600Y-81315800D03*
X121949600Y-83390800D03*
%TD*%
D15*
%TO.C,C9*%
X112626000Y-38414500D03*
X112626000Y-36339500D03*
%TD*%
D10*
%TO.C,R8*%
X121746400Y-50750200D03*
X121746400Y-52750200D03*
%TD*%
D14*
%TO.C,R17*%
X111214800Y-100213400D03*
X109214800Y-100213400D03*
%TD*%
D10*
%TO.C,R59*%
X106915000Y-55754000D03*
X106915000Y-57754000D03*
%TD*%
D13*
%TO.C,R37*%
X82945000Y-51127000D03*
X82945000Y-49127000D03*
%TD*%
D14*
%TO.C,R13*%
X123762400Y-56474600D03*
X121762400Y-56474600D03*
%TD*%
D23*
%TO.C,FB1*%
X116499700Y-103820200D03*
X119474700Y-103820200D03*
%TD*%
D20*
%TO.C,C28*%
X91907500Y-43477000D03*
X88782500Y-43477000D03*
%TD*%
D16*
%TO.C,C22*%
X56591500Y-71613000D03*
X54516500Y-71613000D03*
%TD*%
D13*
%TO.C,R26*%
X70085000Y-51377000D03*
X70085000Y-49377000D03*
%TD*%
D14*
%TO.C,R45*%
X56960400Y-65567800D03*
X54960400Y-65567800D03*
%TD*%
D20*
%TO.C,C32*%
X44469500Y-43419000D03*
X41344500Y-43419000D03*
%TD*%
D13*
%TO.C,R55*%
X30080000Y-51277000D03*
X30080000Y-49277000D03*
%TD*%
%TO.C,R80*%
X19920000Y-51404000D03*
X19920000Y-49404000D03*
%TD*%
D10*
%TO.C,R74*%
X59290000Y-55754000D03*
X59290000Y-57754000D03*
%TD*%
D13*
%TO.C,R62*%
X104395000Y-51177000D03*
X104395000Y-49177000D03*
%TD*%
D24*
%TO.C,C10*%
X113663500Y-33727000D03*
X116788500Y-33727000D03*
%TD*%
D13*
%TO.C,R40*%
X113313600Y-16631400D03*
X113313600Y-14631400D03*
%TD*%
D10*
%TO.C,R31*%
X79545000Y-55727000D03*
X79545000Y-57727000D03*
%TD*%
D11*
%TO.C,R42*%
X58500400Y-73289400D03*
X60500400Y-73289400D03*
%TD*%
D10*
%TO.C,R33*%
X82845000Y-55727000D03*
X82845000Y-57727000D03*
%TD*%
%TO.C,R12*%
X116841000Y-29727000D03*
X116841000Y-31727000D03*
%TD*%
%TO.C,R87*%
X32747000Y-55754000D03*
X32747000Y-57754000D03*
%TD*%
D20*
%TO.C,C14*%
X67970000Y-43377000D03*
X64845000Y-43377000D03*
%TD*%
D10*
%TO.C,R21*%
X70376000Y-74627000D03*
X70376000Y-76627000D03*
%TD*%
D19*
%TO.C,L3*%
X86095000Y-37739500D03*
X86095000Y-40714500D03*
%TD*%
%TO.C,L5*%
X14332000Y-38158000D03*
X14332000Y-41133000D03*
%TD*%
D25*
%TO.C,C2*%
X122051200Y-87017700D03*
X122051200Y-90142700D03*
%TD*%
D13*
%TO.C,R67*%
X46590000Y-51404000D03*
X46590000Y-49404000D03*
%TD*%
D14*
%TO.C,R16*%
X111468800Y-104226600D03*
X109468800Y-104226600D03*
%TD*%
D10*
%TO.C,R30*%
X114276000Y-29677000D03*
X114276000Y-31677000D03*
%TD*%
D13*
%TO.C,R54*%
X96645000Y-51277000D03*
X96645000Y-49277000D03*
%TD*%
%TO.C,R84*%
X25000000Y-51404000D03*
X25000000Y-49404000D03*
%TD*%
D19*
%TO.C,L1*%
X62095000Y-37889500D03*
X62095000Y-40864500D03*
%TD*%
D15*
%TO.C,C20*%
X77042400Y-72701300D03*
X77042400Y-70626300D03*
%TD*%
D10*
%TO.C,R72*%
X55988000Y-55754000D03*
X55988000Y-57754000D03*
%TD*%
%TO.C,R57*%
X104375000Y-55754000D03*
X104375000Y-57754000D03*
%TD*%
D21*
%TO.C,C27*%
X104507500Y-43177000D03*
X106582500Y-43177000D03*
%TD*%
D13*
%TO.C,R28*%
X72845000Y-51377000D03*
X72845000Y-49377000D03*
%TD*%
D14*
%TO.C,R1*%
X101126000Y-90127000D03*
X99126000Y-90127000D03*
%TD*%
D21*
%TO.C,C35*%
X33106500Y-43419000D03*
X35181500Y-43419000D03*
%TD*%
D13*
%TO.C,R63*%
X106945000Y-51227000D03*
X106945000Y-49227000D03*
%TD*%
D21*
%TO.C,C31*%
X56855500Y-43165000D03*
X58930500Y-43165000D03*
%TD*%
D26*
%TO.C,U10*%
X75322400Y-67133400D03*
X74687400Y-67133400D03*
X74052400Y-67133400D03*
X73417400Y-67133400D03*
X72782400Y-67133400D03*
X72147400Y-67133400D03*
X71512400Y-67133400D03*
X70877400Y-67133400D03*
X70877400Y-72333400D03*
X71512400Y-72333400D03*
X72147400Y-72333400D03*
X72782400Y-72333400D03*
X73417400Y-72333400D03*
X74052400Y-72333400D03*
X74687400Y-72333400D03*
X75322400Y-72333400D03*
%TD*%
M02*
