%TF.GenerationSoftware,KiCad,Pcbnew,9.0.2*%
%TF.CreationDate,2025-08-05T21:19:51-07:00*%
%TF.ProjectId,telepresence-bot,74656c65-7072-4657-9365-6e63652d626f,rev?*%
%TF.SameCoordinates,Original*%
%TF.FileFunction,Soldermask,Top*%
%TF.FilePolarity,Negative*%
%FSLAX46Y46*%
G04 Gerber Fmt 4.6, Leading zero omitted, Abs format (unit mm)*
G04 Created by KiCad (PCBNEW 9.0.2) date 2025-08-05 21:19:51*
%MOMM*%
%LPD*%
G01*
G04 APERTURE LIST*
G04 Aperture macros list*
%AMRoundRect*
0 Rectangle with rounded corners*
0 $1 Rounding radius*
0 $2 $3 $4 $5 $6 $7 $8 $9 X,Y pos of 4 corners*
0 Add a 4 corners polygon primitive as box body*
4,1,4,$2,$3,$4,$5,$6,$7,$8,$9,$2,$3,0*
0 Add four circle primitives for the rounded corners*
1,1,$1+$1,$2,$3*
1,1,$1+$1,$4,$5*
1,1,$1+$1,$6,$7*
1,1,$1+$1,$8,$9*
0 Add four rect primitives between the rounded corners*
20,1,$1+$1,$2,$3,$4,$5,0*
20,1,$1+$1,$4,$5,$6,$7,0*
20,1,$1+$1,$6,$7,$8,$9,0*
20,1,$1+$1,$8,$9,$2,$3,0*%
G04 Aperture macros list end*
%ADD10C,0.100000*%
%ADD11RoundRect,0.250000X0.550000X-0.550000X0.550000X0.550000X-0.550000X0.550000X-0.550000X-0.550000X0*%
%ADD12C,1.600000*%
%ADD13C,1.400000*%
%ADD14R,1.500000X1.000000*%
%ADD15O,1.905000X2.000000*%
%ADD16R,1.905000X2.000000*%
%ADD17C,1.700000*%
%ADD18R,1.700000X1.700000*%
%ADD19C,3.200000*%
%ADD20RoundRect,0.250000X1.350000X1.350000X-1.350000X1.350000X-1.350000X-1.350000X1.350000X-1.350000X0*%
%ADD21RoundRect,1.200000X2.800000X-2.800000X2.800000X2.800000X-2.800000X2.800000X-2.800000X-2.800000X0*%
%ADD22C,2.200000*%
%ADD23RoundRect,0.249999X-0.850001X-0.850001X0.850001X-0.850001X0.850001X0.850001X-0.850001X0.850001X0*%
%ADD24RoundRect,0.250000X-1.350000X1.350000X-1.350000X-1.350000X1.350000X-1.350000X1.350000X1.350000X0*%
%ADD25RoundRect,0.233333X0.666667X0.466667X-0.666667X0.466667X-0.666667X-0.466667X0.666667X-0.466667X0*%
%ADD26RoundRect,0.249999X0.850001X-0.850001X0.850001X0.850001X-0.850001X0.850001X-0.850001X-0.850001X0*%
%ADD27RoundRect,0.250000X0.750000X0.650000X-0.750000X0.650000X-0.750000X-0.650000X0.750000X-0.650000X0*%
%ADD28RoundRect,0.250000X0.750000X-0.650000X0.750000X0.650000X-0.750000X0.650000X-0.750000X-0.650000X0*%
%ADD29RoundRect,0.250000X0.650000X-0.750000X0.650000X0.750000X-0.650000X0.750000X-0.650000X-0.750000X0*%
%ADD30RoundRect,0.250000X-0.650000X0.750000X-0.650000X-0.750000X0.650000X-0.750000X0.650000X0.750000X0*%
%ADD31C,2.400000*%
%ADD32RoundRect,0.250001X-0.949999X0.949999X-0.949999X-0.949999X0.949999X-0.949999X0.949999X0.949999X0*%
%ADD33RoundRect,0.250000X0.550000X0.550000X-0.550000X0.550000X-0.550000X-0.550000X0.550000X-0.550000X0*%
%ADD34C,4.200000*%
%ADD35C,1.500000*%
%ADD36R,1.500000X1.500000*%
%ADD37C,4.300000*%
%ADD38C,1.800000*%
%ADD39R,1.800000X1.800000*%
%ADD40RoundRect,0.250000X-0.550000X-0.550000X0.550000X-0.550000X0.550000X0.550000X-0.550000X0.550000X0*%
%ADD41RoundRect,0.250000X1.350000X-1.350000X1.350000X1.350000X-1.350000X1.350000X-1.350000X-1.350000X0*%
%ADD42R,1.000000X1.500000*%
%ADD43O,2.000000X1.905000*%
%ADD44R,2.000000X1.905000*%
G04 APERTURE END LIST*
%TO.C,R83*%
G36*
X30703000Y-46571000D02*
G01*
X29203000Y-46571000D01*
X29203000Y-46871000D01*
X30703000Y-46871000D01*
X30703000Y-46571000D01*
G37*
%TO.C,R68*%
G36*
X54706000Y-46571000D02*
G01*
X53206000Y-46571000D01*
X53206000Y-46871000D01*
X54706000Y-46871000D01*
X54706000Y-46571000D01*
G37*
D10*
X86906000Y-106837000D02*
X86906000Y-106837000D01*
%TO.C,R46*%
G36*
X40201000Y-63677000D02*
G01*
X40501000Y-63677000D01*
X40501000Y-65177000D01*
X40201000Y-65177000D01*
X40201000Y-63677000D01*
G37*
%TO.C,R27*%
G36*
X78545000Y-46527000D02*
G01*
X77045000Y-46527000D01*
X77045000Y-46827000D01*
X78545000Y-46827000D01*
X78545000Y-46527000D01*
G37*
%TO.C,R53*%
G36*
X102276000Y-46127000D02*
G01*
X100776000Y-46127000D01*
X100776000Y-46427000D01*
X102276000Y-46427000D01*
X102276000Y-46127000D01*
G37*
%TD*%
D11*
%TO.C,C15*%
X66275000Y-37385112D03*
D12*
X66275000Y-34885112D03*
%TD*%
D13*
%TO.C,R10*%
X85724800Y-91505500D03*
X87624800Y-91505500D03*
%TD*%
D14*
%TO.C,R83*%
X29953000Y-47371000D03*
X29953000Y-46071000D03*
%TD*%
D15*
%TO.C,U11*%
X59330800Y-108602000D03*
X61870800Y-108602000D03*
D16*
X64410800Y-108602000D03*
%TD*%
D17*
%TO.C,J17*%
X57893000Y-60027000D03*
X55353000Y-60027000D03*
X52813000Y-60027000D03*
X50273000Y-60027000D03*
X47733000Y-60027000D03*
X45193000Y-60027000D03*
D18*
X42653000Y-60027000D03*
%TD*%
D19*
%TO.C,D5*%
X106636000Y-21277000D03*
D20*
X111716000Y-21277000D03*
%TD*%
D21*
%TO.C,J4*%
X123276000Y-27077000D03*
X123276000Y-39577000D03*
%TD*%
D17*
%TO.C,J11*%
X77347200Y-94930200D03*
X77347200Y-92390200D03*
X77347200Y-89850200D03*
X77347200Y-87310200D03*
D18*
X77347200Y-84770200D03*
%TD*%
D17*
%TO.C,J2*%
X126318400Y-58913000D03*
D18*
X123778400Y-58913000D03*
%TD*%
D13*
%TO.C,R41*%
X96726000Y-93607000D03*
X96726000Y-96147000D03*
%TD*%
D22*
%TO.C,D1*%
X111451000Y-95352000D03*
D23*
X108911000Y-95352000D03*
%TD*%
D14*
%TO.C,R68*%
X53956000Y-47371000D03*
X53956000Y-46071000D03*
%TD*%
D19*
%TO.C,D8*%
X49986000Y-23177000D03*
D24*
X49986000Y-18097000D03*
%TD*%
D25*
%TO.C,U1*%
X104686000Y-109377000D03*
X104686000Y-106837000D03*
X104686000Y-104297000D03*
X104686000Y-101757000D03*
X104686000Y-99217000D03*
X104686000Y-96677000D03*
X104686000Y-94137000D03*
X104686000Y-91597000D03*
X104686000Y-89057000D03*
X104686000Y-86517000D03*
X104686000Y-83977000D03*
X104686000Y-81437000D03*
X104686000Y-78897000D03*
X104686000Y-76357000D03*
X104686000Y-73817000D03*
X104686000Y-71277000D03*
X81826000Y-109377000D03*
X81826000Y-106837000D03*
X81826000Y-104297000D03*
X81826000Y-101757000D03*
X81826000Y-99217000D03*
X81826000Y-96677000D03*
X81826000Y-94137000D03*
X81826000Y-91597000D03*
X81826000Y-89057000D03*
X81826000Y-86517000D03*
X81826000Y-83977000D03*
X81826000Y-81437000D03*
X81826000Y-78897000D03*
X81826000Y-76357000D03*
X81826000Y-73817000D03*
X81826000Y-71277000D03*
%TD*%
D22*
%TO.C,D4*%
X118850800Y-50023000D03*
D26*
X118850800Y-52563000D03*
%TD*%
D27*
%TO.C,U13*%
X89045000Y-48497000D03*
D28*
X89045000Y-51037000D03*
D29*
X106825000Y-40877000D03*
X104285000Y-40877000D03*
X101745000Y-40877000D03*
X99205000Y-40877000D03*
X96665000Y-40877000D03*
X94125000Y-40877000D03*
X91585000Y-40877000D03*
X89045000Y-40877000D03*
D30*
X106825000Y-53577000D03*
X104285000Y-53577000D03*
X101745000Y-53577000D03*
X99205000Y-53577000D03*
X96665000Y-53577000D03*
X94125000Y-53577000D03*
X91585000Y-53577000D03*
X89045000Y-53577000D03*
%TD*%
D31*
%TO.C,C17*%
X77126000Y-25877000D03*
D32*
X77126000Y-18377000D03*
%TD*%
D27*
%TO.C,U15*%
X17465000Y-48497000D03*
D28*
X17465000Y-51037000D03*
D29*
X35245000Y-40877000D03*
X32705000Y-40877000D03*
X30165000Y-40877000D03*
X27625000Y-40877000D03*
X25085000Y-40877000D03*
X22545000Y-40877000D03*
X20005000Y-40877000D03*
X17465000Y-40877000D03*
D30*
X35245000Y-53577000D03*
X32705000Y-53577000D03*
X30165000Y-53577000D03*
X27625000Y-53577000D03*
X25085000Y-53577000D03*
X22545000Y-53577000D03*
X20005000Y-53577000D03*
X17465000Y-53577000D03*
%TD*%
D12*
%TO.C,C5*%
X118241200Y-93812600D03*
D33*
X120741200Y-93812600D03*
%TD*%
D13*
%TO.C,R2*%
X27726000Y-95627000D03*
X27726000Y-93727000D03*
%TD*%
D34*
%TO.C,F6*%
X95817000Y-29834000D03*
X99217000Y-29834000D03*
X95817000Y-16364000D03*
X99217000Y-16364000D03*
%TD*%
D12*
%TO.C,U12*%
X90886000Y-69887000D03*
X93426000Y-69887000D03*
X93426000Y-77507000D03*
D11*
X90886000Y-77507000D03*
%TD*%
D35*
%TO.C,Q3*%
X43426000Y-87877000D03*
X43426000Y-85337000D03*
D36*
X43426000Y-82797000D03*
%TD*%
D37*
%TO.C,H2*%
X124076000Y-107777000D03*
%TD*%
D17*
%TO.C,J8*%
X22476000Y-21747000D03*
X22476000Y-19207000D03*
X22476000Y-16667000D03*
D18*
X22476000Y-14127000D03*
%TD*%
D35*
%TO.C,Q4*%
X36816000Y-87867000D03*
X36816000Y-85327000D03*
D36*
X36816000Y-82787000D03*
%TD*%
D13*
%TO.C,R64*%
X32426000Y-93632000D03*
X32426000Y-95532000D03*
%TD*%
D34*
%TO.C,F7*%
X39273000Y-16364000D03*
X35873000Y-16364000D03*
X39273000Y-29834000D03*
X35873000Y-29834000D03*
%TD*%
D12*
%TO.C,U9*%
X48035600Y-67853800D03*
X50575600Y-67853800D03*
X53115600Y-67853800D03*
X55655600Y-67853800D03*
X58195600Y-67853800D03*
X60735600Y-67853800D03*
X63275600Y-67853800D03*
X63275600Y-75473800D03*
X60735600Y-75473800D03*
X58195600Y-75473800D03*
X55655600Y-75473800D03*
X53115600Y-75473800D03*
X50575600Y-75473800D03*
D11*
X48035600Y-75473800D03*
%TD*%
D17*
%TO.C,J3*%
X126313400Y-66380600D03*
D18*
X123773400Y-66380600D03*
%TD*%
D17*
%TO.C,J15*%
X106885000Y-60027000D03*
X104345000Y-60027000D03*
X101805000Y-60027000D03*
X99265000Y-60027000D03*
X96725000Y-60027000D03*
X94185000Y-60027000D03*
D18*
X91645000Y-60027000D03*
%TD*%
D17*
%TO.C,JP2*%
X109201000Y-76587000D03*
D18*
X109201000Y-79127000D03*
%TD*%
D17*
%TO.C,J9*%
X115599600Y-19339800D03*
X115599600Y-16799800D03*
D18*
X115599600Y-14259800D03*
%TD*%
D27*
%TO.C,U7*%
X65075000Y-48497000D03*
D28*
X65075000Y-51037000D03*
D29*
X82855000Y-40877000D03*
X80315000Y-40877000D03*
X77775000Y-40877000D03*
X75235000Y-40877000D03*
X72695000Y-40877000D03*
X70155000Y-40877000D03*
X67615000Y-40877000D03*
X65075000Y-40877000D03*
D30*
X82855000Y-53577000D03*
X80315000Y-53577000D03*
X77775000Y-53577000D03*
X75235000Y-53577000D03*
X72695000Y-53577000D03*
X70155000Y-53577000D03*
X67615000Y-53577000D03*
X65075000Y-53577000D03*
%TD*%
D17*
%TO.C,J20*%
X31475000Y-36877000D03*
X28935000Y-36877000D03*
X26395000Y-36877000D03*
D18*
X23855000Y-36877000D03*
%TD*%
D34*
%TO.C,F4*%
X58545000Y-16364000D03*
X55145000Y-16364000D03*
X58545000Y-29834000D03*
X55145000Y-29834000D03*
%TD*%
D12*
%TO.C,C30*%
X88876000Y-26470651D03*
D11*
X88876000Y-31470651D03*
%TD*%
D12*
%TO.C,C3*%
X118342800Y-100772200D03*
D33*
X120842800Y-100772200D03*
%TD*%
D13*
%TO.C,R14*%
X47181000Y-83677000D03*
X49081000Y-83677000D03*
%TD*%
D22*
%TO.C,D7*%
X52676000Y-98627000D03*
D26*
X52676000Y-101167000D03*
%TD*%
D38*
%TO.C,D2*%
X28186000Y-102827000D03*
D39*
X25646000Y-102827000D03*
%TD*%
D17*
%TO.C,J16*%
X103495000Y-36877000D03*
X100955000Y-36877000D03*
X98415000Y-36877000D03*
D18*
X95875000Y-36877000D03*
%TD*%
D38*
%TO.C,D11*%
X33166000Y-102827000D03*
D39*
X30626000Y-102827000D03*
%TD*%
D22*
%TO.C,D6*%
X109226000Y-70639183D03*
D26*
X109226000Y-73179183D03*
%TD*%
D12*
%TO.C,C1*%
X117901000Y-83227000D03*
D11*
X117901000Y-88227000D03*
%TD*%
D13*
%TO.C,R70*%
X30076000Y-95622000D03*
X30076000Y-93722000D03*
%TD*%
%TO.C,R15*%
X47181000Y-87527000D03*
X49081000Y-87527000D03*
%TD*%
D38*
%TO.C,D10*%
X33266000Y-109677000D03*
D39*
X30726000Y-109677000D03*
%TD*%
D13*
%TO.C,R48*%
X93176000Y-79532000D03*
X93176000Y-81432000D03*
%TD*%
D17*
%TO.C,J12*%
X14076000Y-30047000D03*
X14076000Y-27507000D03*
X14076000Y-24967000D03*
D18*
X14076000Y-22427000D03*
%TD*%
D37*
%TO.C,H3*%
X16376000Y-16277000D03*
%TD*%
D17*
%TO.C,J13*%
X39236000Y-75927000D03*
X41776000Y-75927000D03*
X39236000Y-73387000D03*
X41776000Y-73387000D03*
X39236000Y-70847000D03*
X41776000Y-70847000D03*
X39236000Y-68307000D03*
D18*
X41776000Y-68307000D03*
%TD*%
D12*
%TO.C,C7*%
X117428400Y-107223800D03*
D40*
X114928400Y-107223800D03*
%TD*%
D17*
%TO.C,JP1*%
X109201000Y-109517000D03*
D18*
X109201000Y-106977000D03*
%TD*%
D17*
%TO.C,J19*%
X33763000Y-60027000D03*
X31223000Y-60027000D03*
X28683000Y-60027000D03*
X26143000Y-60027000D03*
X23603000Y-60027000D03*
X21063000Y-60027000D03*
D18*
X18523000Y-60027000D03*
%TD*%
D13*
%TO.C,R47*%
X86084800Y-63331800D03*
X86084800Y-60791800D03*
%TD*%
D12*
%TO.C,U4*%
X97526000Y-80107000D03*
X100066000Y-80107000D03*
X100066000Y-87727000D03*
D11*
X97526000Y-87727000D03*
%TD*%
D19*
%TO.C,D12*%
X119076000Y-72612000D03*
D41*
X119076000Y-77692000D03*
%TD*%
D19*
%TO.C,D9*%
X63426000Y-85927000D03*
D41*
X63426000Y-91007000D03*
%TD*%
D42*
%TO.C,R46*%
X41001000Y-64427000D03*
X39701000Y-64427000D03*
%TD*%
D12*
%TO.C,C37*%
X17634000Y-34656000D03*
D11*
X17634000Y-37156000D03*
%TD*%
D12*
%TO.C,C24*%
X55978000Y-103823218D03*
D33*
X58478000Y-103823218D03*
%TD*%
D12*
%TO.C,F2*%
X124026000Y-77777000D03*
X126526000Y-72777000D03*
%TD*%
D17*
%TO.C,J10*%
X66951000Y-69337000D03*
D18*
X66951000Y-71877000D03*
%TD*%
D38*
%TO.C,D3*%
X28286000Y-109677000D03*
D39*
X25746000Y-109677000D03*
%TD*%
D12*
%TO.C,C34*%
X47276000Y-27777000D03*
D11*
X47276000Y-32777000D03*
%TD*%
D17*
%TO.C,J14*%
X48816000Y-102447000D03*
X46276000Y-102447000D03*
X48816000Y-104987000D03*
X46276000Y-104987000D03*
X48816000Y-107527000D03*
X46276000Y-107527000D03*
X48816000Y-110067000D03*
D18*
X46276000Y-110067000D03*
%TD*%
D34*
%TO.C,F8*%
X30576000Y-16364000D03*
X27176000Y-16364000D03*
X30576000Y-29834000D03*
X27176000Y-29834000D03*
%TD*%
D12*
%TO.C,F1*%
X116276000Y-65273800D03*
X118776000Y-60273800D03*
%TD*%
D43*
%TO.C,U2*%
X124708000Y-88021400D03*
X124708000Y-85481400D03*
D44*
X124708000Y-82941400D03*
%TD*%
D14*
%TO.C,R27*%
X77795000Y-47327000D03*
X77795000Y-46027000D03*
%TD*%
D12*
%TO.C,C38*%
X20376000Y-26089651D03*
D11*
X20376000Y-31089651D03*
%TD*%
D12*
%TO.C,C29*%
X89872112Y-34885112D03*
D11*
X89872112Y-37385112D03*
%TD*%
D12*
%TO.C,C16*%
X65226000Y-26216651D03*
D11*
X65226000Y-31216651D03*
%TD*%
D27*
%TO.C,U14*%
X41425000Y-48497000D03*
D28*
X41425000Y-51037000D03*
D29*
X59205000Y-40877000D03*
X56665000Y-40877000D03*
X54125000Y-40877000D03*
X51585000Y-40877000D03*
X49045000Y-40877000D03*
X46505000Y-40877000D03*
X43965000Y-40877000D03*
X41425000Y-40877000D03*
D30*
X59205000Y-53577000D03*
X56665000Y-53577000D03*
X54125000Y-53577000D03*
X51585000Y-53577000D03*
X49045000Y-53577000D03*
X46505000Y-53577000D03*
X43965000Y-53577000D03*
X41425000Y-53577000D03*
%TD*%
D17*
%TO.C,J1*%
X39236000Y-110207000D03*
X41776000Y-110207000D03*
X39236000Y-107667000D03*
X41776000Y-107667000D03*
X39236000Y-105127000D03*
X41776000Y-105127000D03*
X39236000Y-102587000D03*
D18*
X41776000Y-102587000D03*
%TD*%
D43*
%TO.C,U3*%
X124708000Y-100467400D03*
X124708000Y-97927400D03*
D44*
X124708000Y-95387400D03*
%TD*%
D12*
%TO.C,C33*%
X42653000Y-35012112D03*
D11*
X42653000Y-37512112D03*
%TD*%
D17*
%TO.C,J6*%
X81495000Y-60127000D03*
X78955000Y-60127000D03*
X76415000Y-60127000D03*
X73875000Y-60127000D03*
X71335000Y-60127000D03*
X68795000Y-60127000D03*
D18*
X66255000Y-60127000D03*
%TD*%
D12*
%TO.C,C11*%
X65020400Y-103213618D03*
D40*
X62520400Y-103213618D03*
%TD*%
D15*
%TO.C,Q2*%
X110976800Y-15682200D03*
X108436800Y-15682200D03*
D16*
X105896800Y-15682200D03*
%TD*%
D17*
%TO.C,J7*%
X78665000Y-36877000D03*
X76125000Y-36877000D03*
X73585000Y-36877000D03*
D18*
X71045000Y-36877000D03*
%TD*%
D17*
%TO.C,J5*%
X126338400Y-62647200D03*
D18*
X123798400Y-62647200D03*
%TD*%
D43*
%TO.C,Q1*%
X124606400Y-54188600D03*
X124606400Y-51648600D03*
D44*
X124606400Y-49108600D03*
%TD*%
D12*
%TO.C,U8*%
X97551000Y-70012000D03*
X100091000Y-70012000D03*
X100091000Y-77632000D03*
D11*
X97551000Y-77632000D03*
%TD*%
D17*
%TO.C,U16*%
X73638800Y-84719400D03*
X71098800Y-84719400D03*
X73638800Y-87259400D03*
X71098800Y-87259400D03*
X73638800Y-89799400D03*
X71098800Y-89799400D03*
X73638800Y-92339400D03*
X71098800Y-92339400D03*
X73638800Y-94879400D03*
X71098800Y-94879400D03*
X73638800Y-97419400D03*
X71098800Y-97419400D03*
X73638800Y-99959400D03*
X71098800Y-99959400D03*
X73638800Y-102499400D03*
X71098800Y-102499400D03*
X73638800Y-105039400D03*
X71098800Y-105039400D03*
X73638800Y-107579400D03*
X71098800Y-107579400D03*
X73638800Y-110119400D03*
D18*
X71098800Y-110119400D03*
%TD*%
D13*
%TO.C,R3*%
X25376000Y-95622000D03*
X25376000Y-93722000D03*
%TD*%
D37*
%TO.C,H4*%
X16376000Y-107827000D03*
%TD*%
%TO.C,H1*%
X124226000Y-16277000D03*
%TD*%
D17*
%TO.C,J18*%
X55099000Y-36877000D03*
X52559000Y-36877000D03*
X50019000Y-36877000D03*
D18*
X47479000Y-36877000D03*
%TD*%
D14*
%TO.C,R53*%
X101526000Y-46927000D03*
X101526000Y-45627000D03*
%TD*%
M02*
