M48
; DRILL file {KiCad 9.0.2} date 2025-08-05T21:19:48-0700
; FORMAT={-:-/ absolute / metric / decimal}
; #@! TF.CreationDate,2025-08-05T21:19:48-07:00
; #@! TF.GenerationSoftware,Kicad,Pcbnew,9.0.2
; #@! TF.FileFunction,Plated,1,4,PTH
FMAT,2
METRIC
; #@! TA.AperFunction,Plated,PTH,ViaDrill
T1C0.300
; #@! TA.AperFunction,Plated,PTH,ComponentDrill
T2C0.600
; #@! TA.AperFunction,Plated,PTH,ComponentDrill
T3C0.700
; #@! TA.AperFunction,Plated,PTH,ComponentDrill
T4C0.800
; #@! TA.AperFunction,Plated,PTH,ComponentDrill
T5C0.900
; #@! TA.AperFunction,Plated,PTH,ComponentDrill
T6C1.000
; #@! TA.AperFunction,Plated,PTH,ComponentDrill
T7C1.100
; #@! TA.AperFunction,Plated,PTH,ComponentDrill
T8C1.200
; #@! TA.AperFunction,Plated,PTH,ComponentDrill
T9C1.600
; #@! TA.AperFunction,Plated,PTH,ComponentDrill
T10C2.000
; #@! TA.AperFunction,Plated,PTH,ComponentDrill
T11C3.000
%
G90
G05
T1
X15.266Y-95.437
X16.486Y-100.787
X17.526Y-56.577
X17.806Y-75.917
X18.176Y-89.807
X18.556Y-82.207
X20.056Y-67.847
X20.427Y-46.378
X20.906Y-102.097
X20.996Y-94.877
X22.496Y-106.697
X22.876Y-88.027
X23.056Y-73.667
X23.222Y-45.647
X23.476Y-43.652
X25.635Y-44.997
X26.436Y-64.467
X26.536Y-82.577
X27.426Y-50.127
X27.426Y-56.827
X27.926Y-48.377
X28.101Y-43.527
X28.596Y-77.137
X29.426Y-99.627
X29.776Y-56.677
X29.916Y-71.787
X30.566Y-87.557
X30.842Y-44.297
X33.126Y-98.227
X33.576Y-83.237
X35.306Y-65.197
X36.726Y-60.202
X36.876Y-47.627
X37.426Y-53.152
X39.336Y-79.917
X39.601Y-47.477
X40.026Y-60.427
X40.256Y-83.597
X41.626Y-56.552
X43.426Y-92.527
X43.901Y-110.302
X44.026Y-46.527
X45.201Y-47.952
X46.576Y-98.377
X47.561Y-73.347
X47.626Y-71.577
X47.976Y-45.577
X48.726Y-73.777
X48.816Y-95.867
X49.526Y-44.997
X50.751Y-85.727
X51.176Y-96.777
X51.276Y-48.827
X51.776Y-57.227
X52.576Y-94.777
X52.894Y-48.545
X53.956Y-108.047
X54.226Y-56.827
X55.48Y-44.297
X57.351Y-47.402
X58.376Y-64.457
X58.726Y-91.277
X59.751Y-81.627
X59.876Y-60.727
X60.101Y-47.377
X60.941Y-45.757
X61.046Y-78.367
X61.776Y-66.127
X61.876Y-73.577
X62.226Y-44.377
X62.699Y-72.154
X63.526Y-45.107
X64.226Y-70.089
X64.401Y-60.827
X65.101Y-56.452
X65.776Y-63.577
X66.326Y-90.177
X66.926Y-46.457
X67.256Y-87.147
X67.846Y-100.927
X67.846Y-107.447
X67.996Y-103.937
X69.226Y-45.757
X69.376Y-71.677
X70.426Y-79.402
X71.607Y-68.677
X71.776Y-44.827
X72.026Y-71.077
X72.326Y-65.527
X72.826Y-69.877
X73.226Y-79.827
X74.076Y-69.027
X74.687Y-65.637
X74.776Y-48.727
X74.976Y-79.427
X75.226Y-57.552
X75.901Y-105.002
X75.976Y-107.602
X76.276Y-79.377
X76.415Y-48.927
X77.076Y-66.867
X78.451Y-105.052
X78.726Y-44.377
X79.051Y-100.477
X79.376Y-107.877
X79.776Y-86.977
X80.076Y-75.035
X83.026Y-90.277
X84.156Y-87.427
X84.476Y-95.166
X88.001Y-97.027
X88.176Y-82.427
X88.526Y-75.077
X88.776Y-86.227
X88.826Y-59.452
X89.126Y-55.952
X89.401Y-73.752
X90.051Y-91.702
X90.126Y-93.877
X90.526Y-63.502
X90.56Y-46.742
X91.426Y-88.977
X92.406Y-110.017
X92.986Y-46.867
X94.426Y-93.627
X94.526Y-90.077
X95.576Y-103.427
X96.245Y-47.077
X96.576Y-89.677
X98.601Y-44.352
X98.626Y-64.977
X98.746Y-108.297
X99.026Y-92.927
X99.176Y-83.027
X99.451Y-48.052
X99.726Y-99.202
X100.376Y-94.977
X102.046Y-64.447
X102.226Y-56.627
X102.476Y-88.527
X102.501Y-103.177
X105.476Y-46.427
X105.946Y-64.537
X106.926Y-79.702
X107.476Y-102.977
X108.276Y-92.952
X108.401Y-97.577
X110.251Y-65.152
X110.426Y-57.102
X111.993Y-35.24
X111.993Y-75.127
X114.025Y-42.377
X115.142Y-43.127
X115.854Y-42.149
X117.016Y-74.327
X120.446Y-67.117
X121.376Y-46.637
X121.556Y-61.287
X124.006Y-70.367
X126.596Y-79.717
X126.626Y-76.027
T2
X116.276Y-65.274
X118.776Y-60.274
X124.026Y-77.777
X126.526Y-72.777
T3
X25.376Y-93.722
X25.376Y-95.622
X27.726Y-93.727
X27.726Y-95.627
X30.076Y-93.722
X30.076Y-95.622
X32.426Y-93.632
X32.426Y-95.532
X47.181Y-83.677
X47.181Y-87.527
X49.081Y-83.677
X49.081Y-87.527
X85.725Y-91.505
X86.085Y-60.792
X86.085Y-63.332
X87.625Y-91.505
X93.176Y-79.532
X93.176Y-81.432
X96.726Y-93.607
X96.726Y-96.147
T4
X17.465Y-40.877
X17.465Y-48.497
X17.465Y-51.037
X17.465Y-53.577
X17.634Y-34.656
X17.634Y-37.156
X20.005Y-40.877
X20.005Y-53.577
X20.376Y-26.09
X20.376Y-31.09
X22.545Y-40.877
X22.545Y-53.577
X25.085Y-40.877
X25.085Y-53.577
X27.625Y-40.877
X27.625Y-53.577
X30.165Y-40.877
X30.165Y-53.577
X32.705Y-40.877
X32.705Y-53.577
X35.245Y-40.877
X35.245Y-53.577
X36.816Y-82.787
X36.816Y-85.327
X36.816Y-87.867
X41.425Y-40.877
X41.425Y-48.497
X41.425Y-51.037
X41.425Y-53.577
X42.653Y-35.012
X42.653Y-37.512
X43.426Y-82.797
X43.426Y-85.337
X43.426Y-87.877
X43.965Y-40.877
X43.965Y-53.577
X46.505Y-40.877
X46.505Y-53.577
X47.276Y-27.777
X47.276Y-32.777
X48.036Y-67.854
X48.036Y-75.474
X49.045Y-40.877
X49.045Y-53.577
X50.576Y-67.854
X50.576Y-75.474
X51.585Y-40.877
X51.585Y-53.577
X53.116Y-67.854
X53.116Y-75.474
X54.125Y-40.877
X54.125Y-53.577
X55.656Y-67.854
X55.656Y-75.474
X55.978Y-103.823
X56.665Y-40.877
X56.665Y-53.577
X58.196Y-67.854
X58.196Y-75.474
X58.478Y-103.823
X59.205Y-40.877
X59.205Y-53.577
X60.736Y-67.854
X60.736Y-75.474
X62.52Y-103.214
X63.276Y-67.854
X63.276Y-75.474
X65.02Y-103.214
X65.075Y-40.877
X65.075Y-48.497
X65.075Y-51.037
X65.075Y-53.577
X65.226Y-26.217
X65.226Y-31.217
X66.275Y-34.885
X66.275Y-37.385
X67.615Y-40.877
X67.615Y-53.577
X70.155Y-40.877
X70.155Y-53.577
X72.695Y-40.877
X72.695Y-53.577
X75.235Y-40.877
X75.235Y-53.577
X77.775Y-40.877
X77.775Y-53.577
X80.315Y-40.877
X80.315Y-53.577
X81.826Y-71.277
X81.826Y-73.817
X81.826Y-76.357
X81.826Y-78.897
X81.826Y-81.437
X81.826Y-83.977
X81.826Y-86.517
X81.826Y-89.057
X81.826Y-91.597
X81.826Y-94.137
X81.826Y-96.677
X81.826Y-99.217
X81.826Y-101.757
X81.826Y-104.297
X81.826Y-106.837
X81.826Y-109.377
X82.855Y-40.877
X82.855Y-53.577
X88.876Y-26.471
X88.876Y-31.471
X89.045Y-40.877
X89.045Y-48.497
X89.045Y-51.037
X89.045Y-53.577
X89.872Y-34.885
X89.872Y-37.385
X90.886Y-69.887
X90.886Y-77.507
X91.585Y-40.877
X91.585Y-53.577
X93.426Y-69.887
X93.426Y-77.507
X94.125Y-40.877
X94.125Y-53.577
X96.665Y-40.877
X96.665Y-53.577
X97.526Y-80.107
X97.526Y-87.727
X97.551Y-70.012
X97.551Y-77.632
X99.205Y-40.877
X99.205Y-53.577
X100.066Y-80.107
X100.066Y-87.727
X100.091Y-70.012
X100.091Y-77.632
X101.745Y-40.877
X101.745Y-53.577
X104.285Y-40.877
X104.285Y-53.577
X104.686Y-71.277
X104.686Y-73.817
X104.686Y-76.357
X104.686Y-78.897
X104.686Y-81.437
X104.686Y-83.977
X104.686Y-86.517
X104.686Y-89.057
X104.686Y-91.597
X104.686Y-94.137
X104.686Y-96.677
X104.686Y-99.217
X104.686Y-101.757
X104.686Y-104.297
X104.686Y-106.837
X104.686Y-109.377
X106.825Y-40.877
X106.825Y-53.577
X114.928Y-107.224
X117.428Y-107.224
X117.901Y-83.227
X117.901Y-88.227
X118.241Y-93.813
X118.343Y-100.772
X120.741Y-93.813
X120.843Y-100.772
T5
X25.646Y-102.827
X25.746Y-109.677
X28.186Y-102.827
X28.286Y-109.677
X30.626Y-102.827
X30.726Y-109.677
X33.166Y-102.827
X33.266Y-109.677
T6
X14.076Y-22.427
X14.076Y-24.967
X14.076Y-27.507
X14.076Y-30.047
X18.523Y-60.027
X21.063Y-60.027
X22.476Y-14.127
X22.476Y-16.667
X22.476Y-19.207
X22.476Y-21.747
X23.603Y-60.027
X23.855Y-36.877
X26.143Y-60.027
X26.395Y-36.877
X28.683Y-60.027
X28.935Y-36.877
X31.223Y-60.027
X31.475Y-36.877
X33.763Y-60.027
X39.236Y-68.307
X39.236Y-70.847
X39.236Y-73.387
X39.236Y-75.927
X39.236Y-102.587
X39.236Y-105.127
X39.236Y-107.667
X39.236Y-110.207
X41.776Y-68.307
X41.776Y-70.847
X41.776Y-73.387
X41.776Y-75.927
X41.776Y-102.587
X41.776Y-105.127
X41.776Y-107.667
X41.776Y-110.207
X42.653Y-60.027
X45.193Y-60.027
X46.276Y-102.447
X46.276Y-104.987
X46.276Y-107.527
X46.276Y-110.067
X47.479Y-36.877
X47.733Y-60.027
X48.816Y-102.447
X48.816Y-104.987
X48.816Y-107.527
X48.816Y-110.067
X50.019Y-36.877
X50.273Y-60.027
X52.559Y-36.877
X52.813Y-60.027
X55.099Y-36.877
X55.353Y-60.027
X57.893Y-60.027
X66.255Y-60.127
X66.951Y-69.337
X66.951Y-71.877
X68.795Y-60.127
X71.045Y-36.877
X71.099Y-84.719
X71.099Y-87.259
X71.099Y-89.799
X71.099Y-92.339
X71.099Y-94.879
X71.099Y-97.419
X71.099Y-99.959
X71.099Y-102.499
X71.099Y-105.039
X71.099Y-107.579
X71.099Y-110.119
X71.335Y-60.127
X73.585Y-36.877
X73.639Y-84.719
X73.639Y-87.259
X73.639Y-89.799
X73.639Y-92.339
X73.639Y-94.879
X73.639Y-97.419
X73.639Y-99.959
X73.639Y-102.499
X73.639Y-105.039
X73.639Y-107.579
X73.639Y-110.119
X73.875Y-60.127
X76.125Y-36.877
X76.415Y-60.127
X77.347Y-84.77
X77.347Y-87.31
X77.347Y-89.85
X77.347Y-92.39
X77.347Y-94.93
X78.665Y-36.877
X78.955Y-60.127
X81.495Y-60.127
X91.645Y-60.027
X94.185Y-60.027
X95.875Y-36.877
X96.725Y-60.027
X98.415Y-36.877
X99.265Y-60.027
X100.955Y-36.877
X101.805Y-60.027
X103.495Y-36.877
X104.345Y-60.027
X106.885Y-60.027
X109.201Y-76.587
X109.201Y-79.127
X109.201Y-106.977
X109.201Y-109.517
X115.6Y-14.26
X115.6Y-16.8
X115.6Y-19.34
X123.773Y-66.381
X123.778Y-58.913
X123.798Y-62.647
X126.313Y-66.381
X126.318Y-58.913
X126.338Y-62.647
T7
X52.676Y-98.627
X52.676Y-101.167
X59.331Y-108.602
X61.871Y-108.602
X64.411Y-108.602
X105.897Y-15.682
X108.437Y-15.682
X108.911Y-95.352
X109.226Y-70.639
X109.226Y-73.179
X110.977Y-15.682
X111.451Y-95.352
X118.851Y-50.023
X118.851Y-52.563
X124.606Y-49.109
X124.606Y-51.649
X124.606Y-54.189
X124.708Y-82.941
X124.708Y-85.481
X124.708Y-88.021
X124.708Y-95.387
X124.708Y-97.927
X124.708Y-100.467
T8
X77.126Y-18.377
X77.126Y-25.877
T9
X49.986Y-18.097
X49.986Y-23.177
X63.426Y-85.927
X63.426Y-91.007
X106.636Y-21.277
X111.716Y-21.277
X119.076Y-72.612
X119.076Y-77.692
T10
X27.176Y-16.364
X27.176Y-29.834
X30.576Y-16.364
X30.576Y-29.834
X35.873Y-16.364
X35.873Y-29.834
X39.273Y-16.364
X39.273Y-29.834
X55.145Y-16.364
X55.145Y-29.834
X58.545Y-16.364
X58.545Y-29.834
X95.817Y-16.364
X95.817Y-29.834
X99.217Y-16.364
X99.217Y-29.834
T11
X123.276Y-27.077
X123.276Y-39.577
M30
