%TF.GenerationSoftware,KiCad,Pcbnew,9.0.2*%
%TF.CreationDate,2025-08-05T17:44:50-07:00*%
%TF.ProjectId,telepresence-bot,74656c65-7072-4657-9365-6e63652d626f,rev?*%
%TF.SameCoordinates,Original*%
%TF.FileFunction,Component,L1,Top*%
%TF.FilePolarity,Positive*%
%FSLAX46Y46*%
G04 Gerber Fmt 4.6, Leading zero omitted, Abs format (unit mm)*
G04 Created by KiCad (PCBNEW 9.0.2) date 2025-08-05 17:44:50*
%MOMM*%
%LPD*%
G01*
G04 APERTURE LIST*
%TA.AperFunction,ComponentMain*%
%ADD10C,0.300000*%
%TD*%
%TA.AperFunction,ComponentOutline,Courtyard*%
%ADD11C,0.100000*%
%TD*%
%TA.AperFunction,ComponentPin*%
%ADD12P,0.360000X4X0.000000*%
%TD*%
%TA.AperFunction,ComponentPin*%
%ADD13C,0.100000*%
%TD*%
G04 APERTURE END LIST*
D10*
%TO.C,C15*%
%TO.CFtp,CP_Radial_D5.0mm_P2.50mm*%
%TO.CVal,4.7uF*%
%TO.CLbN,Capacitor_THT*%
%TO.CMnt,TH*%
%TO.CRot,90*%
X202999000Y-56958112D03*
D11*
X203164886Y-52965621D02*
X203494251Y-53005612D01*
X203816394Y-53085013D01*
X204126611Y-53202663D01*
X204420387Y-53356849D01*
X204693433Y-53545318D01*
X204941778Y-53765333D01*
X205161793Y-54013678D01*
X205350262Y-54286724D01*
X205504448Y-54580500D01*
X205622098Y-54890717D01*
X205701499Y-55212860D01*
X205741496Y-55542267D01*
X205743999Y-55708112D01*
X205741496Y-55873956D01*
X205701499Y-56203363D01*
X205622098Y-56525506D01*
X205504448Y-56835723D01*
X205350262Y-57129499D01*
X205161793Y-57402545D01*
X204941778Y-57650890D01*
X204693433Y-57870905D01*
X204420387Y-58059374D01*
X204126611Y-58213560D01*
X203816394Y-58331210D01*
X203494251Y-58410611D01*
X203164886Y-58450603D01*
X202833114Y-58450603D01*
X202503748Y-58410611D01*
X202181605Y-58331210D01*
X201871388Y-58213560D01*
X201577612Y-58059374D01*
X201304566Y-57870905D01*
X201056221Y-57650890D01*
X200836206Y-57402545D01*
X200647737Y-57129499D01*
X200493551Y-56835723D01*
X200375901Y-56525506D01*
X200296500Y-56203363D01*
X200256509Y-55873998D01*
X200256509Y-55542225D01*
X200296500Y-55212860D01*
X200375901Y-54890717D01*
X200493551Y-54580500D01*
X200647737Y-54286724D01*
X200836206Y-54013678D01*
X201056221Y-53765333D01*
X201304566Y-53545318D01*
X201577612Y-53356849D01*
X201871388Y-53202663D01*
X202181605Y-53085013D01*
X202503748Y-53005612D01*
X202833114Y-52965621D01*
X203164886Y-52965621D01*
D12*
%TO.P,C15,1*%
X202999000Y-56958112D03*
D13*
%TO.P,C15,2*%
X202999000Y-54458112D03*
%TD*%
D10*
%TO.C,R10*%
%TO.CFtp,R_Axial_DIN0204_L3.6mm_D1.6mm_P1.90mm_Vertical*%
%TO.CVal,220R*%
%TO.CLbN,Resistor_THT*%
%TO.CMnt,TH*%
%TO.CRot,0*%
X222448800Y-111078500D03*
D11*
X225303800Y-110033500D02*
X225303800Y-112123500D01*
X221403800Y-112123500D01*
X221403800Y-110033500D01*
X225303800Y-110033500D01*
D12*
%TO.P,R10,1*%
X222448800Y-111078500D03*
D13*
%TO.P,R10,2*%
X224348800Y-111078500D03*
%TD*%
D10*
%TO.C,U11*%
%TO.CFtp,TO-220-3_Vertical*%
%TO.CVal,LM1117DT-3.3*%
%TO.CLbN,Package_TO_SOT_THT*%
%TO.CMnt,TH*%
%TO.CRot,180*%
X201134800Y-128175000D03*
D11*
X203839800Y-126680000D02*
X203839800Y-131570000D01*
X193349800Y-131570000D01*
X193349800Y-126680000D01*
X203839800Y-126680000D01*
D12*
%TO.P,U11,1,GND*%
X201134800Y-128175000D03*
D13*
%TO.P,U11,2,VO*%
X198594800Y-128175000D03*
%TO.P,U11,3,VI*%
X196054800Y-128175000D03*
%TD*%
D10*
%TO.C,J17*%
%TO.CFtp,PinSocket_1x07_P2.54mm_Vertical*%
%TO.CVal,Conn_01x07_Pin*%
%TO.CLbN,Connector_PinSocket_2.54mm*%
%TO.CMnt,TH*%
%TO.CRot,90*%
X179377000Y-79600000D03*
D11*
X196372000Y-77855000D02*
X196372000Y-81395000D01*
X177582000Y-81395000D01*
X177582000Y-77855000D01*
X196372000Y-77855000D01*
D12*
%TO.P,J17,1,Pin_1*%
X179377000Y-79600000D03*
D13*
%TO.P,J17,2,Pin_2*%
X181917000Y-79600000D03*
%TO.P,J17,3,Pin_3*%
X184457000Y-79600000D03*
%TO.P,J17,4,Pin_4*%
X186997000Y-79600000D03*
%TO.P,J17,5,Pin_5*%
X189537000Y-79600000D03*
%TO.P,J17,6,Pin_6*%
X192077000Y-79600000D03*
%TO.P,J17,7,Pin_7*%
X194617000Y-79600000D03*
%TD*%
D10*
%TO.C,D5*%
%TO.CFtp,D_DO-201AD_P5.08mm_Vertical_KathodeUp*%
%TO.CVal,D_Schottky*%
%TO.CLbN,Diode_THT*%
%TO.CMnt,TH*%
%TO.CRot,180*%
X248440000Y-40850000D03*
D11*
X250285000Y-38005000D02*
X250285000Y-43695000D01*
X240515000Y-43695000D01*
X240515000Y-38005000D01*
X250285000Y-38005000D01*
D12*
%TO.P,D5,1,K*%
X248440000Y-40850000D03*
D13*
%TO.P,D5,2,A*%
X243360000Y-40850000D03*
%TD*%
D10*
%TO.C,J4*%
%TO.CFtp,BATT_CONNECTOR*%
%TO.CVal,BATT*%
%TO.CLbN,Connector*%
%TO.CMnt,TH*%
%TO.CRot,90*%
X260000000Y-59150000D03*
D11*
X264995000Y-40655000D02*
X264995000Y-64645000D01*
X255005000Y-64645000D01*
X255005000Y-40655000D01*
X264995000Y-40655000D01*
D12*
%TO.P,J4,1,Pin_1*%
X260000000Y-59150000D03*
D13*
%TO.P,J4,2,Pin_2*%
X260000000Y-46650000D03*
%TD*%
D10*
%TO.C,J11*%
%TO.CFtp,PinSocket_1x05_P2.54mm_Vertical*%
%TO.CVal,DRIVER_GPIO*%
%TO.CLbN,Connector_PinSocket_2.54mm*%
%TO.CMnt,TH*%
%TO.CRot,0*%
X214071200Y-104343200D03*
D11*
X215816200Y-102548200D02*
X215816200Y-116238200D01*
X212276200Y-116238200D01*
X212276200Y-102548200D01*
X215816200Y-102548200D01*
D12*
%TO.P,J11,1,Pin_1*%
X214071200Y-104343200D03*
D13*
%TO.P,J11,2,Pin_2*%
X214071200Y-106883200D03*
%TO.P,J11,3,Pin_3*%
X214071200Y-109423200D03*
%TO.P,J11,4,Pin_4*%
X214071200Y-111963200D03*
%TO.P,J11,5,Pin_5*%
X214071200Y-114503200D03*
%TD*%
D10*
%TO.C,J2*%
%TO.CFtp,PinHeader_1x02_P2.54mm_Vertical*%
%TO.CVal,EXT_PWR_BTN*%
%TO.CLbN,Connector_PinHeader_2.54mm*%
%TO.CMnt,TH*%
%TO.CRot,90*%
X260502400Y-78486000D03*
D11*
X264817400Y-76721000D02*
X264817400Y-80251000D01*
X258737400Y-80251000D01*
X258737400Y-76721000D01*
X264817400Y-76721000D01*
D12*
%TO.P,J2,1,Pin_1*%
X260502400Y-78486000D03*
D13*
%TO.P,J2,2,Pin_2*%
X263042400Y-78486000D03*
%TD*%
D10*
%TO.C,R41*%
%TO.CFtp,R_Axial_DIN0204_L3.6mm_D1.6mm_P2.54mm_Vertical*%
%TO.CVal,220R*%
%TO.CLbN,Resistor_THT*%
%TO.CMnt,TH*%
%TO.CRot,90*%
X233450000Y-115720000D03*
D11*
X234495000Y-112235000D02*
X234495000Y-116765000D01*
X232405000Y-116765000D01*
X232405000Y-112235000D01*
X234495000Y-112235000D01*
D12*
%TO.P,R41,1*%
X233450000Y-115720000D03*
D13*
%TO.P,R41,2*%
X233450000Y-113180000D03*
%TD*%
D10*
%TO.C,D1*%
%TO.CFtp,D_DO-41_SOD81_P2.54mm_Vertical_AnodeUp*%
%TO.CVal,3.6v*%
%TO.CLbN,Diode_THT*%
%TO.CMnt,TH*%
%TO.CRot,0*%
X245635000Y-114925000D03*
D11*
X249520000Y-113330000D02*
X249520000Y-116520000D01*
X244040000Y-116520000D01*
X244040000Y-113330000D01*
X249520000Y-113330000D01*
D12*
%TO.P,D1,1,A1*%
X245635000Y-114925000D03*
D13*
%TO.P,D1,2,A2*%
X248175000Y-114925000D03*
%TD*%
D10*
%TO.C,D8*%
%TO.CFtp,D_DO-201AD_P5.08mm_Vertical_KathodeUp*%
%TO.CVal,60V*%
%TO.CLbN,Diode_THT*%
%TO.CMnt,TH*%
%TO.CRot,-90*%
X186710000Y-37670000D03*
D11*
X189555000Y-35825000D02*
X189555000Y-45595000D01*
X183865000Y-45595000D01*
X183865000Y-35825000D01*
X189555000Y-35825000D01*
D12*
%TO.P,D8,1,A1*%
X186710000Y-37670000D03*
D13*
%TO.P,D8,2,A2*%
X186710000Y-42750000D03*
%TD*%
D10*
%TO.C,U1*%
%TO.CFtp,ESP32-C5-DevKitC-1-v1.2*%
%TO.CVal,~*%
%TO.CLbN,RF_Module*%
%TO.CMnt,TH*%
%TO.CRot,180*%
X243950000Y-131490000D03*
D11*
X243945000Y-88315000D02*
X243945000Y-131485000D01*
X238875000Y-131485000D01*
X238875000Y-88315000D01*
X243945000Y-88315000D01*
X221085000Y-88315000D02*
X221085000Y-131485000D01*
X216015000Y-131485000D01*
X216015000Y-88315000D01*
X221085000Y-88315000D01*
D12*
%TO.P,U1,1,3v3*%
X241410000Y-128950000D03*
D13*
%TO.P,U1,2,RST*%
X241410000Y-126410000D03*
%TO.P,U1,3,GPIO2/MTMS/LP_GPIO2/LP_UART_RTSN/LP_I2C_SDA/ADC1_CH1/FSPIQ*%
X241410000Y-123870000D03*
%TO.P,U1,4,GPIO3/LP_GPIO3/MTDI/LP_UART_CTSN/LP_I2C_SCL/ADC1_CH2*%
X241410000Y-121330000D03*
%TO.P,U1,5,GPIO0/XTAL_32K_P/LP_GPIO0/LP_UART_DTRN*%
X241410000Y-118790000D03*
%TO.P,U1,6,GPIO1/XTAL_32K_N/LP_GPIO1/LP_UART_DSRN/ADC1_CH0*%
X241410000Y-116250000D03*
%TO.P,U1,7,GPIO6/LP_GPIO6/ADC1_CH5/FSPICLK*%
X241410000Y-113710000D03*
%TO.P,U1,8,GPIO7/FSPID/SDIO_DATA1*%
X241410000Y-111170000D03*
%TO.P,U1,9,GPIO8/PAD_COMP0/SDIO_DATA0*%
X241410000Y-108630000D03*
%TO.P,U1,10,GPIO9/PAD_COMP1/SDIO_CLK*%
X241410000Y-106090000D03*
%TO.P,U1,11,GPIO10/FSPICS0/SDIO_CMD*%
X241410000Y-103550000D03*
%TO.P,U1,12,GPIO26*%
X241410000Y-101010000D03*
%TO.P,U1,13,GPIO25*%
X241410000Y-98470000D03*
%TO.P,U1,14,5v*%
X241410000Y-95930000D03*
%TO.P,U1,15,GND*%
X241410000Y-93390000D03*
%TO.P,U1,16,NC*%
X241410000Y-90850000D03*
%TO.P,U1,17,G*%
X218550000Y-128950000D03*
%TO.P,U1,18,TX*%
X218550000Y-126410000D03*
%TO.P,U1,19,RX*%
X218550000Y-123870000D03*
%TO.P,U1,20,GPIO24*%
X218550000Y-121330000D03*
%TO.P,U1,21,GPIO23*%
X218550000Y-118790000D03*
%TO.P,U1,22,NC/GPIO15*%
X218550000Y-116250000D03*
%TO.P,U1,23,GPIO27*%
X218550000Y-113710000D03*
%TO.P,U1,24,MTCK/GPIO4/LP_GPIO4/LP_UART_RXD/ADC1_CH3/FSPIHD*%
X218550000Y-111170000D03*
%TO.P,U1,25,MTDO/GPIO5/LP_GPIO5/LP_UART_TXD/ADC1_CH4/FSPIWP*%
X218550000Y-108630000D03*
%TO.P,U1,26,NC*%
X218550000Y-106090000D03*
%TO.P,U1,27,GPIO28*%
X218550000Y-103550000D03*
%TO.P,U1,28,G*%
X218550000Y-101010000D03*
%TO.P,U1,29,GPIO14/USBDP/SDIO_DATA2*%
X218550000Y-98470000D03*
%TO.P,U1,30,GPIO13/USBDM/SDIO_DATA3*%
X218550000Y-95930000D03*
%TO.P,U1,31,G*%
X218550000Y-93390000D03*
%TO.P,U1,32,NC*%
X218550000Y-90850000D03*
%TD*%
D10*
%TO.C,D4*%
%TO.CFtp,D_DO-41_SOD81_P2.54mm_Vertical_AnodeUp*%
%TO.CVal,Zen_12v*%
%TO.CLbN,Diode_THT*%
%TO.CMnt,TH*%
%TO.CRot,90*%
X255574800Y-72136000D03*
D11*
X257169800Y-68251000D02*
X257169800Y-73731000D01*
X253979800Y-73731000D01*
X253979800Y-68251000D01*
X257169800Y-68251000D01*
D12*
%TO.P,D4,1,K*%
X255574800Y-72136000D03*
D13*
%TO.P,D4,2,A*%
X255574800Y-69596000D03*
%TD*%
D10*
%TO.C,U13*%
%TO.CFtp,BTT-TMC5160PRO-v1.0*%
%TO.CVal,BTT TMC5160 Pro*%
%TO.CLbN,Module*%
%TO.CMnt,TH*%
%TO.CRot,90*%
X223229000Y-75690000D03*
D11*
X227034000Y-66805000D02*
X227034000Y-71885000D01*
X244814000Y-71885000D01*
X244814000Y-74415000D01*
X224504000Y-74415000D01*
X224504000Y-66805000D01*
X227034000Y-66805000D01*
X244814000Y-59185000D02*
X244814000Y-61715000D01*
X224504000Y-61715000D01*
X224504000Y-59185000D01*
X244814000Y-59185000D01*
D12*
%TO.P,U13,1,EN*%
X225769000Y-73150000D03*
D13*
%TO.P,U13,2,SDI/CFG1*%
X228309000Y-73150000D03*
%TO.P,U13,3,SCK/CFG2*%
X230849000Y-73150000D03*
%TO.P,U13,4,CSN/CFG3*%
X233389000Y-73150000D03*
%TO.P,U13,5,SDO/CFG0*%
X235929000Y-73150000D03*
%TO.P,U13,6,CLK/DCO*%
X238469000Y-73150000D03*
%TO.P,U13,7,STEP*%
X241009000Y-73150000D03*
%TO.P,U13,8,DIR*%
X243549000Y-73150000D03*
%TO.P,U13,9,Vm*%
X225769000Y-60450000D03*
%TO.P,U13,10,GND*%
X228309000Y-60450000D03*
%TO.P,U13,11,A2*%
X230849000Y-60450000D03*
%TO.P,U13,12,A1*%
X233389000Y-60450000D03*
%TO.P,U13,13,B1*%
X235929000Y-60450000D03*
%TO.P,U13,14,B2*%
X238469000Y-60450000D03*
%TO.P,U13,15,VCC_io*%
X241009000Y-60450000D03*
%TO.P,U13,16,GND*%
X243549000Y-60450000D03*
%TO.P,U13,17,DIAG0*%
X225769000Y-70610000D03*
%TO.P,U13,18,DIAG1*%
X225769000Y-68070000D03*
%TD*%
D10*
%TO.C,C17*%
%TO.CFtp,CP_Radial_D18.0mm_P7.50mm*%
%TO.CVal,1000uF*%
%TO.CLbN,Capacitor_THT*%
%TO.CMnt,TH*%
%TO.CRot,-90*%
X213850000Y-37950000D03*
D11*
X214152574Y-32457476D02*
X214756408Y-32497054D01*
X215356369Y-32576040D01*
X215949876Y-32694095D01*
X216534400Y-32850718D01*
X217107435Y-33045237D01*
X217666498Y-33276809D01*
X218209224Y-33544451D01*
X218733295Y-33847024D01*
X219236441Y-34183215D01*
X219716539Y-34551607D01*
X220171494Y-34950593D01*
X220599406Y-35378505D01*
X220998392Y-35833460D01*
X221366784Y-36313558D01*
X221702975Y-36816704D01*
X222005548Y-37340775D01*
X222273190Y-37883501D01*
X222504762Y-38442564D01*
X222699281Y-39015599D01*
X222855904Y-39600123D01*
X222973959Y-40193630D01*
X223052945Y-40793591D01*
X223092525Y-41397443D01*
X223094999Y-41700000D01*
X223092525Y-42002556D01*
X223052945Y-42606408D01*
X222973959Y-43206369D01*
X222855904Y-43799876D01*
X222699281Y-44384400D01*
X222504762Y-44957435D01*
X222273190Y-45516498D01*
X222005548Y-46059224D01*
X221702975Y-46583295D01*
X221366784Y-47086441D01*
X220998392Y-47566539D01*
X220599406Y-48021494D01*
X220171494Y-48449406D01*
X219716539Y-48848392D01*
X219236441Y-49216784D01*
X218733295Y-49552975D01*
X218209224Y-49855548D01*
X217666498Y-50123190D01*
X217107435Y-50354762D01*
X216534400Y-50549281D01*
X215949876Y-50705904D01*
X215356369Y-50823959D01*
X214756408Y-50902945D01*
X214152574Y-50942524D01*
X213547426Y-50942524D01*
X212943591Y-50902945D01*
X212343630Y-50823959D01*
X211750123Y-50705904D01*
X211165599Y-50549281D01*
X210592564Y-50354762D01*
X210033501Y-50123190D01*
X209490775Y-49855548D01*
X208966704Y-49552975D01*
X208463558Y-49216784D01*
X207983460Y-48848392D01*
X207528505Y-48449406D01*
X207100593Y-48021494D01*
X206701607Y-47566539D01*
X206333215Y-47086441D01*
X205997024Y-46583295D01*
X205694451Y-46059224D01*
X205426809Y-45516498D01*
X205195237Y-44957435D01*
X205000718Y-44384400D01*
X204844095Y-43799876D01*
X204726040Y-43206369D01*
X204647054Y-42606408D01*
X204607476Y-42002573D01*
X204607476Y-41397426D01*
X204647054Y-40793591D01*
X204726040Y-40193630D01*
X204844095Y-39600123D01*
X205000718Y-39015599D01*
X205195237Y-38442564D01*
X205426809Y-37883501D01*
X205694451Y-37340775D01*
X205997024Y-36816704D01*
X206333215Y-36313558D01*
X206701607Y-35833460D01*
X207100593Y-35378505D01*
X207528505Y-34950593D01*
X207983460Y-34551607D01*
X208463558Y-34183215D01*
X208966704Y-33847024D01*
X209490775Y-33544451D01*
X210033501Y-33276809D01*
X210592564Y-33045237D01*
X211165599Y-32850718D01*
X211750123Y-32694095D01*
X212343630Y-32576040D01*
X212943591Y-32497054D01*
X213547426Y-32457476D01*
X214152574Y-32457476D01*
D12*
%TO.P,C17,1*%
X213850000Y-37950000D03*
D13*
%TO.P,C17,2*%
X213850000Y-45450000D03*
%TD*%
D10*
%TO.C,U15*%
%TO.CFtp,BTT-TMC5160PRO-v1.0*%
%TO.CVal,BTT TMC5160 Pro*%
%TO.CLbN,Module*%
%TO.CMnt,TH*%
%TO.CRot,90*%
X151649000Y-75690000D03*
D11*
X155454000Y-66805000D02*
X155454000Y-71885000D01*
X173234000Y-71885000D01*
X173234000Y-74415000D01*
X152924000Y-74415000D01*
X152924000Y-66805000D01*
X155454000Y-66805000D01*
X173234000Y-59185000D02*
X173234000Y-61715000D01*
X152924000Y-61715000D01*
X152924000Y-59185000D01*
X173234000Y-59185000D01*
D12*
%TO.P,U15,1,EN*%
X154189000Y-73150000D03*
D13*
%TO.P,U15,2,SDI/CFG1*%
X156729000Y-73150000D03*
%TO.P,U15,3,SCK/CFG2*%
X159269000Y-73150000D03*
%TO.P,U15,4,CSN/CFG3*%
X161809000Y-73150000D03*
%TO.P,U15,5,SDO/CFG0*%
X164349000Y-73150000D03*
%TO.P,U15,6,CLK/DCO*%
X166889000Y-73150000D03*
%TO.P,U15,7,STEP*%
X169429000Y-73150000D03*
%TO.P,U15,8,DIR*%
X171969000Y-73150000D03*
%TO.P,U15,9,Vm*%
X154189000Y-60450000D03*
%TO.P,U15,10,GND*%
X156729000Y-60450000D03*
%TO.P,U15,11,A2*%
X159269000Y-60450000D03*
%TO.P,U15,12,A1*%
X161809000Y-60450000D03*
%TO.P,U15,13,B1*%
X164349000Y-60450000D03*
%TO.P,U15,14,B2*%
X166889000Y-60450000D03*
%TO.P,U15,15,VCC_io*%
X169429000Y-60450000D03*
%TO.P,U15,16,GND*%
X171969000Y-60450000D03*
%TO.P,U15,17,DIAG0*%
X154189000Y-70610000D03*
%TO.P,U15,18,DIAG1*%
X154189000Y-68070000D03*
%TD*%
D10*
%TO.C,C5*%
%TO.CFtp,CP_Radial_D6.3mm_P2.50mm*%
%TO.CVal,100uF*%
%TO.CLbN,Capacitor_THT*%
%TO.CMnt,TH*%
%TO.CRot,180*%
X257465200Y-113385600D03*
D11*
X256582537Y-110008027D02*
X256945555Y-110067540D01*
X257300024Y-110165958D01*
X257641767Y-110302121D01*
X257966793Y-110474439D01*
X258271268Y-110680879D01*
X258551650Y-110919037D01*
X258804641Y-111186116D01*
X259027263Y-111478971D01*
X259216922Y-111794187D01*
X259371389Y-112128059D01*
X259488851Y-112476675D01*
X259567931Y-112835943D01*
X259607710Y-113201696D01*
X259610199Y-113385600D01*
X259607710Y-113569503D01*
X259567931Y-113935256D01*
X259488851Y-114294524D01*
X259371389Y-114643140D01*
X259216922Y-114977012D01*
X259027263Y-115292228D01*
X258804641Y-115585083D01*
X258551650Y-115852162D01*
X258271268Y-116090320D01*
X257966793Y-116296760D01*
X257641767Y-116469078D01*
X257300024Y-116605241D01*
X256945555Y-116703659D01*
X256582537Y-116763172D01*
X256215200Y-116783089D01*
X255847862Y-116763172D01*
X255484844Y-116703659D01*
X255130375Y-116605241D01*
X254788632Y-116469078D01*
X254463606Y-116296760D01*
X254159131Y-116090320D01*
X253878749Y-115852162D01*
X253625758Y-115585083D01*
X253403136Y-115292228D01*
X253213477Y-114977012D01*
X253059010Y-114643140D01*
X252941548Y-114294524D01*
X252862468Y-113935256D01*
X252822693Y-113569532D01*
X252822693Y-113201667D01*
X252862468Y-112835943D01*
X252941548Y-112476675D01*
X253059010Y-112128059D01*
X253213477Y-111794187D01*
X253403136Y-111478971D01*
X253625758Y-111186116D01*
X253878749Y-110919037D01*
X254159131Y-110680879D01*
X254463606Y-110474439D01*
X254788632Y-110302121D01*
X255130375Y-110165958D01*
X255484844Y-110067540D01*
X255847862Y-110008027D01*
X256215200Y-109988110D01*
X256582537Y-110008027D01*
D12*
%TO.P,C5,1*%
X257465200Y-113385600D03*
D13*
%TO.P,C5,2*%
X254965200Y-113385600D03*
%TD*%
D10*
%TO.C,R2*%
%TO.CFtp,R_Axial_DIN0204_L3.6mm_D1.6mm_P1.90mm_Vertical*%
%TO.CVal,470R*%
%TO.CLbN,Resistor_THT*%
%TO.CMnt,TH*%
%TO.CRot,-90*%
X164450000Y-113300000D03*
D11*
X165495000Y-112255000D02*
X165495000Y-116155000D01*
X163405000Y-116155000D01*
X163405000Y-112255000D01*
X165495000Y-112255000D01*
D12*
%TO.P,R2,1*%
X164450000Y-113300000D03*
D13*
%TO.P,R2,2*%
X164450000Y-115200000D03*
%TD*%
D10*
%TO.C,F6*%
%TO.CFtp,XFCN XF-508P-A-B*%
%TO.CVal,Fuse*%
%TO.CLbN,Fuse*%
%TO.CMnt,TH*%
%TO.CRot,90*%
X232541000Y-49407000D03*
D11*
X238236000Y-32177000D02*
X238236000Y-53167000D01*
X230246000Y-53167000D01*
X230246000Y-32177000D01*
X238236000Y-32177000D01*
D12*
%TO.P,F6,1*%
X235941000Y-49407000D03*
X232541000Y-49407000D03*
D13*
%TO.P,F6,2*%
X235941000Y-35937000D03*
X232541000Y-35937000D03*
%TD*%
D10*
%TO.C,U12*%
%TO.CFtp,DIP-4_W7.62mm*%
%TO.CVal,SFH617A-1*%
%TO.CLbN,Package_DIP*%
%TO.CMnt,TH*%
%TO.CRot,90*%
X227610000Y-97080000D03*
D11*
X231675000Y-88415000D02*
X231675000Y-98135000D01*
X226095000Y-98135000D01*
X226095000Y-88415000D01*
X231675000Y-88415000D01*
D12*
%TO.P,U12,1*%
X227610000Y-97080000D03*
D13*
%TO.P,U12,2*%
X230150000Y-97080000D03*
%TO.P,U12,3*%
X230150000Y-89460000D03*
%TO.P,U12,4*%
X227610000Y-89460000D03*
%TD*%
D10*
%TO.C,Q3*%
%TO.CFtp,TO-92_Inline_Wide*%
%TO.CVal,2N3904*%
%TO.CLbN,Package_TO_SOT_THT*%
%TO.CMnt,TH*%
%TO.CRot,-90*%
X180150000Y-102370000D03*
D11*
X182875000Y-101365000D02*
X182875000Y-108455000D01*
X178145000Y-108455000D01*
X178145000Y-101365000D01*
X182875000Y-101365000D01*
D12*
%TO.P,Q3,1,E*%
X180150000Y-102370000D03*
D13*
%TO.P,Q3,2,B*%
X180150000Y-104910000D03*
%TO.P,Q3,3,C*%
X180150000Y-107450000D03*
%TD*%
D10*
%TO.C,J8*%
%TO.CFtp,PinSocket_1x04_P2.54mm_Vertical*%
%TO.CVal,VMOT*%
%TO.CLbN,Connector_PinSocket_2.54mm*%
%TO.CMnt,TH*%
%TO.CRot,0*%
X159200000Y-33700000D03*
D11*
X160945000Y-31905000D02*
X160945000Y-43095000D01*
X157405000Y-43095000D01*
X157405000Y-31905000D01*
X160945000Y-31905000D01*
D12*
%TO.P,J8,1,Pin_1*%
X159200000Y-33700000D03*
D13*
%TO.P,J8,2,Pin_2*%
X159200000Y-36240000D03*
%TO.P,J8,3,Pin_3*%
X159200000Y-38780000D03*
%TO.P,J8,4,Pin_4*%
X159200000Y-41320000D03*
%TD*%
D10*
%TO.C,Q4*%
%TO.CFtp,TO-92_Inline_Wide*%
%TO.CVal,2N3904*%
%TO.CLbN,Package_TO_SOT_THT*%
%TO.CMnt,TH*%
%TO.CRot,-90*%
X173540000Y-102360000D03*
D11*
X176265000Y-101355000D02*
X176265000Y-108445000D01*
X171535000Y-108445000D01*
X171535000Y-101355000D01*
X176265000Y-101355000D01*
D12*
%TO.P,Q4,1,E*%
X173540000Y-102360000D03*
D13*
%TO.P,Q4,2,B*%
X173540000Y-104900000D03*
%TO.P,Q4,3,C*%
X173540000Y-107440000D03*
%TD*%
D10*
%TO.C,R64*%
%TO.CFtp,R_Axial_DIN0204_L3.6mm_D1.6mm_P1.90mm_Vertical*%
%TO.CVal,470R*%
%TO.CLbN,Resistor_THT*%
%TO.CMnt,TH*%
%TO.CRot,90*%
X169150000Y-115105000D03*
D11*
X170195000Y-112250000D02*
X170195000Y-116150000D01*
X168105000Y-116150000D01*
X168105000Y-112250000D01*
X170195000Y-112250000D01*
D12*
%TO.P,R64,1*%
X169150000Y-115105000D03*
D13*
%TO.P,R64,2*%
X169150000Y-113205000D03*
%TD*%
D10*
%TO.C,F7*%
%TO.CFtp,XFCN XF-508P-A-B*%
%TO.CVal,Fuse*%
%TO.CLbN,Fuse*%
%TO.CMnt,TH*%
%TO.CRot,90*%
X172597000Y-49407000D03*
D11*
X178292000Y-32177000D02*
X178292000Y-53167000D01*
X170302000Y-53167000D01*
X170302000Y-32177000D01*
X178292000Y-32177000D01*
D12*
%TO.P,F7,1*%
X172597000Y-49407000D03*
X175997000Y-49407000D03*
D13*
%TO.P,F7,2*%
X172597000Y-35937000D03*
X175997000Y-35937000D03*
%TD*%
D10*
%TO.C,U9*%
%TO.CFtp,DIP-14_W7.62mm*%
%TO.CVal,74LVC125*%
%TO.CLbN,Package_DIP*%
%TO.CMnt,TH*%
%TO.CRot,90*%
X184759600Y-95046800D03*
D11*
X201524600Y-86381800D02*
X201524600Y-96101800D01*
X183234600Y-96101800D01*
X183234600Y-86381800D01*
X201524600Y-86381800D01*
D12*
%TO.P,U9,1*%
X184759600Y-95046800D03*
D13*
%TO.P,U9,2*%
X187299600Y-95046800D03*
%TO.P,U9,3*%
X189839600Y-95046800D03*
%TO.P,U9,4*%
X192379600Y-95046800D03*
%TO.P,U9,5*%
X194919600Y-95046800D03*
%TO.P,U9,6*%
X197459600Y-95046800D03*
%TO.P,U9,7,GND*%
X199999600Y-95046800D03*
%TO.P,U9,8*%
X199999600Y-87426800D03*
%TO.P,U9,9*%
X197459600Y-87426800D03*
%TO.P,U9,10*%
X194919600Y-87426800D03*
%TO.P,U9,11*%
X192379600Y-87426800D03*
%TO.P,U9,12*%
X189839600Y-87426800D03*
%TO.P,U9,13*%
X187299600Y-87426800D03*
%TO.P,U9,14,VCC*%
X184759600Y-87426800D03*
%TD*%
D10*
%TO.C,J3*%
%TO.CFtp,PinHeader_1x02_P2.54mm_Vertical*%
%TO.CVal,IOLV_IN*%
%TO.CLbN,Connector_PinHeader_2.54mm*%
%TO.CMnt,TH*%
%TO.CRot,90*%
X260497400Y-85953600D03*
D11*
X264812400Y-84188600D02*
X264812400Y-87718600D01*
X258732400Y-87718600D01*
X258732400Y-84188600D01*
X264812400Y-84188600D01*
D12*
%TO.P,J3,1,Pin_1*%
X260497400Y-85953600D03*
D13*
%TO.P,J3,2,Pin_2*%
X263037400Y-85953600D03*
%TD*%
D10*
%TO.C,J15*%
%TO.CFtp,PinSocket_1x07_P2.54mm_Vertical*%
%TO.CVal,Conn_01x07_Pin*%
%TO.CLbN,Connector_PinSocket_2.54mm*%
%TO.CMnt,TH*%
%TO.CRot,90*%
X228369000Y-79600000D03*
D11*
X245364000Y-77855000D02*
X245364000Y-81395000D01*
X226574000Y-81395000D01*
X226574000Y-77855000D01*
X245364000Y-77855000D01*
D12*
%TO.P,J15,1,Pin_1*%
X228369000Y-79600000D03*
D13*
%TO.P,J15,2,Pin_2*%
X230909000Y-79600000D03*
%TO.P,J15,3,Pin_3*%
X233449000Y-79600000D03*
%TO.P,J15,4,Pin_4*%
X235989000Y-79600000D03*
%TO.P,J15,5,Pin_5*%
X238529000Y-79600000D03*
%TO.P,J15,6,Pin_6*%
X241069000Y-79600000D03*
%TO.P,J15,7,Pin_7*%
X243609000Y-79600000D03*
%TD*%
D10*
%TO.C,JP2*%
%TO.CFtp,PinSocket_1x02_P2.54mm_Vertical*%
%TO.CVal,Jumper_2_Bridged*%
%TO.CLbN,Connector_PinSocket_2.54mm*%
%TO.CMnt,TH*%
%TO.CRot,180*%
X245925000Y-98700000D03*
D11*
X247720000Y-94405000D02*
X247720000Y-100495000D01*
X244180000Y-100495000D01*
X244180000Y-94405000D01*
X247720000Y-94405000D01*
D12*
%TO.P,JP2,1,A*%
X245925000Y-98700000D03*
D13*
%TO.P,JP2,2,B*%
X245925000Y-96160000D03*
%TD*%
D10*
%TO.C,J9*%
%TO.CFtp,PinSocket_1x03_P2.54mm_Vertical*%
%TO.CVal,BP_MOTOR_ENABLE*%
%TO.CLbN,Connector_PinSocket_2.54mm*%
%TO.CMnt,TH*%
%TO.CRot,0*%
X252323600Y-33832800D03*
D11*
X254068600Y-32037800D02*
X254068600Y-40677800D01*
X250528600Y-40677800D01*
X250528600Y-32037800D01*
X254068600Y-32037800D01*
D12*
%TO.P,J9,1,Pin_1*%
X252323600Y-33832800D03*
D13*
%TO.P,J9,2,Pin_2*%
X252323600Y-36372800D03*
%TO.P,J9,3,Pin_3*%
X252323600Y-38912800D03*
%TD*%
D10*
%TO.C,U7*%
%TO.CFtp,BTT-TMC5160PRO-v1.0*%
%TO.CVal,BTT TMC5160 Pro*%
%TO.CLbN,Module*%
%TO.CMnt,TH*%
%TO.CRot,90*%
X199259000Y-75690000D03*
D11*
X203064000Y-66805000D02*
X203064000Y-71885000D01*
X220844000Y-71885000D01*
X220844000Y-74415000D01*
X200534000Y-74415000D01*
X200534000Y-66805000D01*
X203064000Y-66805000D01*
X220844000Y-59185000D02*
X220844000Y-61715000D01*
X200534000Y-61715000D01*
X200534000Y-59185000D01*
X220844000Y-59185000D01*
D12*
%TO.P,U7,1,EN*%
X201799000Y-73150000D03*
D13*
%TO.P,U7,2,SDI/CFG1*%
X204339000Y-73150000D03*
%TO.P,U7,3,SCK/CFG2*%
X206879000Y-73150000D03*
%TO.P,U7,4,CSN/CFG3*%
X209419000Y-73150000D03*
%TO.P,U7,5,SDO/CFG0*%
X211959000Y-73150000D03*
%TO.P,U7,6,CLK/DCO*%
X214499000Y-73150000D03*
%TO.P,U7,7,STEP*%
X217039000Y-73150000D03*
%TO.P,U7,8,DIR*%
X219579000Y-73150000D03*
%TO.P,U7,9,Vm*%
X201799000Y-60450000D03*
%TO.P,U7,10,GND*%
X204339000Y-60450000D03*
%TO.P,U7,11,A2*%
X206879000Y-60450000D03*
%TO.P,U7,12,A1*%
X209419000Y-60450000D03*
%TO.P,U7,13,B1*%
X211959000Y-60450000D03*
%TO.P,U7,14,B2*%
X214499000Y-60450000D03*
%TO.P,U7,15,VCC_io*%
X217039000Y-60450000D03*
%TO.P,U7,16,GND*%
X219579000Y-60450000D03*
%TO.P,U7,17,DIAG0*%
X201799000Y-70610000D03*
%TO.P,U7,18,DIAG1*%
X201799000Y-68070000D03*
%TD*%
D10*
%TO.C,J20*%
%TO.CFtp,PinSocket_1x04_P2.54mm_Vertical*%
%TO.CVal,MOT_CON*%
%TO.CLbN,Connector_PinSocket_2.54mm*%
%TO.CMnt,TH*%
%TO.CRot,90*%
X160579000Y-56450000D03*
D11*
X169974000Y-54705000D02*
X169974000Y-58245000D01*
X158784000Y-58245000D01*
X158784000Y-54705000D01*
X169974000Y-54705000D01*
D12*
%TO.P,J20,1,Pin_1*%
X160579000Y-56450000D03*
D13*
%TO.P,J20,2,Pin_2*%
X163119000Y-56450000D03*
%TO.P,J20,3,Pin_3*%
X165659000Y-56450000D03*
%TO.P,J20,4,Pin_4*%
X168199000Y-56450000D03*
%TD*%
D10*
%TO.C,F4*%
%TO.CFtp,XFCN XF-508P-A-B*%
%TO.CVal,Fuse*%
%TO.CLbN,Fuse*%
%TO.CMnt,TH*%
%TO.CRot,90*%
X191869000Y-49407000D03*
D11*
X197564000Y-32177000D02*
X197564000Y-53167000D01*
X189574000Y-53167000D01*
X189574000Y-32177000D01*
X197564000Y-32177000D01*
D12*
%TO.P,F4,1*%
X191869000Y-49407000D03*
X195269000Y-49407000D03*
D13*
%TO.P,F4,2*%
X191869000Y-35937000D03*
X195269000Y-35937000D03*
%TD*%
D10*
%TO.C,C30*%
%TO.CFtp,CP_Radial_D8.0mm_P5.00mm*%
%TO.CVal,100uF*%
%TO.CLbN,Capacitor_THT*%
%TO.CMnt,TH*%
%TO.CRot,90*%
X225600000Y-51043651D03*
D11*
X225907665Y-44307330D02*
X226315100Y-44356801D01*
X226715845Y-44445363D01*
X227106173Y-44572187D01*
X227482445Y-44736096D01*
X227841143Y-44935555D01*
X228178907Y-45168697D01*
X228492598Y-45433354D01*
X228779286Y-45727055D01*
X229036282Y-46047045D01*
X229261196Y-46390347D01*
X229451929Y-46753758D01*
X229606697Y-47133880D01*
X229724053Y-47527159D01*
X229802907Y-47929935D01*
X229842521Y-48338471D01*
X229844999Y-48543651D01*
X229842521Y-48748830D01*
X229802907Y-49157366D01*
X229724053Y-49560142D01*
X229606697Y-49953421D01*
X229451929Y-50333543D01*
X229261196Y-50696954D01*
X229036282Y-51040256D01*
X228779286Y-51360246D01*
X228492598Y-51653947D01*
X228178907Y-51918604D01*
X227841143Y-52151746D01*
X227482445Y-52351205D01*
X227106173Y-52515114D01*
X226715845Y-52641938D01*
X226315100Y-52730500D01*
X225907665Y-52779971D01*
X225497361Y-52789889D01*
X225088026Y-52760160D01*
X224683454Y-52691062D01*
X224287458Y-52583243D01*
X223903706Y-52437706D01*
X223535792Y-52255810D01*
X223187161Y-52039260D01*
X222861041Y-51790062D01*
X222560515Y-51510569D01*
X222288346Y-51203354D01*
X222047112Y-50871324D01*
X221839041Y-50517547D01*
X221666096Y-50145361D01*
X221529870Y-49758197D01*
X221431652Y-49359705D01*
X221372350Y-48953586D01*
X221352521Y-48543651D01*
X221372350Y-48133715D01*
X221431652Y-47727596D01*
X221529870Y-47329104D01*
X221666096Y-46941940D01*
X221839041Y-46569754D01*
X222047112Y-46215977D01*
X222288346Y-45883947D01*
X222560515Y-45576732D01*
X222861041Y-45297239D01*
X223187161Y-45048041D01*
X223535792Y-44831491D01*
X223903706Y-44649595D01*
X224287458Y-44504058D01*
X224683454Y-44396239D01*
X225088026Y-44327141D01*
X225497361Y-44297412D01*
X225907665Y-44307330D01*
D12*
%TO.P,C30,1*%
X225600000Y-51043651D03*
D13*
%TO.P,C30,2*%
X225600000Y-46043651D03*
%TD*%
D10*
%TO.C,C3*%
%TO.CFtp,CP_Radial_D6.3mm_P2.50mm*%
%TO.CVal,100uF*%
%TO.CLbN,Capacitor_THT*%
%TO.CMnt,TH*%
%TO.CRot,180*%
X257566800Y-120345200D03*
D11*
X256684137Y-116967627D02*
X257047155Y-117027140D01*
X257401624Y-117125558D01*
X257743367Y-117261721D01*
X258068393Y-117434039D01*
X258372868Y-117640479D01*
X258653250Y-117878637D01*
X258906241Y-118145716D01*
X259128863Y-118438571D01*
X259318522Y-118753787D01*
X259472989Y-119087659D01*
X259590451Y-119436275D01*
X259669531Y-119795543D01*
X259709310Y-120161296D01*
X259711799Y-120345200D01*
X259709310Y-120529103D01*
X259669531Y-120894856D01*
X259590451Y-121254124D01*
X259472989Y-121602740D01*
X259318522Y-121936612D01*
X259128863Y-122251828D01*
X258906241Y-122544683D01*
X258653250Y-122811762D01*
X258372868Y-123049920D01*
X258068393Y-123256360D01*
X257743367Y-123428678D01*
X257401624Y-123564841D01*
X257047155Y-123663259D01*
X256684137Y-123722772D01*
X256316800Y-123742689D01*
X255949462Y-123722772D01*
X255586444Y-123663259D01*
X255231975Y-123564841D01*
X254890232Y-123428678D01*
X254565206Y-123256360D01*
X254260731Y-123049920D01*
X253980349Y-122811762D01*
X253727358Y-122544683D01*
X253504736Y-122251828D01*
X253315077Y-121936612D01*
X253160610Y-121602740D01*
X253043148Y-121254124D01*
X252964068Y-120894856D01*
X252924293Y-120529132D01*
X252924293Y-120161267D01*
X252964068Y-119795543D01*
X253043148Y-119436275D01*
X253160610Y-119087659D01*
X253315077Y-118753787D01*
X253504736Y-118438571D01*
X253727358Y-118145716D01*
X253980349Y-117878637D01*
X254260731Y-117640479D01*
X254565206Y-117434039D01*
X254890232Y-117261721D01*
X255231975Y-117125558D01*
X255586444Y-117027140D01*
X255949462Y-116967627D01*
X256316800Y-116947710D01*
X256684137Y-116967627D01*
D12*
%TO.P,C3,1*%
X257566800Y-120345200D03*
D13*
%TO.P,C3,2*%
X255066800Y-120345200D03*
%TD*%
D10*
%TO.C,R14*%
%TO.CFtp,R_Axial_DIN0204_L3.6mm_D1.6mm_P1.90mm_Vertical*%
%TO.CVal,1k*%
%TO.CLbN,Resistor_THT*%
%TO.CMnt,TH*%
%TO.CRot,180*%
X185805000Y-103250000D03*
D11*
X186850000Y-102205000D02*
X186850000Y-104295000D01*
X182950000Y-104295000D01*
X182950000Y-102205000D01*
X186850000Y-102205000D01*
D12*
%TO.P,R14,1*%
X185805000Y-103250000D03*
D13*
%TO.P,R14,2*%
X183905000Y-103250000D03*
%TD*%
D10*
%TO.C,D7*%
%TO.CFtp,D_DO-41_SOD81_P2.54mm_Vertical_AnodeUp*%
%TO.CVal,3.6v*%
%TO.CLbN,Diode_THT*%
%TO.CMnt,TH*%
%TO.CRot,90*%
X189400000Y-120740000D03*
D11*
X190995000Y-116855000D02*
X190995000Y-122335000D01*
X187805000Y-122335000D01*
X187805000Y-116855000D01*
X190995000Y-116855000D01*
D12*
%TO.P,D7,1,A1*%
X189400000Y-120740000D03*
D13*
%TO.P,D7,2,A2*%
X189400000Y-118200000D03*
%TD*%
D10*
%TO.C,D2*%
%TO.CFtp,LED_D3.0mm*%
%TO.CVal,LED*%
%TO.CLbN,LED_THT*%
%TO.CMnt,TH*%
%TO.CRot,0*%
X162370000Y-122400000D03*
D11*
X166055000Y-120195000D02*
X166055000Y-124605000D01*
X161225000Y-124605000D01*
X161225000Y-120195000D01*
X166055000Y-120195000D01*
D12*
%TO.P,D2,1,K*%
X162370000Y-122400000D03*
D13*
%TO.P,D2,2,A*%
X164910000Y-122400000D03*
%TD*%
D10*
%TO.C,J16*%
%TO.CFtp,PinSocket_1x04_P2.54mm_Vertical*%
%TO.CVal,MOT_CON*%
%TO.CLbN,Connector_PinSocket_2.54mm*%
%TO.CMnt,TH*%
%TO.CRot,90*%
X232599000Y-56450000D03*
D11*
X241994000Y-54705000D02*
X241994000Y-58245000D01*
X230804000Y-58245000D01*
X230804000Y-54705000D01*
X241994000Y-54705000D01*
D12*
%TO.P,J16,1,Pin_1*%
X232599000Y-56450000D03*
D13*
%TO.P,J16,2,Pin_2*%
X235139000Y-56450000D03*
%TO.P,J16,3,Pin_3*%
X237679000Y-56450000D03*
%TO.P,J16,4,Pin_4*%
X240219000Y-56450000D03*
%TD*%
D10*
%TO.C,D11*%
%TO.CFtp,LED_D3.0mm*%
%TO.CVal,LED*%
%TO.CLbN,LED_THT*%
%TO.CMnt,TH*%
%TO.CRot,0*%
X167350000Y-122400000D03*
D11*
X171035000Y-120195000D02*
X171035000Y-124605000D01*
X166205000Y-124605000D01*
X166205000Y-120195000D01*
X171035000Y-120195000D01*
D12*
%TO.P,D11,1,K*%
X167350000Y-122400000D03*
D13*
%TO.P,D11,2,A*%
X169890000Y-122400000D03*
%TD*%
D10*
%TO.C,D6*%
%TO.CFtp,D_DO-41_SOD81_P2.54mm_Vertical_AnodeUp*%
%TO.CVal,Zener-12v*%
%TO.CLbN,Diode_THT*%
%TO.CMnt,TH*%
%TO.CRot,90*%
X245950000Y-92752183D03*
D11*
X247545000Y-88867183D02*
X247545000Y-94347183D01*
X244355000Y-94347183D01*
X244355000Y-88867183D01*
X247545000Y-88867183D01*
D12*
%TO.P,D6,1,K*%
X245950000Y-92752183D03*
D13*
%TO.P,D6,2,A*%
X245950000Y-90212183D03*
%TD*%
D10*
%TO.C,C1*%
%TO.CFtp,CP_Radial_D8.0mm_P5.00mm*%
%TO.CVal,100uF*%
%TO.CLbN,Capacitor_THT*%
%TO.CMnt,TH*%
%TO.CRot,90*%
X254625000Y-107800000D03*
D11*
X254932665Y-101063679D02*
X255340100Y-101113150D01*
X255740845Y-101201712D01*
X256131173Y-101328536D01*
X256507445Y-101492445D01*
X256866143Y-101691904D01*
X257203907Y-101925046D01*
X257517598Y-102189703D01*
X257804286Y-102483404D01*
X258061282Y-102803394D01*
X258286196Y-103146696D01*
X258476929Y-103510107D01*
X258631697Y-103890229D01*
X258749053Y-104283508D01*
X258827907Y-104686284D01*
X258867521Y-105094820D01*
X258869999Y-105300000D01*
X258867521Y-105505179D01*
X258827907Y-105913715D01*
X258749053Y-106316491D01*
X258631697Y-106709770D01*
X258476929Y-107089892D01*
X258286196Y-107453303D01*
X258061282Y-107796605D01*
X257804286Y-108116595D01*
X257517598Y-108410296D01*
X257203907Y-108674953D01*
X256866143Y-108908095D01*
X256507445Y-109107554D01*
X256131173Y-109271463D01*
X255740845Y-109398287D01*
X255340100Y-109486849D01*
X254932665Y-109536320D01*
X254522361Y-109546238D01*
X254113026Y-109516509D01*
X253708454Y-109447411D01*
X253312458Y-109339592D01*
X252928706Y-109194055D01*
X252560792Y-109012159D01*
X252212161Y-108795609D01*
X251886041Y-108546411D01*
X251585515Y-108266918D01*
X251313346Y-107959703D01*
X251072112Y-107627673D01*
X250864041Y-107273896D01*
X250691096Y-106901710D01*
X250554870Y-106514546D01*
X250456652Y-106116054D01*
X250397350Y-105709935D01*
X250377521Y-105300000D01*
X250397350Y-104890064D01*
X250456652Y-104483945D01*
X250554870Y-104085453D01*
X250691096Y-103698289D01*
X250864041Y-103326103D01*
X251072112Y-102972326D01*
X251313346Y-102640296D01*
X251585515Y-102333081D01*
X251886041Y-102053588D01*
X252212161Y-101804390D01*
X252560792Y-101587840D01*
X252928706Y-101405944D01*
X253312458Y-101260407D01*
X253708454Y-101152588D01*
X254113026Y-101083490D01*
X254522361Y-101053761D01*
X254932665Y-101063679D01*
D12*
%TO.P,C1,1*%
X254625000Y-107800000D03*
D13*
%TO.P,C1,2*%
X254625000Y-102800000D03*
%TD*%
D10*
%TO.C,R70*%
%TO.CFtp,R_Axial_DIN0204_L3.6mm_D1.6mm_P1.90mm_Vertical*%
%TO.CVal,470R*%
%TO.CLbN,Resistor_THT*%
%TO.CMnt,TH*%
%TO.CRot,-90*%
X166800000Y-113295000D03*
D11*
X167845000Y-112250000D02*
X167845000Y-116150000D01*
X165755000Y-116150000D01*
X165755000Y-112250000D01*
X167845000Y-112250000D01*
D12*
%TO.P,R70,1*%
X166800000Y-113295000D03*
D13*
%TO.P,R70,2*%
X166800000Y-115195000D03*
%TD*%
D10*
%TO.C,R15*%
%TO.CFtp,R_Axial_DIN0204_L3.6mm_D1.6mm_P1.90mm_Vertical*%
%TO.CVal,1k*%
%TO.CLbN,Resistor_THT*%
%TO.CMnt,TH*%
%TO.CRot,180*%
X185805000Y-107100000D03*
D11*
X186850000Y-106055000D02*
X186850000Y-108145000D01*
X182950000Y-108145000D01*
X182950000Y-106055000D01*
X186850000Y-106055000D01*
D12*
%TO.P,R15,1*%
X185805000Y-107100000D03*
D13*
%TO.P,R15,2*%
X183905000Y-107100000D03*
%TD*%
D10*
%TO.C,D10*%
%TO.CFtp,LED_D3.0mm*%
%TO.CVal,LED*%
%TO.CLbN,LED_THT*%
%TO.CMnt,TH*%
%TO.CRot,0*%
X167450000Y-129250000D03*
D11*
X171135000Y-127045000D02*
X171135000Y-131455000D01*
X166305000Y-131455000D01*
X166305000Y-127045000D01*
X171135000Y-127045000D01*
D12*
%TO.P,D10,1,K*%
X167450000Y-129250000D03*
D13*
%TO.P,D10,2,A*%
X169990000Y-129250000D03*
%TD*%
D10*
%TO.C,R48*%
%TO.CFtp,R_Axial_DIN0204_L3.6mm_D1.6mm_P1.90mm_Vertical*%
%TO.CVal,220R*%
%TO.CLbN,Resistor_THT*%
%TO.CMnt,TH*%
%TO.CRot,90*%
X229900000Y-101005000D03*
D11*
X230945000Y-98150000D02*
X230945000Y-102050000D01*
X228855000Y-102050000D01*
X228855000Y-98150000D01*
X230945000Y-98150000D01*
D12*
%TO.P,R48,1*%
X229900000Y-101005000D03*
D13*
%TO.P,R48,2*%
X229900000Y-99105000D03*
%TD*%
D10*
%TO.C,J12*%
%TO.CFtp,PinSocket_1x04_P2.54mm_Vertical*%
%TO.CVal,GND*%
%TO.CLbN,Connector_PinSocket_2.54mm*%
%TO.CMnt,TH*%
%TO.CRot,0*%
X150800000Y-42000000D03*
D11*
X152545000Y-40205000D02*
X152545000Y-51395000D01*
X149005000Y-51395000D01*
X149005000Y-40205000D01*
X152545000Y-40205000D01*
D12*
%TO.P,J12,1,Pin_1*%
X150800000Y-42000000D03*
D13*
%TO.P,J12,2,Pin_2*%
X150800000Y-44540000D03*
%TO.P,J12,3,Pin_3*%
X150800000Y-47080000D03*
%TO.P,J12,4,Pin_4*%
X150800000Y-49620000D03*
%TD*%
D10*
%TO.C,J13*%
%TO.CFtp,PinSocket_2x04_P2.54mm_Vertical*%
%TO.CVal,Conn_01x08_Pin*%
%TO.CLbN,Connector_PinSocket_2.54mm*%
%TO.CMnt,TH*%
%TO.CRot,0*%
X178500000Y-87880000D03*
D11*
X180255000Y-86085000D02*
X180255000Y-97275000D01*
X174165000Y-97275000D01*
X174165000Y-86085000D01*
X180255000Y-86085000D01*
D12*
%TO.P,J13,1,Pin_1*%
X178500000Y-87880000D03*
D13*
%TO.P,J13,2,Pin_2*%
X175960000Y-87880000D03*
%TO.P,J13,3,Pin_3*%
X178500000Y-90420000D03*
%TO.P,J13,4,Pin_4*%
X175960000Y-90420000D03*
%TO.P,J13,5,Pin_5*%
X178500000Y-92960000D03*
%TO.P,J13,6,Pin_6*%
X175960000Y-92960000D03*
%TO.P,J13,7,Pin_7*%
X178500000Y-95500000D03*
%TO.P,J13,8,Pin_8*%
X175960000Y-95500000D03*
%TD*%
D10*
%TO.C,C7*%
%TO.CFtp,CP_Radial_D6.3mm_P2.50mm*%
%TO.CVal,100uF*%
%TO.CLbN,Capacitor_THT*%
%TO.CMnt,TH*%
%TO.CRot,0*%
X251652400Y-126796800D03*
D11*
X253269737Y-123419227D02*
X253632755Y-123478740D01*
X253987224Y-123577158D01*
X254328967Y-123713321D01*
X254653993Y-123885639D01*
X254958468Y-124092079D01*
X255238850Y-124330237D01*
X255491841Y-124597316D01*
X255714463Y-124890171D01*
X255904122Y-125205387D01*
X256058589Y-125539259D01*
X256176051Y-125887875D01*
X256255131Y-126247143D01*
X256294910Y-126612896D01*
X256297399Y-126796800D01*
X256294910Y-126980703D01*
X256255131Y-127346456D01*
X256176051Y-127705724D01*
X256058589Y-128054340D01*
X255904122Y-128388212D01*
X255714463Y-128703428D01*
X255491841Y-128996283D01*
X255238850Y-129263362D01*
X254958468Y-129501520D01*
X254653993Y-129707960D01*
X254328967Y-129880278D01*
X253987224Y-130016441D01*
X253632755Y-130114859D01*
X253269737Y-130174372D01*
X252902400Y-130194289D01*
X252535062Y-130174372D01*
X252172044Y-130114859D01*
X251817575Y-130016441D01*
X251475832Y-129880278D01*
X251150806Y-129707960D01*
X250846331Y-129501520D01*
X250565949Y-129263362D01*
X250312958Y-128996283D01*
X250090336Y-128703428D01*
X249900677Y-128388212D01*
X249746210Y-128054340D01*
X249628748Y-127705724D01*
X249549668Y-127346456D01*
X249509893Y-126980732D01*
X249509893Y-126612867D01*
X249549668Y-126247143D01*
X249628748Y-125887875D01*
X249746210Y-125539259D01*
X249900677Y-125205387D01*
X250090336Y-124890171D01*
X250312958Y-124597316D01*
X250565949Y-124330237D01*
X250846331Y-124092079D01*
X251150806Y-123885639D01*
X251475832Y-123713321D01*
X251817575Y-123577158D01*
X252172044Y-123478740D01*
X252535062Y-123419227D01*
X252902400Y-123399310D01*
X253269737Y-123419227D01*
D12*
%TO.P,C7,1*%
X251652400Y-126796800D03*
D13*
%TO.P,C7,2*%
X254152400Y-126796800D03*
%TD*%
D10*
%TO.C,JP1*%
%TO.CFtp,PinSocket_1x02_P2.54mm_Vertical*%
%TO.CVal,Jumper_2_Bridged*%
%TO.CLbN,Connector_PinSocket_2.54mm*%
%TO.CMnt,TH*%
%TO.CRot,0*%
X245925000Y-126550000D03*
D11*
X247670000Y-124755000D02*
X247670000Y-130845000D01*
X244130000Y-130845000D01*
X244130000Y-124755000D01*
X247670000Y-124755000D01*
D12*
%TO.P,JP1,1,A*%
X245925000Y-126550000D03*
D13*
%TO.P,JP1,2,B*%
X245925000Y-129090000D03*
%TD*%
D10*
%TO.C,J19*%
%TO.CFtp,PinSocket_1x07_P2.54mm_Vertical*%
%TO.CVal,Conn_01x07_Pin*%
%TO.CLbN,Connector_PinSocket_2.54mm*%
%TO.CMnt,TH*%
%TO.CRot,90*%
X155247000Y-79600000D03*
D11*
X172242000Y-77855000D02*
X172242000Y-81395000D01*
X153452000Y-81395000D01*
X153452000Y-77855000D01*
X172242000Y-77855000D01*
D12*
%TO.P,J19,1,Pin_1*%
X155247000Y-79600000D03*
D13*
%TO.P,J19,2,Pin_2*%
X157787000Y-79600000D03*
%TO.P,J19,3,Pin_3*%
X160327000Y-79600000D03*
%TO.P,J19,4,Pin_4*%
X162867000Y-79600000D03*
%TO.P,J19,5,Pin_5*%
X165407000Y-79600000D03*
%TO.P,J19,6,Pin_6*%
X167947000Y-79600000D03*
%TO.P,J19,7,Pin_7*%
X170487000Y-79600000D03*
%TD*%
D10*
%TO.C,R47*%
%TO.CFtp,R_Axial_DIN0204_L3.6mm_D1.6mm_P2.54mm_Vertical*%
%TO.CVal,1k*%
%TO.CLbN,Resistor_THT*%
%TO.CMnt,TH*%
%TO.CRot,-90*%
X222808800Y-80364800D03*
D11*
X223853800Y-79319800D02*
X223853800Y-83849800D01*
X221763800Y-83849800D01*
X221763800Y-79319800D01*
X223853800Y-79319800D01*
D12*
%TO.P,R47,1*%
X222808800Y-80364800D03*
D13*
%TO.P,R47,2*%
X222808800Y-82904800D03*
%TD*%
D10*
%TO.C,U4*%
%TO.CFtp,DIP-4_W7.62mm*%
%TO.CVal,SFH617A-1*%
%TO.CLbN,Package_DIP*%
%TO.CMnt,TH*%
%TO.CRot,90*%
X234250000Y-107300000D03*
D11*
X238315000Y-98635000D02*
X238315000Y-108355000D01*
X232735000Y-108355000D01*
X232735000Y-98635000D01*
X238315000Y-98635000D01*
D12*
%TO.P,U4,1*%
X234250000Y-107300000D03*
D13*
%TO.P,U4,2*%
X236790000Y-107300000D03*
%TO.P,U4,3*%
X236790000Y-99680000D03*
%TO.P,U4,4*%
X234250000Y-99680000D03*
%TD*%
D10*
%TO.C,D12*%
%TO.CFtp,D_DO-201AD_P5.08mm_Vertical_KathodeUp*%
%TO.CVal,D_Schottky*%
%TO.CLbN,Diode_THT*%
%TO.CMnt,TH*%
%TO.CRot,90*%
X255800000Y-97265000D03*
D11*
X258645000Y-89340000D02*
X258645000Y-99110000D01*
X252955000Y-99110000D01*
X252955000Y-89340000D01*
X258645000Y-89340000D01*
D12*
%TO.P,D12,1,K*%
X255800000Y-97265000D03*
D13*
%TO.P,D12,2,A*%
X255800000Y-92185000D03*
%TD*%
D10*
%TO.C,D9*%
%TO.CFtp,D_DO-201AD_P5.08mm_Vertical_KathodeUp*%
%TO.CVal,D_Schottky*%
%TO.CLbN,Diode_THT*%
%TO.CMnt,TH*%
%TO.CRot,90*%
X200150000Y-110580000D03*
D11*
X202995000Y-102655000D02*
X202995000Y-112425000D01*
X197305000Y-112425000D01*
X197305000Y-102655000D01*
X202995000Y-102655000D01*
D12*
%TO.P,D9,1,K*%
X200150000Y-110580000D03*
D13*
%TO.P,D9,2,A*%
X200150000Y-105500000D03*
%TD*%
D10*
%TO.C,C37*%
%TO.CFtp,CP_Radial_D5.0mm_P2.50mm*%
%TO.CVal,4.7uF*%
%TO.CLbN,Capacitor_THT*%
%TO.CMnt,TH*%
%TO.CRot,90*%
X154358000Y-56729000D03*
D11*
X154523886Y-52736509D02*
X154853251Y-52776500D01*
X155175394Y-52855901D01*
X155485611Y-52973551D01*
X155779387Y-53127737D01*
X156052433Y-53316206D01*
X156300778Y-53536221D01*
X156520793Y-53784566D01*
X156709262Y-54057612D01*
X156863448Y-54351388D01*
X156981098Y-54661605D01*
X157060499Y-54983748D01*
X157100496Y-55313155D01*
X157102999Y-55479000D01*
X157100496Y-55644844D01*
X157060499Y-55974251D01*
X156981098Y-56296394D01*
X156863448Y-56606611D01*
X156709262Y-56900387D01*
X156520793Y-57173433D01*
X156300778Y-57421778D01*
X156052433Y-57641793D01*
X155779387Y-57830262D01*
X155485611Y-57984448D01*
X155175394Y-58102098D01*
X154853251Y-58181499D01*
X154523886Y-58221491D01*
X154192114Y-58221491D01*
X153862748Y-58181499D01*
X153540605Y-58102098D01*
X153230388Y-57984448D01*
X152936612Y-57830262D01*
X152663566Y-57641793D01*
X152415221Y-57421778D01*
X152195206Y-57173433D01*
X152006737Y-56900387D01*
X151852551Y-56606611D01*
X151734901Y-56296394D01*
X151655500Y-55974251D01*
X151615509Y-55644886D01*
X151615509Y-55313113D01*
X151655500Y-54983748D01*
X151734901Y-54661605D01*
X151852551Y-54351388D01*
X152006737Y-54057612D01*
X152195206Y-53784566D01*
X152415221Y-53536221D01*
X152663566Y-53316206D01*
X152936612Y-53127737D01*
X153230388Y-52973551D01*
X153540605Y-52855901D01*
X153862748Y-52776500D01*
X154192114Y-52736509D01*
X154523886Y-52736509D01*
D12*
%TO.P,C37,1*%
X154358000Y-56729000D03*
D13*
%TO.P,C37,2*%
X154358000Y-54229000D03*
%TD*%
D10*
%TO.C,C24*%
%TO.CFtp,CP_Radial_D5.0mm_P2.50mm*%
%TO.CVal,10uF*%
%TO.CLbN,Capacitor_THT*%
%TO.CMnt,TH*%
%TO.CRot,180*%
X195202000Y-123396218D03*
D11*
X194117886Y-120653727D02*
X194447251Y-120693718D01*
X194769394Y-120773119D01*
X195079611Y-120890769D01*
X195373387Y-121044955D01*
X195646433Y-121233424D01*
X195894778Y-121453439D01*
X196114793Y-121701784D01*
X196303262Y-121974830D01*
X196457448Y-122268606D01*
X196575098Y-122578823D01*
X196654499Y-122900966D01*
X196694496Y-123230373D01*
X196696999Y-123396218D01*
X196694496Y-123562062D01*
X196654499Y-123891469D01*
X196575098Y-124213612D01*
X196457448Y-124523829D01*
X196303262Y-124817605D01*
X196114793Y-125090651D01*
X195894778Y-125338996D01*
X195646433Y-125559011D01*
X195373387Y-125747480D01*
X195079611Y-125901666D01*
X194769394Y-126019316D01*
X194447251Y-126098717D01*
X194117886Y-126138709D01*
X193786114Y-126138709D01*
X193456748Y-126098717D01*
X193134605Y-126019316D01*
X192824388Y-125901666D01*
X192530612Y-125747480D01*
X192257566Y-125559011D01*
X192009221Y-125338996D01*
X191789206Y-125090651D01*
X191600737Y-124817605D01*
X191446551Y-124523829D01*
X191328901Y-124213612D01*
X191249500Y-123891469D01*
X191209509Y-123562104D01*
X191209509Y-123230331D01*
X191249500Y-122900966D01*
X191328901Y-122578823D01*
X191446551Y-122268606D01*
X191600737Y-121974830D01*
X191789206Y-121701784D01*
X192009221Y-121453439D01*
X192257566Y-121233424D01*
X192530612Y-121044955D01*
X192824388Y-120890769D01*
X193134605Y-120773119D01*
X193456748Y-120693718D01*
X193786114Y-120653727D01*
X194117886Y-120653727D01*
D12*
%TO.P,C24,1*%
X195202000Y-123396218D03*
D13*
%TO.P,C24,2*%
X192702000Y-123396218D03*
%TD*%
D10*
%TO.C,F2*%
%TO.CFtp,RV_Disc_D9mm_W5.2mm_P5mm*%
%TO.CVal,Polyfuse*%
%TO.CLbN,Varistor*%
%TO.CMnt,TH*%
%TO.CRot,-90*%
X263250000Y-92350000D03*
D11*
X264845000Y-90105000D02*
X264845000Y-99595000D01*
X259155000Y-99595000D01*
X259155000Y-90105000D01*
X264845000Y-90105000D01*
D12*
%TO.P,F2,1*%
X263250000Y-92350000D03*
D13*
%TO.P,F2,2*%
X260750000Y-97350000D03*
%TD*%
D10*
%TO.C,J10*%
%TO.CFtp,PinSocket_1x02_P2.54mm_Vertical*%
%TO.CVal,Conn_01x02_Pin*%
%TO.CLbN,Connector_PinSocket_2.54mm*%
%TO.CMnt,TH*%
%TO.CRot,180*%
X203675000Y-91450000D03*
D11*
X205470000Y-87155000D02*
X205470000Y-93245000D01*
X201930000Y-93245000D01*
X201930000Y-87155000D01*
X205470000Y-87155000D01*
D12*
%TO.P,J10,1,Pin_1*%
X203675000Y-91450000D03*
D13*
%TO.P,J10,2,Pin_2*%
X203675000Y-88910000D03*
%TD*%
D10*
%TO.C,D3*%
%TO.CFtp,LED_D3.0mm*%
%TO.CVal,LED*%
%TO.CLbN,LED_THT*%
%TO.CMnt,TH*%
%TO.CRot,0*%
X162470000Y-129250000D03*
D11*
X166155000Y-127045000D02*
X166155000Y-131455000D01*
X161325000Y-131455000D01*
X161325000Y-127045000D01*
X166155000Y-127045000D01*
D12*
%TO.P,D3,1,K*%
X162470000Y-129250000D03*
D13*
%TO.P,D3,2,A*%
X165010000Y-129250000D03*
%TD*%
D10*
%TO.C,C34*%
%TO.CFtp,CP_Radial_D8.0mm_P5.00mm*%
%TO.CVal,100uF*%
%TO.CLbN,Capacitor_THT*%
%TO.CMnt,TH*%
%TO.CRot,90*%
X184000000Y-52350000D03*
D11*
X184307665Y-45613679D02*
X184715100Y-45663150D01*
X185115845Y-45751712D01*
X185506173Y-45878536D01*
X185882445Y-46042445D01*
X186241143Y-46241904D01*
X186578907Y-46475046D01*
X186892598Y-46739703D01*
X187179286Y-47033404D01*
X187436282Y-47353394D01*
X187661196Y-47696696D01*
X187851929Y-48060107D01*
X188006697Y-48440229D01*
X188124053Y-48833508D01*
X188202907Y-49236284D01*
X188242521Y-49644820D01*
X188244999Y-49850000D01*
X188242521Y-50055179D01*
X188202907Y-50463715D01*
X188124053Y-50866491D01*
X188006697Y-51259770D01*
X187851929Y-51639892D01*
X187661196Y-52003303D01*
X187436282Y-52346605D01*
X187179286Y-52666595D01*
X186892598Y-52960296D01*
X186578907Y-53224953D01*
X186241143Y-53458095D01*
X185882445Y-53657554D01*
X185506173Y-53821463D01*
X185115845Y-53948287D01*
X184715100Y-54036849D01*
X184307665Y-54086320D01*
X183897361Y-54096238D01*
X183488026Y-54066509D01*
X183083454Y-53997411D01*
X182687458Y-53889592D01*
X182303706Y-53744055D01*
X181935792Y-53562159D01*
X181587161Y-53345609D01*
X181261041Y-53096411D01*
X180960515Y-52816918D01*
X180688346Y-52509703D01*
X180447112Y-52177673D01*
X180239041Y-51823896D01*
X180066096Y-51451710D01*
X179929870Y-51064546D01*
X179831652Y-50666054D01*
X179772350Y-50259935D01*
X179752521Y-49850000D01*
X179772350Y-49440064D01*
X179831652Y-49033945D01*
X179929870Y-48635453D01*
X180066096Y-48248289D01*
X180239041Y-47876103D01*
X180447112Y-47522326D01*
X180688346Y-47190296D01*
X180960515Y-46883081D01*
X181261041Y-46603588D01*
X181587161Y-46354390D01*
X181935792Y-46137840D01*
X182303706Y-45955944D01*
X182687458Y-45810407D01*
X183083454Y-45702588D01*
X183488026Y-45633490D01*
X183897361Y-45603761D01*
X184307665Y-45613679D01*
D12*
%TO.P,C34,1*%
X184000000Y-52350000D03*
D13*
%TO.P,C34,2*%
X184000000Y-47350000D03*
%TD*%
D10*
%TO.C,J14*%
%TO.CFtp,PinSocket_2x04_P2.54mm_Vertical*%
%TO.CVal,IOLV / VIO*%
%TO.CLbN,Connector_PinSocket_2.54mm*%
%TO.CMnt,TH*%
%TO.CRot,180*%
X183000000Y-129640000D03*
D11*
X187335000Y-120245000D02*
X187335000Y-131435000D01*
X181245000Y-131435000D01*
X181245000Y-120245000D01*
X187335000Y-120245000D01*
D12*
%TO.P,J14,1,Pin_1*%
X183000000Y-129640000D03*
D13*
%TO.P,J14,2,Pin_2*%
X185540000Y-129640000D03*
%TO.P,J14,3,Pin_3*%
X183000000Y-127100000D03*
%TO.P,J14,4,Pin_4*%
X185540000Y-127100000D03*
%TO.P,J14,5,Pin_5*%
X183000000Y-124560000D03*
%TO.P,J14,6,Pin_6*%
X185540000Y-124560000D03*
%TO.P,J14,7,Pin_7*%
X183000000Y-122020000D03*
%TO.P,J14,8,Pin_8*%
X185540000Y-122020000D03*
%TD*%
D10*
%TO.C,F8*%
%TO.CFtp,XFCN XF-508P-A-B*%
%TO.CVal,Fuse*%
%TO.CLbN,Fuse*%
%TO.CMnt,TH*%
%TO.CRot,90*%
X163900000Y-49407000D03*
D11*
X169595000Y-32177000D02*
X169595000Y-53167000D01*
X161605000Y-53167000D01*
X161605000Y-32177000D01*
X169595000Y-32177000D01*
D12*
%TO.P,F8,1*%
X163900000Y-49407000D03*
X167300000Y-49407000D03*
D13*
%TO.P,F8,2*%
X163900000Y-35937000D03*
X167300000Y-35937000D03*
%TD*%
D10*
%TO.C,F1*%
%TO.CFtp,RV_Disc_D9mm_W5.2mm_P5mm*%
%TO.CVal,Polyfuse*%
%TO.CLbN,Varistor*%
%TO.CMnt,TH*%
%TO.CRot,-90*%
X255500000Y-79846800D03*
D11*
X257095000Y-77601800D02*
X257095000Y-87091800D01*
X251405000Y-87091800D01*
X251405000Y-77601800D01*
X257095000Y-77601800D01*
D12*
%TO.P,F1,1*%
X255500000Y-79846800D03*
D13*
%TO.P,F1,2*%
X253000000Y-84846800D03*
%TD*%
D10*
%TO.C,U2*%
%TO.CFtp,TO-220-3_Vertical*%
%TO.CVal,LM1117DT-5.0*%
%TO.CLbN,Package_TO_SOT_THT*%
%TO.CMnt,TH*%
%TO.CRot,-90*%
X261432000Y-102514400D03*
D11*
X264827000Y-99809400D02*
X264827000Y-110299400D01*
X259937000Y-110299400D01*
X259937000Y-99809400D01*
X264827000Y-99809400D01*
D12*
%TO.P,U2,1,GND*%
X261432000Y-102514400D03*
D13*
%TO.P,U2,2,VO*%
X261432000Y-105054400D03*
%TO.P,U2,3,VI*%
X261432000Y-107594400D03*
%TD*%
D10*
%TO.C,C38*%
%TO.CFtp,CP_Radial_D8.0mm_P5.00mm*%
%TO.CVal,100uF*%
%TO.CLbN,Capacitor_THT*%
%TO.CMnt,TH*%
%TO.CRot,90*%
X157100000Y-50662651D03*
D11*
X157407665Y-43926330D02*
X157815100Y-43975801D01*
X158215845Y-44064363D01*
X158606173Y-44191187D01*
X158982445Y-44355096D01*
X159341143Y-44554555D01*
X159678907Y-44787697D01*
X159992598Y-45052354D01*
X160279286Y-45346055D01*
X160536282Y-45666045D01*
X160761196Y-46009347D01*
X160951929Y-46372758D01*
X161106697Y-46752880D01*
X161224053Y-47146159D01*
X161302907Y-47548935D01*
X161342521Y-47957471D01*
X161344999Y-48162651D01*
X161342521Y-48367830D01*
X161302907Y-48776366D01*
X161224053Y-49179142D01*
X161106697Y-49572421D01*
X160951929Y-49952543D01*
X160761196Y-50315954D01*
X160536282Y-50659256D01*
X160279286Y-50979246D01*
X159992598Y-51272947D01*
X159678907Y-51537604D01*
X159341143Y-51770746D01*
X158982445Y-51970205D01*
X158606173Y-52134114D01*
X158215845Y-52260938D01*
X157815100Y-52349500D01*
X157407665Y-52398971D01*
X156997361Y-52408889D01*
X156588026Y-52379160D01*
X156183454Y-52310062D01*
X155787458Y-52202243D01*
X155403706Y-52056706D01*
X155035792Y-51874810D01*
X154687161Y-51658260D01*
X154361041Y-51409062D01*
X154060515Y-51129569D01*
X153788346Y-50822354D01*
X153547112Y-50490324D01*
X153339041Y-50136547D01*
X153166096Y-49764361D01*
X153029870Y-49377197D01*
X152931652Y-48978705D01*
X152872350Y-48572586D01*
X152852521Y-48162651D01*
X152872350Y-47752715D01*
X152931652Y-47346596D01*
X153029870Y-46948104D01*
X153166096Y-46560940D01*
X153339041Y-46188754D01*
X153547112Y-45834977D01*
X153788346Y-45502947D01*
X154060515Y-45195732D01*
X154361041Y-44916239D01*
X154687161Y-44667041D01*
X155035792Y-44450491D01*
X155403706Y-44268595D01*
X155787458Y-44123058D01*
X156183454Y-44015239D01*
X156588026Y-43946141D01*
X156997361Y-43916412D01*
X157407665Y-43926330D01*
D12*
%TO.P,C38,1*%
X157100000Y-50662651D03*
D13*
%TO.P,C38,2*%
X157100000Y-45662651D03*
%TD*%
D10*
%TO.C,C29*%
%TO.CFtp,CP_Radial_D5.0mm_P2.50mm*%
%TO.CVal,4.7uF*%
%TO.CLbN,Capacitor_THT*%
%TO.CMnt,TH*%
%TO.CRot,90*%
X226596112Y-56958112D03*
D11*
X226761998Y-52965621D02*
X227091363Y-53005612D01*
X227413506Y-53085013D01*
X227723723Y-53202663D01*
X228017499Y-53356849D01*
X228290545Y-53545318D01*
X228538890Y-53765333D01*
X228758905Y-54013678D01*
X228947374Y-54286724D01*
X229101560Y-54580500D01*
X229219210Y-54890717D01*
X229298611Y-55212860D01*
X229338608Y-55542267D01*
X229341111Y-55708112D01*
X229338608Y-55873956D01*
X229298611Y-56203363D01*
X229219210Y-56525506D01*
X229101560Y-56835723D01*
X228947374Y-57129499D01*
X228758905Y-57402545D01*
X228538890Y-57650890D01*
X228290545Y-57870905D01*
X228017499Y-58059374D01*
X227723723Y-58213560D01*
X227413506Y-58331210D01*
X227091363Y-58410611D01*
X226761998Y-58450603D01*
X226430226Y-58450603D01*
X226100860Y-58410611D01*
X225778717Y-58331210D01*
X225468500Y-58213560D01*
X225174724Y-58059374D01*
X224901678Y-57870905D01*
X224653333Y-57650890D01*
X224433318Y-57402545D01*
X224244849Y-57129499D01*
X224090663Y-56835723D01*
X223973013Y-56525506D01*
X223893612Y-56203363D01*
X223853621Y-55873998D01*
X223853621Y-55542225D01*
X223893612Y-55212860D01*
X223973013Y-54890717D01*
X224090663Y-54580500D01*
X224244849Y-54286724D01*
X224433318Y-54013678D01*
X224653333Y-53765333D01*
X224901678Y-53545318D01*
X225174724Y-53356849D01*
X225468500Y-53202663D01*
X225778717Y-53085013D01*
X226100860Y-53005612D01*
X226430226Y-52965621D01*
X226761998Y-52965621D01*
D12*
%TO.P,C29,1*%
X226596112Y-56958112D03*
D13*
%TO.P,C29,2*%
X226596112Y-54458112D03*
%TD*%
D10*
%TO.C,C16*%
%TO.CFtp,CP_Radial_D8.0mm_P5.00mm*%
%TO.CVal,100uF*%
%TO.CLbN,Capacitor_THT*%
%TO.CMnt,TH*%
%TO.CRot,90*%
X201950000Y-50789651D03*
D11*
X202257665Y-44053330D02*
X202665100Y-44102801D01*
X203065845Y-44191363D01*
X203456173Y-44318187D01*
X203832445Y-44482096D01*
X204191143Y-44681555D01*
X204528907Y-44914697D01*
X204842598Y-45179354D01*
X205129286Y-45473055D01*
X205386282Y-45793045D01*
X205611196Y-46136347D01*
X205801929Y-46499758D01*
X205956697Y-46879880D01*
X206074053Y-47273159D01*
X206152907Y-47675935D01*
X206192521Y-48084471D01*
X206194999Y-48289651D01*
X206192521Y-48494830D01*
X206152907Y-48903366D01*
X206074053Y-49306142D01*
X205956697Y-49699421D01*
X205801929Y-50079543D01*
X205611196Y-50442954D01*
X205386282Y-50786256D01*
X205129286Y-51106246D01*
X204842598Y-51399947D01*
X204528907Y-51664604D01*
X204191143Y-51897746D01*
X203832445Y-52097205D01*
X203456173Y-52261114D01*
X203065845Y-52387938D01*
X202665100Y-52476500D01*
X202257665Y-52525971D01*
X201847361Y-52535889D01*
X201438026Y-52506160D01*
X201033454Y-52437062D01*
X200637458Y-52329243D01*
X200253706Y-52183706D01*
X199885792Y-52001810D01*
X199537161Y-51785260D01*
X199211041Y-51536062D01*
X198910515Y-51256569D01*
X198638346Y-50949354D01*
X198397112Y-50617324D01*
X198189041Y-50263547D01*
X198016096Y-49891361D01*
X197879870Y-49504197D01*
X197781652Y-49105705D01*
X197722350Y-48699586D01*
X197702521Y-48289651D01*
X197722350Y-47879715D01*
X197781652Y-47473596D01*
X197879870Y-47075104D01*
X198016096Y-46687940D01*
X198189041Y-46315754D01*
X198397112Y-45961977D01*
X198638346Y-45629947D01*
X198910515Y-45322732D01*
X199211041Y-45043239D01*
X199537161Y-44794041D01*
X199885792Y-44577491D01*
X200253706Y-44395595D01*
X200637458Y-44250058D01*
X201033454Y-44142239D01*
X201438026Y-44073141D01*
X201847361Y-44043412D01*
X202257665Y-44053330D01*
D12*
%TO.P,C16,1*%
X201950000Y-50789651D03*
D13*
%TO.P,C16,2*%
X201950000Y-45789651D03*
%TD*%
D10*
%TO.C,U14*%
%TO.CFtp,BTT-TMC5160PRO-v1.0*%
%TO.CVal,BTT TMC5160 Pro*%
%TO.CLbN,Module*%
%TO.CMnt,TH*%
%TO.CRot,90*%
X175609000Y-75690000D03*
D11*
X179414000Y-66805000D02*
X179414000Y-71885000D01*
X197194000Y-71885000D01*
X197194000Y-74415000D01*
X176884000Y-74415000D01*
X176884000Y-66805000D01*
X179414000Y-66805000D01*
X197194000Y-59185000D02*
X197194000Y-61715000D01*
X176884000Y-61715000D01*
X176884000Y-59185000D01*
X197194000Y-59185000D01*
D12*
%TO.P,U14,1,EN*%
X178149000Y-73150000D03*
D13*
%TO.P,U14,2,SDI/CFG1*%
X180689000Y-73150000D03*
%TO.P,U14,3,SCK/CFG2*%
X183229000Y-73150000D03*
%TO.P,U14,4,CSN/CFG3*%
X185769000Y-73150000D03*
%TO.P,U14,5,SDO/CFG0*%
X188309000Y-73150000D03*
%TO.P,U14,6,CLK/DCO*%
X190849000Y-73150000D03*
%TO.P,U14,7,STEP*%
X193389000Y-73150000D03*
%TO.P,U14,8,DIR*%
X195929000Y-73150000D03*
%TO.P,U14,9,Vm*%
X178149000Y-60450000D03*
%TO.P,U14,10,GND*%
X180689000Y-60450000D03*
%TO.P,U14,11,A2*%
X183229000Y-60450000D03*
%TO.P,U14,12,A1*%
X185769000Y-60450000D03*
%TO.P,U14,13,B1*%
X188309000Y-60450000D03*
%TO.P,U14,14,B2*%
X190849000Y-60450000D03*
%TO.P,U14,15,VCC_io*%
X193389000Y-60450000D03*
%TO.P,U14,16,GND*%
X195929000Y-60450000D03*
%TO.P,U14,17,DIAG0*%
X178149000Y-70610000D03*
%TO.P,U14,18,DIAG1*%
X178149000Y-68070000D03*
%TD*%
D10*
%TO.C,J1*%
%TO.CFtp,PinSocket_2x04_P2.54mm_Vertical*%
%TO.CVal,STATUS*%
%TO.CLbN,Connector_PinSocket_2.54mm*%
%TO.CMnt,TH*%
%TO.CRot,0*%
X178500000Y-122160000D03*
D11*
X180255000Y-120365000D02*
X180255000Y-131555000D01*
X174165000Y-131555000D01*
X174165000Y-120365000D01*
X180255000Y-120365000D01*
D12*
%TO.P,J1,1,Pin_1*%
X178500000Y-122160000D03*
D13*
%TO.P,J1,2,Pin_2*%
X175960000Y-122160000D03*
%TO.P,J1,3,Pin_3*%
X178500000Y-124700000D03*
%TO.P,J1,4,Pin_4*%
X175960000Y-124700000D03*
%TO.P,J1,5,Pin_5*%
X178500000Y-127240000D03*
%TO.P,J1,6,Pin_6*%
X175960000Y-127240000D03*
%TO.P,J1,7,Pin_7*%
X178500000Y-129780000D03*
%TO.P,J1,8,Pin_8*%
X175960000Y-129780000D03*
%TD*%
D10*
%TO.C,U3*%
%TO.CFtp,TO-220-3_Vertical*%
%TO.CVal,LM1117DT-3.3*%
%TO.CLbN,Package_TO_SOT_THT*%
%TO.CMnt,TH*%
%TO.CRot,-90*%
X261432000Y-114960400D03*
D11*
X264827000Y-112255400D02*
X264827000Y-122745400D01*
X259937000Y-122745400D01*
X259937000Y-112255400D01*
X264827000Y-112255400D01*
D12*
%TO.P,U3,1,GND*%
X261432000Y-114960400D03*
D13*
%TO.P,U3,2,VO*%
X261432000Y-117500400D03*
%TO.P,U3,3,VI*%
X261432000Y-120040400D03*
%TD*%
D10*
%TO.C,C33*%
%TO.CFtp,CP_Radial_D5.0mm_P2.50mm*%
%TO.CVal,4.7uF*%
%TO.CLbN,Capacitor_THT*%
%TO.CMnt,TH*%
%TO.CRot,90*%
X179377000Y-57085112D03*
D11*
X179542886Y-53092621D02*
X179872251Y-53132612D01*
X180194394Y-53212013D01*
X180504611Y-53329663D01*
X180798387Y-53483849D01*
X181071433Y-53672318D01*
X181319778Y-53892333D01*
X181539793Y-54140678D01*
X181728262Y-54413724D01*
X181882448Y-54707500D01*
X182000098Y-55017717D01*
X182079499Y-55339860D01*
X182119496Y-55669267D01*
X182121999Y-55835112D01*
X182119496Y-56000956D01*
X182079499Y-56330363D01*
X182000098Y-56652506D01*
X181882448Y-56962723D01*
X181728262Y-57256499D01*
X181539793Y-57529545D01*
X181319778Y-57777890D01*
X181071433Y-57997905D01*
X180798387Y-58186374D01*
X180504611Y-58340560D01*
X180194394Y-58458210D01*
X179872251Y-58537611D01*
X179542886Y-58577603D01*
X179211114Y-58577603D01*
X178881748Y-58537611D01*
X178559605Y-58458210D01*
X178249388Y-58340560D01*
X177955612Y-58186374D01*
X177682566Y-57997905D01*
X177434221Y-57777890D01*
X177214206Y-57529545D01*
X177025737Y-57256499D01*
X176871551Y-56962723D01*
X176753901Y-56652506D01*
X176674500Y-56330363D01*
X176634509Y-56000998D01*
X176634509Y-55669225D01*
X176674500Y-55339860D01*
X176753901Y-55017717D01*
X176871551Y-54707500D01*
X177025737Y-54413724D01*
X177214206Y-54140678D01*
X177434221Y-53892333D01*
X177682566Y-53672318D01*
X177955612Y-53483849D01*
X178249388Y-53329663D01*
X178559605Y-53212013D01*
X178881748Y-53132612D01*
X179211114Y-53092621D01*
X179542886Y-53092621D01*
D12*
%TO.P,C33,1*%
X179377000Y-57085112D03*
D13*
%TO.P,C33,2*%
X179377000Y-54585112D03*
%TD*%
D10*
%TO.C,J6*%
%TO.CFtp,PinSocket_1x07_P2.54mm_Vertical*%
%TO.CVal,Conn_01x07_Pin*%
%TO.CLbN,Connector_PinSocket_2.54mm*%
%TO.CMnt,TH*%
%TO.CRot,90*%
X202979000Y-79700000D03*
D11*
X219974000Y-77955000D02*
X219974000Y-81495000D01*
X201184000Y-81495000D01*
X201184000Y-77955000D01*
X219974000Y-77955000D01*
D12*
%TO.P,J6,1,Pin_1*%
X202979000Y-79700000D03*
D13*
%TO.P,J6,2,Pin_2*%
X205519000Y-79700000D03*
%TO.P,J6,3,Pin_3*%
X208059000Y-79700000D03*
%TO.P,J6,4,Pin_4*%
X210599000Y-79700000D03*
%TO.P,J6,5,Pin_5*%
X213139000Y-79700000D03*
%TO.P,J6,6,Pin_6*%
X215679000Y-79700000D03*
%TO.P,J6,7,Pin_7*%
X218219000Y-79700000D03*
%TD*%
D10*
%TO.C,C11*%
%TO.CFtp,CP_Radial_D6.3mm_P2.50mm*%
%TO.CVal,100uF*%
%TO.CLbN,Capacitor_THT*%
%TO.CMnt,TH*%
%TO.CRot,0*%
X199244400Y-122786618D03*
D11*
X200861737Y-119409045D02*
X201224755Y-119468558D01*
X201579224Y-119566976D01*
X201920967Y-119703139D01*
X202245993Y-119875457D01*
X202550468Y-120081897D01*
X202830850Y-120320055D01*
X203083841Y-120587134D01*
X203306463Y-120879989D01*
X203496122Y-121195205D01*
X203650589Y-121529077D01*
X203768051Y-121877693D01*
X203847131Y-122236961D01*
X203886910Y-122602714D01*
X203889399Y-122786618D01*
X203886910Y-122970521D01*
X203847131Y-123336274D01*
X203768051Y-123695542D01*
X203650589Y-124044158D01*
X203496122Y-124378030D01*
X203306463Y-124693246D01*
X203083841Y-124986101D01*
X202830850Y-125253180D01*
X202550468Y-125491338D01*
X202245993Y-125697778D01*
X201920967Y-125870096D01*
X201579224Y-126006259D01*
X201224755Y-126104677D01*
X200861737Y-126164190D01*
X200494400Y-126184107D01*
X200127062Y-126164190D01*
X199764044Y-126104677D01*
X199409575Y-126006259D01*
X199067832Y-125870096D01*
X198742806Y-125697778D01*
X198438331Y-125491338D01*
X198157949Y-125253180D01*
X197904958Y-124986101D01*
X197682336Y-124693246D01*
X197492677Y-124378030D01*
X197338210Y-124044158D01*
X197220748Y-123695542D01*
X197141668Y-123336274D01*
X197101893Y-122970550D01*
X197101893Y-122602685D01*
X197141668Y-122236961D01*
X197220748Y-121877693D01*
X197338210Y-121529077D01*
X197492677Y-121195205D01*
X197682336Y-120879989D01*
X197904958Y-120587134D01*
X198157949Y-120320055D01*
X198438331Y-120081897D01*
X198742806Y-119875457D01*
X199067832Y-119703139D01*
X199409575Y-119566976D01*
X199764044Y-119468558D01*
X200127062Y-119409045D01*
X200494400Y-119389128D01*
X200861737Y-119409045D01*
D12*
%TO.P,C11,1*%
X199244400Y-122786618D03*
D13*
%TO.P,C11,2*%
X201744400Y-122786618D03*
%TD*%
D10*
%TO.C,Q2*%
%TO.CFtp,TO-220-3_Vertical*%
%TO.CVal,PMOS_GDS*%
%TO.CLbN,Package_TO_SOT_THT*%
%TO.CMnt,TH*%
%TO.CRot,0*%
X242620800Y-35255200D03*
D11*
X250405800Y-31860200D02*
X250405800Y-36750200D01*
X239915800Y-36750200D01*
X239915800Y-31860200D01*
X250405800Y-31860200D01*
D12*
%TO.P,Q2,1,G*%
X242620800Y-35255200D03*
D13*
%TO.P,Q2,2,D*%
X245160800Y-35255200D03*
%TO.P,Q2,3,S*%
X247700800Y-35255200D03*
%TD*%
D10*
%TO.C,J7*%
%TO.CFtp,PinSocket_1x04_P2.54mm_Vertical*%
%TO.CVal,MOT_CON*%
%TO.CLbN,Connector_PinSocket_2.54mm*%
%TO.CMnt,TH*%
%TO.CRot,90*%
X207769000Y-56450000D03*
D11*
X217164000Y-54705000D02*
X217164000Y-58245000D01*
X205974000Y-58245000D01*
X205974000Y-54705000D01*
X217164000Y-54705000D01*
D12*
%TO.P,J7,1,Pin_1*%
X207769000Y-56450000D03*
D13*
%TO.P,J7,2,Pin_2*%
X210309000Y-56450000D03*
%TO.P,J7,3,Pin_3*%
X212849000Y-56450000D03*
%TO.P,J7,4,Pin_4*%
X215389000Y-56450000D03*
%TD*%
D10*
%TO.C,J5*%
%TO.CFtp,PinSocket_1x02_P2.54mm_Vertical*%
%TO.CVal,BATT_OUT*%
%TO.CLbN,Connector_PinSocket_2.54mm*%
%TO.CMnt,TH*%
%TO.CRot,90*%
X260522400Y-82220200D03*
D11*
X264817400Y-80475200D02*
X264817400Y-84015200D01*
X258727400Y-84015200D01*
X258727400Y-80475200D01*
X264817400Y-80475200D01*
D12*
%TO.P,J5,1,Pin_1*%
X260522400Y-82220200D03*
D13*
%TO.P,J5,2,Pin_2*%
X263062400Y-82220200D03*
%TD*%
D10*
%TO.C,Q1*%
%TO.CFtp,TO-220-3_Vertical*%
%TO.CVal,Q_PMOS_GDS*%
%TO.CLbN,Package_TO_SOT_THT*%
%TO.CMnt,TH*%
%TO.CRot,-90*%
X261330400Y-68681600D03*
D11*
X264725400Y-65976600D02*
X264725400Y-76466600D01*
X259835400Y-76466600D01*
X259835400Y-65976600D01*
X264725400Y-65976600D01*
D12*
%TO.P,Q1,1,G*%
X261330400Y-68681600D03*
D13*
%TO.P,Q1,2,D*%
X261330400Y-71221600D03*
%TO.P,Q1,3,S*%
X261330400Y-73761600D03*
%TD*%
D10*
%TO.C,U8*%
%TO.CFtp,DIP-4_W7.62mm*%
%TO.CVal,SFH617A-1*%
%TO.CLbN,Package_DIP*%
%TO.CMnt,TH*%
%TO.CRot,90*%
X234275000Y-97205000D03*
D11*
X238340000Y-88540000D02*
X238340000Y-98260000D01*
X232760000Y-98260000D01*
X232760000Y-88540000D01*
X238340000Y-88540000D01*
D12*
%TO.P,U8,1*%
X234275000Y-97205000D03*
D13*
%TO.P,U8,2*%
X236815000Y-97205000D03*
%TO.P,U8,3*%
X236815000Y-89585000D03*
%TO.P,U8,4*%
X234275000Y-89585000D03*
%TD*%
D10*
%TO.C,U16*%
%TO.CFtp,PinSocket_2x11_P2.54mm_Vertical*%
%TO.CVal,DBG_HDR*%
%TO.CLbN,Connector_PinSocket_2.54mm*%
%TO.CMnt,TH*%
%TO.CRot,180*%
X207822800Y-129692400D03*
D11*
X212157800Y-102547400D02*
X212157800Y-131487400D01*
X206067800Y-131487400D01*
X206067800Y-102547400D01*
X212157800Y-102547400D01*
D12*
%TO.P,U16,1,GPIO2*%
X207822800Y-129692400D03*
D13*
%TO.P,U16,2,GPIO3*%
X210362800Y-129692400D03*
%TO.P,U16,3,GPIO0*%
X207822800Y-127152400D03*
%TO.P,U16,4,GPIO1*%
X210362800Y-127152400D03*
%TO.P,U16,5,GPIO6*%
X207822800Y-124612400D03*
%TO.P,U16,6,GPIO7*%
X210362800Y-124612400D03*
%TO.P,U16,7,GPIO26*%
X207822800Y-122072400D03*
%TO.P,U16,8,GPIO25*%
X210362800Y-122072400D03*
%TO.P,U16,9,TX*%
X207822800Y-119532400D03*
%TO.P,U16,10,RX*%
X210362800Y-119532400D03*
%TO.P,U16,11,GPIO24*%
X207822800Y-116992400D03*
%TO.P,U16,12,GPIO23*%
X210362800Y-116992400D03*
%TO.P,U16,13,GPIO15*%
X207822800Y-114452400D03*
%TO.P,U16,14,GPIO27*%
X210362800Y-114452400D03*
%TO.P,U16,15,GPIO4*%
X207822800Y-111912400D03*
%TO.P,U16,16,GPIO5*%
X210362800Y-111912400D03*
%TO.P,U16,17,3v3*%
X207822800Y-109372400D03*
%TO.P,U16,18,3v3*%
X210362800Y-109372400D03*
%TO.P,U16,19,5v*%
X207822800Y-106832400D03*
%TO.P,U16,20,5v*%
X210362800Y-106832400D03*
%TO.P,U16,21,GND*%
X207822800Y-104292400D03*
%TO.P,U16,22,GND*%
X210362800Y-104292400D03*
%TD*%
D10*
%TO.C,R3*%
%TO.CFtp,R_Axial_DIN0204_L3.6mm_D1.6mm_P1.90mm_Vertical*%
%TO.CVal,220R*%
%TO.CLbN,Resistor_THT*%
%TO.CMnt,TH*%
%TO.CRot,-90*%
X162100000Y-113295000D03*
D11*
X163145000Y-112250000D02*
X163145000Y-116150000D01*
X161055000Y-116150000D01*
X161055000Y-112250000D01*
X163145000Y-112250000D01*
D12*
%TO.P,R3,1*%
X162100000Y-113295000D03*
D13*
%TO.P,R3,2*%
X162100000Y-115195000D03*
%TD*%
D10*
%TO.C,J18*%
%TO.CFtp,PinSocket_1x04_P2.54mm_Vertical*%
%TO.CVal,MOT_CON*%
%TO.CLbN,Connector_PinSocket_2.54mm*%
%TO.CMnt,TH*%
%TO.CRot,90*%
X184203000Y-56450000D03*
D11*
X193598000Y-54705000D02*
X193598000Y-58245000D01*
X182408000Y-58245000D01*
X182408000Y-54705000D01*
X193598000Y-54705000D01*
D12*
%TO.P,J18,1,Pin_1*%
X184203000Y-56450000D03*
D13*
%TO.P,J18,2,Pin_2*%
X186743000Y-56450000D03*
%TO.P,J18,3,Pin_3*%
X189283000Y-56450000D03*
%TO.P,J18,4,Pin_4*%
X191823000Y-56450000D03*
%TD*%
M02*
