%TF.GenerationSoftware,KiCad,Pcbnew,9.0.2*%
%TF.CreationDate,2025-08-05T17:44:50-07:00*%
%TF.ProjectId,telepresence-bot,74656c65-7072-4657-9365-6e63652d626f,rev?*%
%TF.SameCoordinates,Original*%
%TF.FileFunction,Component,L4,Bot*%
%TF.FilePolarity,Positive*%
%FSLAX46Y46*%
G04 Gerber Fmt 4.6, Leading zero omitted, Abs format (unit mm)*
G04 Created by KiCad (PCBNEW 9.0.2) date 2025-08-05 17:44:50*
%MOMM*%
%LPD*%
G01*
G04 APERTURE LIST*
%TA.AperFunction,ComponentMain*%
%ADD10C,0.300000*%
%TD*%
%TA.AperFunction,ComponentOutline,Courtyard*%
%ADD11C,0.100000*%
%TD*%
%TA.AperFunction,ComponentPin*%
%ADD12P,0.360000X4X0.000000*%
%TD*%
%TA.AperFunction,ComponentPin*%
%ADD13C,0.100000*%
%TD*%
G04 APERTURE END LIST*
D10*
%TO.C,R25*%
%TO.CFtp,R_0805_2012Metric_Pad1.20x1.40mm_HandSolder*%
%TO.CVal,33R*%
%TO.CLbN,Resistor_SMD*%
%TO.CMnt,SMD*%
%TO.CRot,-90*%
X204396000Y-76311000D03*
D11*
X205341000Y-74466000D02*
X205341000Y-78156000D01*
X203451000Y-78156000D01*
X203451000Y-74466000D01*
X205341000Y-74466000D01*
D12*
%TO.P,R25,1*%
X204396000Y-77311000D03*
D13*
%TO.P,R25,2*%
X204396000Y-75311000D03*
%TD*%
D10*
%TO.C,R51*%
%TO.CFtp,R_0805_2012Metric_Pad1.20x1.40mm_HandSolder*%
%TO.CVal,33R*%
%TO.CLbN,Resistor_SMD*%
%TO.CMnt,SMD*%
%TO.CRot,0*%
X230350000Y-75500000D03*
D11*
X232195000Y-74555000D02*
X232195000Y-76445000D01*
X228505000Y-76445000D01*
X228505000Y-74555000D01*
X232195000Y-74555000D01*
D12*
%TO.P,R51,1*%
X231350000Y-75500000D03*
D13*
%TO.P,R51,2*%
X229350000Y-75500000D03*
%TD*%
D10*
%TO.C,U6*%
%TO.CFtp,VSSOP-10_3x3mm_P0.5mm*%
%TO.CVal,INA228*%
%TO.CLbN,Package_SO*%
%TO.CMnt,SMD*%
%TO.CRot,-90*%
X252200000Y-57700000D03*
D11*
X253595000Y-54525000D02*
X253595000Y-55955000D01*
X253945000Y-55955000D01*
X253945000Y-59445000D01*
X253595000Y-59445000D01*
X253595000Y-60875000D01*
X250805000Y-60875000D01*
X250805000Y-59445000D01*
X250455000Y-59445000D01*
X250455000Y-55955000D01*
X250805000Y-55955000D01*
X250805000Y-54525000D01*
X253595000Y-54525000D01*
D12*
%TO.P,U6,1,A1*%
X253200000Y-59900000D03*
D13*
%TO.P,U6,2,A0*%
X252700000Y-59900000D03*
%TO.P,U6,3,~{Alert}*%
X252200000Y-59900000D03*
%TO.P,U6,4,SDA*%
X251700000Y-59900000D03*
%TO.P,U6,5,SCL*%
X251200000Y-59900000D03*
%TO.P,U6,6,VS*%
X251200000Y-55500000D03*
%TO.P,U6,7,GND*%
X251700000Y-55500000D03*
%TO.P,U6,8,Vbus*%
X252200000Y-55500000D03*
%TO.P,U6,9,Vin-*%
X252700000Y-55500000D03*
%TO.P,U6,10,Vin+*%
X253200000Y-55500000D03*
%TD*%
D10*
%TO.C,R93*%
%TO.CFtp,R_0805_2012Metric_Pad1.20x1.40mm_HandSolder*%
%TO.CVal,100k*%
%TO.CLbN,Resistor_SMD*%
%TO.CMnt,SMD*%
%TO.CRot,90*%
X171884000Y-69723000D03*
D11*
X172829000Y-67878000D02*
X172829000Y-71568000D01*
X170939000Y-71568000D01*
X170939000Y-67878000D01*
X172829000Y-67878000D01*
D12*
%TO.P,R93,1*%
X171884000Y-68723000D03*
D13*
%TO.P,R93,2*%
X171884000Y-70723000D03*
%TD*%
D10*
%TO.C,R7*%
%TO.CFtp,R_0805_2012Metric_Pad1.20x1.40mm_HandSolder*%
%TO.CVal,33R*%
%TO.CLbN,Resistor_SMD*%
%TO.CMnt,SMD*%
%TO.CRot,180*%
X223113600Y-108712000D03*
D11*
X224958600Y-107767000D02*
X224958600Y-109657000D01*
X221268600Y-109657000D01*
X221268600Y-107767000D01*
X224958600Y-107767000D01*
D12*
%TO.P,R7,1*%
X222113600Y-108712000D03*
D13*
%TO.P,R7,2*%
X224113600Y-108712000D03*
%TD*%
D10*
%TO.C,R49*%
%TO.CFtp,R_0805_2012Metric_Pad1.20x1.40mm_HandSolder*%
%TO.CVal,33R*%
%TO.CLbN,Resistor_SMD*%
%TO.CMnt,SMD*%
%TO.CRot,90*%
X190807000Y-69977000D03*
D11*
X191752000Y-68132000D02*
X191752000Y-71822000D01*
X189862000Y-71822000D01*
X189862000Y-68132000D01*
X191752000Y-68132000D01*
D12*
%TO.P,R49,1*%
X190807000Y-68977000D03*
D13*
%TO.P,R49,2*%
X190807000Y-70977000D03*
%TD*%
D10*
%TO.C,R92*%
%TO.CFtp,R_0805_2012Metric_Pad1.20x1.40mm_HandSolder*%
%TO.CVal,100k*%
%TO.CLbN,Resistor_SMD*%
%TO.CMnt,SMD*%
%TO.CRot,90*%
X169471000Y-69850000D03*
D11*
X170416000Y-68005000D02*
X170416000Y-71695000D01*
X168526000Y-71695000D01*
X168526000Y-68005000D01*
X170416000Y-68005000D01*
D12*
%TO.P,R92,1*%
X169471000Y-68850000D03*
D13*
%TO.P,R92,2*%
X169471000Y-70850000D03*
%TD*%
D10*
%TO.C,R44*%
%TO.CFtp,R_0805_2012Metric_Pad1.20x1.40mm_HandSolder*%
%TO.CVal,33R*%
%TO.CLbN,Resistor_SMD*%
%TO.CMnt,SMD*%
%TO.CRot,180*%
X198475600Y-89662000D03*
D11*
X200320600Y-88717000D02*
X200320600Y-90607000D01*
X196630600Y-90607000D01*
X196630600Y-88717000D01*
X200320600Y-88717000D01*
D12*
%TO.P,R44,1*%
X197475600Y-89662000D03*
D13*
%TO.P,R44,2*%
X199475600Y-89662000D03*
%TD*%
D10*
%TO.C,R43*%
%TO.CFtp,R_0805_2012Metric_Pad1.20x1.40mm_HandSolder*%
%TO.CVal,33R*%
%TO.CLbN,Resistor_SMD*%
%TO.CMnt,SMD*%
%TO.CRot,0*%
X205000000Y-85000000D03*
D11*
X206845000Y-84055000D02*
X206845000Y-85945000D01*
X203155000Y-85945000D01*
X203155000Y-84055000D01*
X206845000Y-84055000D01*
D12*
%TO.P,R43,1*%
X206000000Y-85000000D03*
D13*
%TO.P,R43,2*%
X204000000Y-85000000D03*
%TD*%
D10*
%TO.C,R18*%
%TO.CFtp,R_0805_2012Metric_Pad1.20x1.40mm_HandSolder*%
%TO.CVal,33R*%
%TO.CLbN,Resistor_SMD*%
%TO.CMnt,SMD*%
%TO.CRot,-90*%
X212900000Y-95200000D03*
D11*
X213845000Y-93355000D02*
X213845000Y-97045000D01*
X211955000Y-97045000D01*
X211955000Y-93355000D01*
X213845000Y-93355000D01*
D12*
%TO.P,R18,1*%
X212900000Y-96200000D03*
D13*
%TO.P,R18,2*%
X212900000Y-94200000D03*
%TD*%
D10*
%TO.C,R29*%
%TO.CFtp,R_0805_2012Metric_Pad1.20x1.40mm_HandSolder*%
%TO.CVal,33R*%
%TO.CLbN,Resistor_SMD*%
%TO.CMnt,SMD*%
%TO.CRot,90*%
X238469000Y-69650000D03*
D11*
X239414000Y-67805000D02*
X239414000Y-71495000D01*
X237524000Y-71495000D01*
X237524000Y-67805000D01*
X239414000Y-67805000D01*
D12*
%TO.P,R29,1*%
X238469000Y-68650000D03*
D13*
%TO.P,R29,2*%
X238469000Y-70650000D03*
%TD*%
D10*
%TO.C,C21*%
%TO.CFtp,C_0805_2012Metric_Pad1.18x1.45mm_HandSolder*%
%TO.CVal,100nF*%
%TO.CLbN,Capacitor_SMD*%
%TO.CMnt,SMD*%
%TO.CRot,90*%
X213766400Y-87477600D03*
D11*
X214741400Y-85602600D02*
X214741400Y-89352600D01*
X212791400Y-89352600D01*
X212791400Y-85602600D01*
X214741400Y-85602600D01*
D12*
%TO.P,C21,1*%
X213766400Y-86440100D03*
D13*
%TO.P,C21,2*%
X213766400Y-88515100D03*
%TD*%
D10*
%TO.C,R20*%
%TO.CFtp,R_0805_2012Metric_Pad1.20x1.40mm_HandSolder*%
%TO.CVal,33R*%
%TO.CLbN,Resistor_SMD*%
%TO.CMnt,SMD*%
%TO.CRot,-90*%
X209000000Y-95200000D03*
D11*
X209945000Y-93355000D02*
X209945000Y-97045000D01*
X208055000Y-97045000D01*
X208055000Y-93355000D01*
X209945000Y-93355000D01*
D12*
%TO.P,R20,1*%
X209000000Y-96200000D03*
D13*
%TO.P,R20,2*%
X209000000Y-94200000D03*
%TD*%
D10*
%TO.C,R69*%
%TO.CFtp,R_0805_2012Metric_Pad1.20x1.40mm_HandSolder*%
%TO.CVal,33R*%
%TO.CLbN,Resistor_SMD*%
%TO.CMnt,SMD*%
%TO.CRot,90*%
X185727000Y-69977000D03*
D11*
X186672000Y-68132000D02*
X186672000Y-71822000D01*
X184782000Y-71822000D01*
X184782000Y-68132000D01*
X186672000Y-68132000D01*
D12*
%TO.P,R69,1*%
X185727000Y-68977000D03*
D13*
%TO.P,R69,2*%
X185727000Y-70977000D03*
%TD*%
D10*
%TO.C,R19*%
%TO.CFtp,R_0805_2012Metric_Pad1.20x1.40mm_HandSolder*%
%TO.CVal,33R*%
%TO.CLbN,Resistor_SMD*%
%TO.CMnt,SMD*%
%TO.CRot,-90*%
X211000000Y-95200000D03*
D11*
X211945000Y-93355000D02*
X211945000Y-97045000D01*
X210055000Y-97045000D01*
X210055000Y-93355000D01*
X211945000Y-93355000D01*
D12*
%TO.P,R19,1*%
X211000000Y-96200000D03*
D13*
%TO.P,R19,2*%
X211000000Y-94200000D03*
%TD*%
D10*
%TO.C,C25*%
%TO.CFtp,C_0805_2012Metric_Pad1.18x1.45mm_HandSolder*%
%TO.CVal,100nF*%
%TO.CLbN,Capacitor_SMD*%
%TO.CMnt,SMD*%
%TO.CRot,180*%
X200068000Y-125326618D03*
D11*
X201943000Y-124351618D02*
X201943000Y-126301618D01*
X198193000Y-126301618D01*
X198193000Y-124351618D01*
X201943000Y-124351618D01*
D12*
%TO.P,C25,1*%
X199030500Y-125326618D03*
D13*
%TO.P,C25,2*%
X201105500Y-125326618D03*
%TD*%
D10*
%TO.C,R39*%
%TO.CFtp,R_0805_2012Metric_Pad1.20x1.40mm_HandSolder*%
%TO.CVal,10k*%
%TO.CLbN,Resistor_SMD*%
%TO.CMnt,SMD*%
%TO.CRot,90*%
X234250000Y-86500000D03*
D11*
X235195000Y-84655000D02*
X235195000Y-88345000D01*
X233305000Y-88345000D01*
X233305000Y-84655000D01*
X235195000Y-84655000D01*
D12*
%TO.P,R39,1*%
X234250000Y-85500000D03*
D13*
%TO.P,R39,2*%
X234250000Y-87500000D03*
%TD*%
D10*
%TO.C,R89*%
%TO.CFtp,R_0805_2012Metric_Pad1.20x1.40mm_HandSolder*%
%TO.CVal,33R*%
%TO.CLbN,Resistor_SMD*%
%TO.CMnt,SMD*%
%TO.CRot,-90*%
X172011000Y-76327000D03*
D11*
X172956000Y-74482000D02*
X172956000Y-78172000D01*
X171066000Y-78172000D01*
X171066000Y-74482000D01*
X172956000Y-74482000D01*
D12*
%TO.P,R89,1*%
X172011000Y-77327000D03*
D13*
%TO.P,R89,2*%
X172011000Y-75327000D03*
%TD*%
D10*
%TO.C,R22*%
%TO.CFtp,R_Shunt_Vishay_WSKW0612*%
%TO.CVal,1.5m*%
%TO.CLbN,Resistor_SMD*%
%TO.CMnt,SMD*%
%TO.CRot,90*%
X252265000Y-46421500D03*
D11*
X253900000Y-44456500D02*
X253900000Y-48386500D01*
X250630000Y-48386500D01*
X250630000Y-44456500D01*
X253900000Y-44456500D01*
D12*
%TO.P,R22,1,1*%
X251380000Y-45849500D03*
D13*
%TO.P,R22,2,2*%
X251380000Y-47755500D03*
%TO.P,R22,3,3*%
X253150000Y-47755500D03*
%TO.P,R22,4,4*%
X253150000Y-45850000D03*
%TD*%
D10*
%TO.C,R11*%
%TO.CFtp,R_0805_2012Metric_Pad1.20x1.40mm_HandSolder*%
%TO.CVal,10k*%
%TO.CLbN,Resistor_SMD*%
%TO.CMnt,SMD*%
%TO.CRot,180*%
X255641600Y-76098400D03*
D11*
X257486600Y-75153400D02*
X257486600Y-77043400D01*
X253796600Y-77043400D01*
X253796600Y-75153400D01*
X257486600Y-75153400D01*
D12*
%TO.P,R11,1*%
X254641600Y-76098400D03*
D13*
%TO.P,R11,2*%
X256641600Y-76098400D03*
%TD*%
D10*
%TO.C,R81*%
%TO.CFtp,R_0805_2012Metric_Pad1.20x1.40mm_HandSolder*%
%TO.CVal,33R*%
%TO.CLbN,Resistor_SMD*%
%TO.CMnt,SMD*%
%TO.CRot,-90*%
X158041000Y-76327000D03*
D11*
X158986000Y-74482000D02*
X158986000Y-78172000D01*
X157096000Y-78172000D01*
X157096000Y-74482000D01*
X158986000Y-74482000D01*
D12*
%TO.P,R81,1*%
X158041000Y-77327000D03*
D13*
%TO.P,R81,2*%
X158041000Y-75327000D03*
%TD*%
D10*
%TO.C,R23*%
%TO.CFtp,R_0805_2012Metric_Pad1.20x1.40mm_HandSolder*%
%TO.CVal,33R*%
%TO.CLbN,Resistor_SMD*%
%TO.CMnt,SMD*%
%TO.CRot,90*%
X214519000Y-69850000D03*
D11*
X215464000Y-68005000D02*
X215464000Y-71695000D01*
X213574000Y-71695000D01*
X213574000Y-68005000D01*
X215464000Y-68005000D01*
D12*
%TO.P,R23,1*%
X214519000Y-68850000D03*
D13*
%TO.P,R23,2*%
X214519000Y-70850000D03*
%TD*%
D10*
%TO.C,R38*%
%TO.CFtp,R_0805_2012Metric_Pad1.20x1.40mm_HandSolder*%
%TO.CVal,100k*%
%TO.CLbN,Resistor_SMD*%
%TO.CMnt,SMD*%
%TO.CRot,0*%
X245364000Y-37947600D03*
D11*
X247209000Y-37002600D02*
X247209000Y-38892600D01*
X243519000Y-38892600D01*
X243519000Y-37002600D01*
X247209000Y-37002600D01*
D12*
%TO.P,R38,1*%
X246364000Y-37947600D03*
D13*
%TO.P,R38,2*%
X244364000Y-37947600D03*
%TD*%
D10*
%TO.C,R24*%
%TO.CFtp,R_0805_2012Metric_Pad1.20x1.40mm_HandSolder*%
%TO.CVal,33R*%
%TO.CLbN,Resistor_SMD*%
%TO.CMnt,SMD*%
%TO.CRot,90*%
X204119000Y-69977000D03*
D11*
X205064000Y-68132000D02*
X205064000Y-71822000D01*
X203174000Y-71822000D01*
X203174000Y-68132000D01*
X205064000Y-68132000D01*
D12*
%TO.P,R24,1*%
X204119000Y-68977000D03*
D13*
%TO.P,R24,2*%
X204119000Y-70977000D03*
%TD*%
D10*
%TO.C,R77*%
%TO.CFtp,R_0805_2012Metric_Pad1.20x1.40mm_HandSolder*%
%TO.CVal,100k*%
%TO.CLbN,Resistor_SMD*%
%TO.CMnt,SMD*%
%TO.CRot,90*%
X193220000Y-69977000D03*
D11*
X194165000Y-68132000D02*
X194165000Y-71822000D01*
X192275000Y-71822000D01*
X192275000Y-68132000D01*
X194165000Y-68132000D01*
D12*
%TO.P,R77,1*%
X193220000Y-68977000D03*
D13*
%TO.P,R77,2*%
X193220000Y-70977000D03*
%TD*%
D10*
%TO.C,R36*%
%TO.CFtp,R_0805_2012Metric_Pad1.20x1.40mm_HandSolder*%
%TO.CVal,100k*%
%TO.CLbN,Resistor_SMD*%
%TO.CMnt,SMD*%
%TO.CRot,90*%
X217019000Y-69750000D03*
D11*
X217964000Y-67905000D02*
X217964000Y-71595000D01*
X216074000Y-71595000D01*
X216074000Y-67905000D01*
X217964000Y-67905000D01*
D12*
%TO.P,R36,1*%
X217019000Y-68750000D03*
D13*
%TO.P,R36,2*%
X217019000Y-70750000D03*
%TD*%
D10*
%TO.C,FB2*%
%TO.CFtp,L_1210_3225Metric_Pad1.42x2.65mm_HandSolder*%
%TO.CVal,FB*%
%TO.CLbN,Inductor_SMD*%
%TO.CMnt,SMD*%
%TO.CRot,-90*%
X199306000Y-118925818D03*
D11*
X200881000Y-116480818D02*
X200881000Y-121370818D01*
X197731000Y-121370818D01*
X197731000Y-116480818D01*
X200881000Y-116480818D01*
D12*
%TO.P,FB2,1*%
X199306000Y-120413318D03*
D13*
%TO.P,FB2,2*%
X199306000Y-117438318D03*
%TD*%
D10*
%TO.C,R52*%
%TO.CFtp,R_0805_2012Metric_Pad1.20x1.40mm_HandSolder*%
%TO.CVal,33R*%
%TO.CLbN,Resistor_SMD*%
%TO.CMnt,SMD*%
%TO.CRot,90*%
X230769000Y-69850000D03*
D11*
X231714000Y-68005000D02*
X231714000Y-71695000D01*
X229824000Y-71695000D01*
X229824000Y-68005000D01*
X231714000Y-68005000D01*
D12*
%TO.P,R52,1*%
X230769000Y-68850000D03*
D13*
%TO.P,R52,2*%
X230769000Y-70850000D03*
%TD*%
D10*
%TO.C,C36*%
%TO.CFtp,C_1206_3216Metric_Pad1.33x1.80mm_HandSolder*%
%TO.CVal,100nF*%
%TO.CLbN,Capacitor_SMD*%
%TO.CMnt,SMD*%
%TO.CRot,180*%
X155628000Y-63119000D03*
D11*
X158103000Y-61974000D02*
X158103000Y-64264000D01*
X153153000Y-64264000D01*
X153153000Y-61974000D01*
X158103000Y-61974000D01*
D12*
%TO.P,C36,1*%
X154065500Y-63119000D03*
D13*
%TO.P,C36,2*%
X157190500Y-63119000D03*
%TD*%
D10*
%TO.C,R94*%
%TO.CFtp,R_0805_2012Metric_Pad1.20x1.40mm_HandSolder*%
%TO.CVal,100k*%
%TO.CLbN,Resistor_SMD*%
%TO.CMnt,SMD*%
%TO.CRot,-90*%
X202700000Y-95200000D03*
D11*
X203645000Y-93355000D02*
X203645000Y-97045000D01*
X201755000Y-97045000D01*
X201755000Y-93355000D01*
X203645000Y-93355000D01*
D12*
%TO.P,R94,1*%
X202700000Y-96200000D03*
D13*
%TO.P,R94,2*%
X202700000Y-94200000D03*
%TD*%
D10*
%TO.C,C26*%
%TO.CFtp,C_0805_2012Metric_Pad1.18x1.45mm_HandSolder*%
%TO.CVal,100nF*%
%TO.CLbN,Capacitor_SMD*%
%TO.CMnt,SMD*%
%TO.CRot,0*%
X195415900Y-117452618D03*
D11*
X197290900Y-116477618D02*
X197290900Y-118427618D01*
X193540900Y-118427618D01*
X193540900Y-116477618D01*
X197290900Y-116477618D01*
D12*
%TO.P,C26,1*%
X196453400Y-117452618D03*
D13*
%TO.P,C26,2*%
X194378400Y-117452618D03*
%TD*%
D10*
%TO.C,R78*%
%TO.CFtp,R_0805_2012Metric_Pad1.20x1.40mm_HandSolder*%
%TO.CVal,100k*%
%TO.CLbN,Resistor_SMD*%
%TO.CMnt,SMD*%
%TO.CRot,90*%
X195887000Y-69977000D03*
D11*
X196832000Y-68132000D02*
X196832000Y-71822000D01*
X194942000Y-71822000D01*
X194942000Y-68132000D01*
X196832000Y-68132000D01*
D12*
%TO.P,R78,1*%
X195887000Y-68977000D03*
D13*
%TO.P,R78,2*%
X195887000Y-70977000D03*
%TD*%
D10*
%TO.C,R65*%
%TO.CFtp,R_0805_2012Metric_Pad1.20x1.40mm_HandSolder*%
%TO.CVal,33R*%
%TO.CLbN,Resistor_SMD*%
%TO.CMnt,SMD*%
%TO.CRot,90*%
X180393000Y-69977000D03*
D11*
X181338000Y-68132000D02*
X181338000Y-71822000D01*
X179448000Y-71822000D01*
X179448000Y-68132000D01*
X181338000Y-68132000D01*
D12*
%TO.P,R65,1*%
X180393000Y-68977000D03*
D13*
%TO.P,R65,2*%
X180393000Y-70977000D03*
%TD*%
D10*
%TO.C,L4*%
%TO.CFtp,L_1210_3225Metric_Pad1.42x2.65mm_HandSolder*%
%TO.CVal,ferrite*%
%TO.CLbN,Inductor_SMD*%
%TO.CMnt,SMD*%
%TO.CRot,-90*%
X175059000Y-58928000D03*
D11*
X176634000Y-56483000D02*
X176634000Y-61373000D01*
X173484000Y-61373000D01*
X173484000Y-56483000D01*
X176634000Y-56483000D01*
D12*
%TO.P,L4,1,1*%
X175059000Y-60415500D03*
D13*
%TO.P,L4,2,2*%
X175059000Y-57440500D03*
%TD*%
D10*
%TO.C,U10*%
%TO.CFtp,SSOP-16_3.9x4.9mm_P0.635mm*%
%TO.CVal,ISO7762DBQ*%
%TO.CLbN,Package_SO*%
%TO.CMnt,SMD*%
%TO.CRot,-90*%
X209823900Y-89306400D03*
D11*
X212668900Y-85861400D02*
X212668900Y-92751400D01*
X207028900Y-92751400D01*
X207028900Y-85861400D01*
X212668900Y-85861400D01*
D12*
%TO.P,U10,1,Vcc1*%
X212046400Y-91906400D03*
D13*
%TO.P,U10,2,INA*%
X211411400Y-91906400D03*
%TO.P,U10,3,INB*%
X210776400Y-91906400D03*
%TO.P,U10,4,INC*%
X210141400Y-91906400D03*
%TO.P,U10,5,IND*%
X209506400Y-91906400D03*
%TO.P,U10,6,OUTE*%
X208871400Y-91906400D03*
%TO.P,U10,7,OUTF*%
X208236400Y-91906400D03*
%TO.P,U10,8,GND1*%
X207601400Y-91906400D03*
%TO.P,U10,9,GND2*%
X207601400Y-86706400D03*
%TO.P,U10,10,INF*%
X208236400Y-86706400D03*
%TO.P,U10,11,INE*%
X208871400Y-86706400D03*
%TO.P,U10,12,OUTD*%
X209506400Y-86706400D03*
%TO.P,U10,13,OUTC*%
X210141400Y-86706400D03*
%TO.P,U10,14,OUTB*%
X210776400Y-86706400D03*
%TO.P,U10,15,OUTA*%
X211411400Y-86706400D03*
%TO.P,U10,16,Vcc2*%
X212046400Y-86706400D03*
%TD*%
D10*
%TO.C,R82*%
%TO.CFtp,R_0805_2012Metric_Pad1.20x1.40mm_HandSolder*%
%TO.CVal,33R*%
%TO.CLbN,Resistor_SMD*%
%TO.CMnt,SMD*%
%TO.CRot,90*%
X159184000Y-69977000D03*
D11*
X160129000Y-68132000D02*
X160129000Y-71822000D01*
X158239000Y-71822000D01*
X158239000Y-68132000D01*
X160129000Y-68132000D01*
D12*
%TO.P,R82,1*%
X159184000Y-68977000D03*
D13*
%TO.P,R82,2*%
X159184000Y-70977000D03*
%TD*%
D10*
%TO.C,C12*%
%TO.CFtp,C_0805_2012Metric_Pad1.18x1.45mm_HandSolder*%
%TO.CVal,100nF*%
%TO.CLbN,Capacitor_SMD*%
%TO.CMnt,SMD*%
%TO.CRot,0*%
X249377200Y-121818400D03*
D11*
X251252200Y-120843400D02*
X251252200Y-122793400D01*
X247502200Y-122793400D01*
X247502200Y-120843400D01*
X251252200Y-120843400D01*
D12*
%TO.P,C12,1*%
X250414700Y-121818400D03*
D13*
%TO.P,C12,2*%
X248339700Y-121818400D03*
%TD*%
D10*
%TO.C,R50*%
%TO.CFtp,R_0805_2012Metric_Pad1.20x1.40mm_HandSolder*%
%TO.CVal,33R*%
%TO.CLbN,Resistor_SMD*%
%TO.CMnt,SMD*%
%TO.CRot,90*%
X228169000Y-69750000D03*
D11*
X229114000Y-67905000D02*
X229114000Y-71595000D01*
X227224000Y-71595000D01*
X227224000Y-67905000D01*
X229114000Y-67905000D01*
D12*
%TO.P,R50,1*%
X228169000Y-68750000D03*
D13*
%TO.P,R50,2*%
X228169000Y-70750000D03*
%TD*%
D10*
%TO.C,C4*%
%TO.CFtp,C_0805_2012Metric_Pad1.18x1.45mm_HandSolder*%
%TO.CVal,100nF*%
%TO.CLbN,Capacitor_SMD*%
%TO.CMnt,SMD*%
%TO.CRot,-90*%
X259000000Y-116200000D03*
D11*
X259975000Y-114325000D02*
X259975000Y-118075000D01*
X258025000Y-118075000D01*
X258025000Y-114325000D01*
X259975000Y-114325000D01*
D12*
%TO.P,C4,1*%
X259000000Y-117237500D03*
D13*
%TO.P,C4,2*%
X259000000Y-115162500D03*
%TD*%
D10*
%TO.C,C6*%
%TO.CFtp,C_0805_2012Metric_Pad1.18x1.45mm_HandSolder*%
%TO.CVal,100nF*%
%TO.CLbN,Capacitor_SMD*%
%TO.CMnt,SMD*%
%TO.CRot,180*%
X252780800Y-129133600D03*
D11*
X254655800Y-128158600D02*
X254655800Y-130108600D01*
X250905800Y-130108600D01*
X250905800Y-128158600D01*
X254655800Y-128158600D01*
D12*
%TO.P,C6,1*%
X251743300Y-129133600D03*
D13*
%TO.P,C6,2*%
X253818300Y-129133600D03*
%TD*%
D10*
%TO.C,R66*%
%TO.CFtp,R_0805_2012Metric_Pad1.20x1.40mm_HandSolder*%
%TO.CVal,33R*%
%TO.CLbN,Resistor_SMD*%
%TO.CMnt,SMD*%
%TO.CRot,-90*%
X182171000Y-76327000D03*
D11*
X183116000Y-74482000D02*
X183116000Y-78172000D01*
X181226000Y-78172000D01*
X181226000Y-74482000D01*
X183116000Y-74482000D01*
D12*
%TO.P,R66,1*%
X182171000Y-77327000D03*
D13*
%TO.P,R66,2*%
X182171000Y-75327000D03*
%TD*%
D10*
%TO.C,C13*%
%TO.CFtp,C_0805_2012Metric_Pad1.18x1.45mm_HandSolder*%
%TO.CVal,100nF*%
%TO.CLbN,Capacitor_SMD*%
%TO.CMnt,SMD*%
%TO.CRot,0*%
X218219000Y-62750000D03*
D11*
X220094000Y-61775000D02*
X220094000Y-63725000D01*
X216344000Y-63725000D01*
X216344000Y-61775000D01*
X220094000Y-61775000D01*
D12*
%TO.P,C13,1*%
X219256500Y-62750000D03*
D13*
%TO.P,C13,2*%
X217181500Y-62750000D03*
%TD*%
D10*
%TO.C,C8*%
%TO.CFtp,C_0805_2012Metric_Pad1.18x1.45mm_HandSolder*%
%TO.CVal,100nF*%
%TO.CLbN,Capacitor_SMD*%
%TO.CMnt,SMD*%
%TO.CRot,-90*%
X258673600Y-101926300D03*
D11*
X259648600Y-100051300D02*
X259648600Y-103801300D01*
X257698600Y-103801300D01*
X257698600Y-100051300D01*
X259648600Y-100051300D01*
D12*
%TO.P,C8,1*%
X258673600Y-102963800D03*
D13*
%TO.P,C8,2*%
X258673600Y-100888800D03*
%TD*%
D10*
%TO.C,C9*%
%TO.CFtp,C_0805_2012Metric_Pad1.18x1.45mm_HandSolder*%
%TO.CVal,100nF*%
%TO.CLbN,Capacitor_SMD*%
%TO.CMnt,SMD*%
%TO.CRot,90*%
X249350000Y-56950000D03*
D11*
X250325000Y-55075000D02*
X250325000Y-58825000D01*
X248375000Y-58825000D01*
X248375000Y-55075000D01*
X250325000Y-55075000D01*
D12*
%TO.P,C9,1*%
X249350000Y-55912500D03*
D13*
%TO.P,C9,2*%
X249350000Y-57987500D03*
%TD*%
D10*
%TO.C,R8*%
%TO.CFtp,R_0805_2012Metric_Pad1.20x1.40mm_HandSolder*%
%TO.CVal,100k*%
%TO.CLbN,Resistor_SMD*%
%TO.CMnt,SMD*%
%TO.CRot,-90*%
X258470400Y-71323200D03*
D11*
X259415400Y-69478200D02*
X259415400Y-73168200D01*
X257525400Y-73168200D01*
X257525400Y-69478200D01*
X259415400Y-69478200D01*
D12*
%TO.P,R8,1*%
X258470400Y-72323200D03*
D13*
%TO.P,R8,2*%
X258470400Y-70323200D03*
%TD*%
D10*
%TO.C,R17*%
%TO.CFtp,R_0805_2012Metric_Pad1.20x1.40mm_HandSolder*%
%TO.CVal,10k*%
%TO.CLbN,Resistor_SMD*%
%TO.CMnt,SMD*%
%TO.CRot,180*%
X246938800Y-119786400D03*
D11*
X248783800Y-118841400D02*
X248783800Y-120731400D01*
X245093800Y-120731400D01*
X245093800Y-118841400D01*
X248783800Y-118841400D01*
D12*
%TO.P,R17,1*%
X245938800Y-119786400D03*
D13*
%TO.P,R17,2*%
X247938800Y-119786400D03*
%TD*%
D10*
%TO.C,R59*%
%TO.CFtp,R_0805_2012Metric_Pad1.20x1.40mm_HandSolder*%
%TO.CVal,33R*%
%TO.CLbN,Resistor_SMD*%
%TO.CMnt,SMD*%
%TO.CRot,-90*%
X243639000Y-76327000D03*
D11*
X244584000Y-74482000D02*
X244584000Y-78172000D01*
X242694000Y-78172000D01*
X242694000Y-74482000D01*
X244584000Y-74482000D01*
D12*
%TO.P,R59,1*%
X243639000Y-77327000D03*
D13*
%TO.P,R59,2*%
X243639000Y-75327000D03*
%TD*%
D10*
%TO.C,R37*%
%TO.CFtp,R_0805_2012Metric_Pad1.20x1.40mm_HandSolder*%
%TO.CVal,100k*%
%TO.CLbN,Resistor_SMD*%
%TO.CMnt,SMD*%
%TO.CRot,90*%
X219669000Y-69700000D03*
D11*
X220614000Y-67855000D02*
X220614000Y-71545000D01*
X218724000Y-71545000D01*
X218724000Y-67855000D01*
X220614000Y-67855000D01*
D12*
%TO.P,R37,1*%
X219669000Y-68700000D03*
D13*
%TO.P,R37,2*%
X219669000Y-70700000D03*
%TD*%
D10*
%TO.C,R13*%
%TO.CFtp,R_0805_2012Metric_Pad1.20x1.40mm_HandSolder*%
%TO.CVal,10k*%
%TO.CLbN,Resistor_SMD*%
%TO.CMnt,SMD*%
%TO.CRot,180*%
X259486400Y-76047600D03*
D11*
X261331400Y-75102600D02*
X261331400Y-76992600D01*
X257641400Y-76992600D01*
X257641400Y-75102600D01*
X261331400Y-75102600D01*
D12*
%TO.P,R13,1*%
X258486400Y-76047600D03*
D13*
%TO.P,R13,2*%
X260486400Y-76047600D03*
%TD*%
D10*
%TO.C,FB1*%
%TO.CFtp,L_1210_3225Metric_Pad1.42x2.65mm_HandSolder*%
%TO.CVal,FB*%
%TO.CLbN,Inductor_SMD*%
%TO.CMnt,SMD*%
%TO.CRot,0*%
X254711200Y-123393200D03*
D11*
X257156200Y-121818200D02*
X257156200Y-124968200D01*
X252266200Y-124968200D01*
X252266200Y-121818200D01*
X257156200Y-121818200D01*
D12*
%TO.P,FB1,1*%
X256198700Y-123393200D03*
D13*
%TO.P,FB1,2*%
X253223700Y-123393200D03*
%TD*%
D10*
%TO.C,C28*%
%TO.CFtp,C_1206_3216Metric_Pad1.33x1.80mm_HandSolder*%
%TO.CVal,100nF*%
%TO.CLbN,Capacitor_SMD*%
%TO.CMnt,SMD*%
%TO.CRot,180*%
X227069000Y-63050000D03*
D11*
X229544000Y-61905000D02*
X229544000Y-64195000D01*
X224594000Y-64195000D01*
X224594000Y-61905000D01*
X229544000Y-61905000D01*
D12*
%TO.P,C28,1*%
X225506500Y-63050000D03*
D13*
%TO.P,C28,2*%
X228631500Y-63050000D03*
%TD*%
D10*
%TO.C,C22*%
%TO.CFtp,C_0805_2012Metric_Pad1.18x1.45mm_HandSolder*%
%TO.CVal,100nF*%
%TO.CLbN,Capacitor_SMD*%
%TO.CMnt,SMD*%
%TO.CRot,180*%
X192278000Y-91186000D03*
D11*
X194153000Y-90211000D02*
X194153000Y-92161000D01*
X190403000Y-92161000D01*
X190403000Y-90211000D01*
X194153000Y-90211000D01*
D12*
%TO.P,C22,1*%
X191240500Y-91186000D03*
D13*
%TO.P,C22,2*%
X193315500Y-91186000D03*
%TD*%
D10*
%TO.C,R26*%
%TO.CFtp,R_0805_2012Metric_Pad1.20x1.40mm_HandSolder*%
%TO.CVal,33R*%
%TO.CLbN,Resistor_SMD*%
%TO.CMnt,SMD*%
%TO.CRot,90*%
X206809000Y-69950000D03*
D11*
X207754000Y-68105000D02*
X207754000Y-71795000D01*
X205864000Y-71795000D01*
X205864000Y-68105000D01*
X207754000Y-68105000D01*
D12*
%TO.P,R26,1*%
X206809000Y-68950000D03*
D13*
%TO.P,R26,2*%
X206809000Y-70950000D03*
%TD*%
D10*
%TO.C,R45*%
%TO.CFtp,R_0805_2012Metric_Pad1.20x1.40mm_HandSolder*%
%TO.CVal,33R*%
%TO.CLbN,Resistor_SMD*%
%TO.CMnt,SMD*%
%TO.CRot,180*%
X192684400Y-85140800D03*
D11*
X194529400Y-84195800D02*
X194529400Y-86085800D01*
X190839400Y-86085800D01*
X190839400Y-84195800D01*
X194529400Y-84195800D01*
D12*
%TO.P,R45,1*%
X191684400Y-85140800D03*
D13*
%TO.P,R45,2*%
X193684400Y-85140800D03*
%TD*%
D10*
%TO.C,C32*%
%TO.CFtp,C_1206_3216Metric_Pad1.33x1.80mm_HandSolder*%
%TO.CVal,100nF*%
%TO.CLbN,Capacitor_SMD*%
%TO.CMnt,SMD*%
%TO.CRot,180*%
X179631000Y-62992000D03*
D11*
X182106000Y-61847000D02*
X182106000Y-64137000D01*
X177156000Y-64137000D01*
X177156000Y-61847000D01*
X182106000Y-61847000D01*
D12*
%TO.P,C32,1*%
X178068500Y-62992000D03*
D13*
%TO.P,C32,2*%
X181193500Y-62992000D03*
%TD*%
D10*
%TO.C,R55*%
%TO.CFtp,R_0805_2012Metric_Pad1.20x1.40mm_HandSolder*%
%TO.CVal,33R*%
%TO.CLbN,Resistor_SMD*%
%TO.CMnt,SMD*%
%TO.CRot,90*%
X166804000Y-69850000D03*
D11*
X167749000Y-68005000D02*
X167749000Y-71695000D01*
X165859000Y-71695000D01*
X165859000Y-68005000D01*
X167749000Y-68005000D01*
D12*
%TO.P,R55,1*%
X166804000Y-68850000D03*
D13*
%TO.P,R55,2*%
X166804000Y-70850000D03*
%TD*%
D10*
%TO.C,R80*%
%TO.CFtp,R_0805_2012Metric_Pad1.20x1.40mm_HandSolder*%
%TO.CVal,33R*%
%TO.CLbN,Resistor_SMD*%
%TO.CMnt,SMD*%
%TO.CRot,90*%
X156644000Y-69977000D03*
D11*
X157589000Y-68132000D02*
X157589000Y-71822000D01*
X155699000Y-71822000D01*
X155699000Y-68132000D01*
X157589000Y-68132000D01*
D12*
%TO.P,R80,1*%
X156644000Y-68977000D03*
D13*
%TO.P,R80,2*%
X156644000Y-70977000D03*
%TD*%
D10*
%TO.C,R74*%
%TO.CFtp,R_0805_2012Metric_Pad1.20x1.40mm_HandSolder*%
%TO.CVal,33R*%
%TO.CLbN,Resistor_SMD*%
%TO.CMnt,SMD*%
%TO.CRot,-90*%
X196014000Y-76327000D03*
D11*
X196959000Y-74482000D02*
X196959000Y-78172000D01*
X195069000Y-78172000D01*
X195069000Y-74482000D01*
X196959000Y-74482000D01*
D12*
%TO.P,R74,1*%
X196014000Y-77327000D03*
D13*
%TO.P,R74,2*%
X196014000Y-75327000D03*
%TD*%
D10*
%TO.C,R62*%
%TO.CFtp,R_0805_2012Metric_Pad1.20x1.40mm_HandSolder*%
%TO.CVal,100k*%
%TO.CLbN,Resistor_SMD*%
%TO.CMnt,SMD*%
%TO.CRot,90*%
X241119000Y-69750000D03*
D11*
X242064000Y-67905000D02*
X242064000Y-71595000D01*
X240174000Y-71595000D01*
X240174000Y-67905000D01*
X242064000Y-67905000D01*
D12*
%TO.P,R62,1*%
X241119000Y-68750000D03*
D13*
%TO.P,R62,2*%
X241119000Y-70750000D03*
%TD*%
D10*
%TO.C,C10*%
%TO.CFtp,C_1206_3216Metric_Pad1.33x1.80mm_HandSolder*%
%TO.CVal,100nF*%
%TO.CLbN,Capacitor_SMD*%
%TO.CMnt,SMD*%
%TO.CRot,0*%
X251950000Y-53300000D03*
D11*
X254425000Y-52155000D02*
X254425000Y-54445000D01*
X249475000Y-54445000D01*
X249475000Y-52155000D01*
X254425000Y-52155000D01*
D12*
%TO.P,C10,1*%
X253512500Y-53300000D03*
D13*
%TO.P,C10,2*%
X250387500Y-53300000D03*
%TD*%
D10*
%TO.C,R40*%
%TO.CFtp,R_0805_2012Metric_Pad1.20x1.40mm_HandSolder*%
%TO.CVal,10k*%
%TO.CLbN,Resistor_SMD*%
%TO.CMnt,SMD*%
%TO.CRot,90*%
X250037600Y-35204400D03*
D11*
X250982600Y-33359400D02*
X250982600Y-37049400D01*
X249092600Y-37049400D01*
X249092600Y-33359400D01*
X250982600Y-33359400D01*
D12*
%TO.P,R40,1*%
X250037600Y-34204400D03*
D13*
%TO.P,R40,2*%
X250037600Y-36204400D03*
%TD*%
D10*
%TO.C,R31*%
%TO.CFtp,R_0805_2012Metric_Pad1.20x1.40mm_HandSolder*%
%TO.CVal,33R*%
%TO.CLbN,Resistor_SMD*%
%TO.CMnt,SMD*%
%TO.CRot,-90*%
X216269000Y-76300000D03*
D11*
X217214000Y-74455000D02*
X217214000Y-78145000D01*
X215324000Y-78145000D01*
X215324000Y-74455000D01*
X217214000Y-74455000D01*
D12*
%TO.P,R31,1*%
X216269000Y-77300000D03*
D13*
%TO.P,R31,2*%
X216269000Y-75300000D03*
%TD*%
D10*
%TO.C,R42*%
%TO.CFtp,R_0805_2012Metric_Pad1.20x1.40mm_HandSolder*%
%TO.CVal,33R*%
%TO.CLbN,Resistor_SMD*%
%TO.CMnt,SMD*%
%TO.CRot,0*%
X196224400Y-92862400D03*
D11*
X198069400Y-91917400D02*
X198069400Y-93807400D01*
X194379400Y-93807400D01*
X194379400Y-91917400D01*
X198069400Y-91917400D01*
D12*
%TO.P,R42,1*%
X197224400Y-92862400D03*
D13*
%TO.P,R42,2*%
X195224400Y-92862400D03*
%TD*%
D10*
%TO.C,R33*%
%TO.CFtp,R_0805_2012Metric_Pad1.20x1.40mm_HandSolder*%
%TO.CVal,33R*%
%TO.CLbN,Resistor_SMD*%
%TO.CMnt,SMD*%
%TO.CRot,-90*%
X219569000Y-76300000D03*
D11*
X220514000Y-74455000D02*
X220514000Y-78145000D01*
X218624000Y-78145000D01*
X218624000Y-74455000D01*
X220514000Y-74455000D01*
D12*
%TO.P,R33,1*%
X219569000Y-77300000D03*
D13*
%TO.P,R33,2*%
X219569000Y-75300000D03*
%TD*%
D10*
%TO.C,R12*%
%TO.CFtp,R_0805_2012Metric_Pad1.20x1.40mm_HandSolder*%
%TO.CVal,33R*%
%TO.CLbN,Resistor_SMD*%
%TO.CMnt,SMD*%
%TO.CRot,-90*%
X253565000Y-50300000D03*
D11*
X254510000Y-48455000D02*
X254510000Y-52145000D01*
X252620000Y-52145000D01*
X252620000Y-48455000D01*
X254510000Y-48455000D01*
D12*
%TO.P,R12,1*%
X253565000Y-51300000D03*
D13*
%TO.P,R12,2*%
X253565000Y-49300000D03*
%TD*%
D10*
%TO.C,R87*%
%TO.CFtp,R_0805_2012Metric_Pad1.20x1.40mm_HandSolder*%
%TO.CVal,33R*%
%TO.CLbN,Resistor_SMD*%
%TO.CMnt,SMD*%
%TO.CRot,-90*%
X169471000Y-76327000D03*
D11*
X170416000Y-74482000D02*
X170416000Y-78172000D01*
X168526000Y-78172000D01*
X168526000Y-74482000D01*
X170416000Y-74482000D01*
D12*
%TO.P,R87,1*%
X169471000Y-77327000D03*
D13*
%TO.P,R87,2*%
X169471000Y-75327000D03*
%TD*%
D10*
%TO.C,C14*%
%TO.CFtp,C_1206_3216Metric_Pad1.33x1.80mm_HandSolder*%
%TO.CVal,100nF*%
%TO.CLbN,Capacitor_SMD*%
%TO.CMnt,SMD*%
%TO.CRot,180*%
X203131500Y-62950000D03*
D11*
X205606500Y-61805000D02*
X205606500Y-64095000D01*
X200656500Y-64095000D01*
X200656500Y-61805000D01*
X205606500Y-61805000D01*
D12*
%TO.P,C14,1*%
X201569000Y-62950000D03*
D13*
%TO.P,C14,2*%
X204694000Y-62950000D03*
%TD*%
D10*
%TO.C,R21*%
%TO.CFtp,R_0805_2012Metric_Pad1.20x1.40mm_HandSolder*%
%TO.CVal,33R*%
%TO.CLbN,Resistor_SMD*%
%TO.CMnt,SMD*%
%TO.CRot,-90*%
X207100000Y-95200000D03*
D11*
X208045000Y-93355000D02*
X208045000Y-97045000D01*
X206155000Y-97045000D01*
X206155000Y-93355000D01*
X208045000Y-93355000D01*
D12*
%TO.P,R21,1*%
X207100000Y-96200000D03*
D13*
%TO.P,R21,2*%
X207100000Y-94200000D03*
%TD*%
D10*
%TO.C,L3*%
%TO.CFtp,L_1210_3225Metric_Pad1.42x2.65mm_HandSolder*%
%TO.CVal,ferrite*%
%TO.CLbN,Inductor_SMD*%
%TO.CMnt,SMD*%
%TO.CRot,-90*%
X222819000Y-58800000D03*
D11*
X224394000Y-56355000D02*
X224394000Y-61245000D01*
X221244000Y-61245000D01*
X221244000Y-56355000D01*
X224394000Y-56355000D01*
D12*
%TO.P,L3,1,1*%
X222819000Y-60287500D03*
D13*
%TO.P,L3,2,2*%
X222819000Y-57312500D03*
%TD*%
D10*
%TO.C,L5*%
%TO.CFtp,L_1210_3225Metric_Pad1.42x2.65mm_HandSolder*%
%TO.CVal,ferrite*%
%TO.CLbN,Inductor_SMD*%
%TO.CMnt,SMD*%
%TO.CRot,-90*%
X151056000Y-59218500D03*
D11*
X152631000Y-56773500D02*
X152631000Y-61663500D01*
X149481000Y-61663500D01*
X149481000Y-56773500D01*
X152631000Y-56773500D01*
D12*
%TO.P,L5,1,1*%
X151056000Y-60706000D03*
D13*
%TO.P,L5,2,2*%
X151056000Y-57731000D03*
%TD*%
D10*
%TO.C,C2*%
%TO.CFtp,C_1206_3216Metric_Pad1.33x1.80mm_HandSolder*%
%TO.CVal,100nF*%
%TO.CLbN,Capacitor_SMD*%
%TO.CMnt,SMD*%
%TO.CRot,-90*%
X258775200Y-108153200D03*
D11*
X259920200Y-105678200D02*
X259920200Y-110628200D01*
X257630200Y-110628200D01*
X257630200Y-105678200D01*
X259920200Y-105678200D01*
D12*
%TO.P,C2,1*%
X258775200Y-109715700D03*
D13*
%TO.P,C2,2*%
X258775200Y-106590700D03*
%TD*%
D10*
%TO.C,R67*%
%TO.CFtp,R_0805_2012Metric_Pad1.20x1.40mm_HandSolder*%
%TO.CVal,33R*%
%TO.CLbN,Resistor_SMD*%
%TO.CMnt,SMD*%
%TO.CRot,90*%
X183314000Y-69977000D03*
D11*
X184259000Y-68132000D02*
X184259000Y-71822000D01*
X182369000Y-71822000D01*
X182369000Y-68132000D01*
X184259000Y-68132000D01*
D12*
%TO.P,R67,1*%
X183314000Y-68977000D03*
D13*
%TO.P,R67,2*%
X183314000Y-70977000D03*
%TD*%
D10*
%TO.C,R16*%
%TO.CFtp,R_0805_2012Metric_Pad1.20x1.40mm_HandSolder*%
%TO.CVal,10k*%
%TO.CLbN,Resistor_SMD*%
%TO.CMnt,SMD*%
%TO.CRot,180*%
X247192800Y-123799600D03*
D11*
X249037800Y-122854600D02*
X249037800Y-124744600D01*
X245347800Y-124744600D01*
X245347800Y-122854600D01*
X249037800Y-122854600D01*
D12*
%TO.P,R16,1*%
X246192800Y-123799600D03*
D13*
%TO.P,R16,2*%
X248192800Y-123799600D03*
%TD*%
D10*
%TO.C,R30*%
%TO.CFtp,R_0805_2012Metric_Pad1.20x1.40mm_HandSolder*%
%TO.CVal,33R*%
%TO.CLbN,Resistor_SMD*%
%TO.CMnt,SMD*%
%TO.CRot,-90*%
X251000000Y-50250000D03*
D11*
X251945000Y-48405000D02*
X251945000Y-52095000D01*
X250055000Y-52095000D01*
X250055000Y-48405000D01*
X251945000Y-48405000D01*
D12*
%TO.P,R30,1*%
X251000000Y-51250000D03*
D13*
%TO.P,R30,2*%
X251000000Y-49250000D03*
%TD*%
D10*
%TO.C,R54*%
%TO.CFtp,R_0805_2012Metric_Pad1.20x1.40mm_HandSolder*%
%TO.CVal,33R*%
%TO.CLbN,Resistor_SMD*%
%TO.CMnt,SMD*%
%TO.CRot,90*%
X233369000Y-69850000D03*
D11*
X234314000Y-68005000D02*
X234314000Y-71695000D01*
X232424000Y-71695000D01*
X232424000Y-68005000D01*
X234314000Y-68005000D01*
D12*
%TO.P,R54,1*%
X233369000Y-68850000D03*
D13*
%TO.P,R54,2*%
X233369000Y-70850000D03*
%TD*%
D10*
%TO.C,R84*%
%TO.CFtp,R_0805_2012Metric_Pad1.20x1.40mm_HandSolder*%
%TO.CVal,33R*%
%TO.CLbN,Resistor_SMD*%
%TO.CMnt,SMD*%
%TO.CRot,90*%
X161724000Y-69977000D03*
D11*
X162669000Y-68132000D02*
X162669000Y-71822000D01*
X160779000Y-71822000D01*
X160779000Y-68132000D01*
X162669000Y-68132000D01*
D12*
%TO.P,R84,1*%
X161724000Y-68977000D03*
D13*
%TO.P,R84,2*%
X161724000Y-70977000D03*
%TD*%
D10*
%TO.C,L1*%
%TO.CFtp,L_1210_3225Metric_Pad1.42x2.65mm_HandSolder*%
%TO.CVal,ferrite*%
%TO.CLbN,Inductor_SMD*%
%TO.CMnt,SMD*%
%TO.CRot,-90*%
X198819000Y-58950000D03*
D11*
X200394000Y-56505000D02*
X200394000Y-61395000D01*
X197244000Y-61395000D01*
X197244000Y-56505000D01*
X200394000Y-56505000D01*
D12*
%TO.P,L1,1,1*%
X198819000Y-60437500D03*
D13*
%TO.P,L1,2,2*%
X198819000Y-57462500D03*
%TD*%
D10*
%TO.C,C20*%
%TO.CFtp,C_0805_2012Metric_Pad1.18x1.45mm_HandSolder*%
%TO.CVal,100nF*%
%TO.CLbN,Capacitor_SMD*%
%TO.CMnt,SMD*%
%TO.CRot,90*%
X213766400Y-91236800D03*
D11*
X214741400Y-89361800D02*
X214741400Y-93111800D01*
X212791400Y-93111800D01*
X212791400Y-89361800D01*
X214741400Y-89361800D01*
D12*
%TO.P,C20,1*%
X213766400Y-90199300D03*
D13*
%TO.P,C20,2*%
X213766400Y-92274300D03*
%TD*%
D10*
%TO.C,R72*%
%TO.CFtp,R_0805_2012Metric_Pad1.20x1.40mm_HandSolder*%
%TO.CVal,33R*%
%TO.CLbN,Resistor_SMD*%
%TO.CMnt,SMD*%
%TO.CRot,-90*%
X192712000Y-76327000D03*
D11*
X193657000Y-74482000D02*
X193657000Y-78172000D01*
X191767000Y-78172000D01*
X191767000Y-74482000D01*
X193657000Y-74482000D01*
D12*
%TO.P,R72,1*%
X192712000Y-77327000D03*
D13*
%TO.P,R72,2*%
X192712000Y-75327000D03*
%TD*%
D10*
%TO.C,R57*%
%TO.CFtp,R_0805_2012Metric_Pad1.20x1.40mm_HandSolder*%
%TO.CVal,33R*%
%TO.CLbN,Resistor_SMD*%
%TO.CMnt,SMD*%
%TO.CRot,-90*%
X241099000Y-76327000D03*
D11*
X242044000Y-74482000D02*
X242044000Y-78172000D01*
X240154000Y-78172000D01*
X240154000Y-74482000D01*
X242044000Y-74482000D01*
D12*
%TO.P,R57,1*%
X241099000Y-77327000D03*
D13*
%TO.P,R57,2*%
X241099000Y-75327000D03*
%TD*%
D10*
%TO.C,C27*%
%TO.CFtp,C_0805_2012Metric_Pad1.18x1.45mm_HandSolder*%
%TO.CVal,100nF*%
%TO.CLbN,Capacitor_SMD*%
%TO.CMnt,SMD*%
%TO.CRot,0*%
X242269000Y-62750000D03*
D11*
X244144000Y-61775000D02*
X244144000Y-63725000D01*
X240394000Y-63725000D01*
X240394000Y-61775000D01*
X244144000Y-61775000D01*
D12*
%TO.P,C27,1*%
X243306500Y-62750000D03*
D13*
%TO.P,C27,2*%
X241231500Y-62750000D03*
%TD*%
D10*
%TO.C,R28*%
%TO.CFtp,R_0805_2012Metric_Pad1.20x1.40mm_HandSolder*%
%TO.CVal,33R*%
%TO.CLbN,Resistor_SMD*%
%TO.CMnt,SMD*%
%TO.CRot,90*%
X209569000Y-69950000D03*
D11*
X210514000Y-68105000D02*
X210514000Y-71795000D01*
X208624000Y-71795000D01*
X208624000Y-68105000D01*
X210514000Y-68105000D01*
D12*
%TO.P,R28,1*%
X209569000Y-68950000D03*
D13*
%TO.P,R28,2*%
X209569000Y-70950000D03*
%TD*%
D10*
%TO.C,R1*%
%TO.CFtp,R_0805_2012Metric_Pad1.20x1.40mm_HandSolder*%
%TO.CVal,33R*%
%TO.CLbN,Resistor_SMD*%
%TO.CMnt,SMD*%
%TO.CRot,180*%
X236850000Y-109700000D03*
D11*
X238695000Y-108755000D02*
X238695000Y-110645000D01*
X235005000Y-110645000D01*
X235005000Y-108755000D01*
X238695000Y-108755000D01*
D12*
%TO.P,R1,1*%
X235850000Y-109700000D03*
D13*
%TO.P,R1,2*%
X237850000Y-109700000D03*
%TD*%
D10*
%TO.C,C35*%
%TO.CFtp,C_0805_2012Metric_Pad1.18x1.45mm_HandSolder*%
%TO.CVal,100nF*%
%TO.CLbN,Capacitor_SMD*%
%TO.CMnt,SMD*%
%TO.CRot,0*%
X170868000Y-62992000D03*
D11*
X172743000Y-62017000D02*
X172743000Y-63967000D01*
X168993000Y-63967000D01*
X168993000Y-62017000D01*
X172743000Y-62017000D01*
D12*
%TO.P,C35,1*%
X171905500Y-62992000D03*
D13*
%TO.P,C35,2*%
X169830500Y-62992000D03*
%TD*%
D10*
%TO.C,R63*%
%TO.CFtp,R_0805_2012Metric_Pad1.20x1.40mm_HandSolder*%
%TO.CVal,100k*%
%TO.CLbN,Resistor_SMD*%
%TO.CMnt,SMD*%
%TO.CRot,90*%
X243669000Y-69800000D03*
D11*
X244614000Y-67955000D02*
X244614000Y-71645000D01*
X242724000Y-71645000D01*
X242724000Y-67955000D01*
X244614000Y-67955000D01*
D12*
%TO.P,R63,1*%
X243669000Y-68800000D03*
D13*
%TO.P,R63,2*%
X243669000Y-70800000D03*
%TD*%
D10*
%TO.C,C31*%
%TO.CFtp,C_0805_2012Metric_Pad1.18x1.45mm_HandSolder*%
%TO.CVal,100nF*%
%TO.CLbN,Capacitor_SMD*%
%TO.CMnt,SMD*%
%TO.CRot,0*%
X194617000Y-62738000D03*
D11*
X196492000Y-61763000D02*
X196492000Y-63713000D01*
X192742000Y-63713000D01*
X192742000Y-61763000D01*
X196492000Y-61763000D01*
D12*
%TO.P,C31,1*%
X195654500Y-62738000D03*
D13*
%TO.P,C31,2*%
X193579500Y-62738000D03*
%TD*%
M02*
